<svg width="1438" height="967" viewBox="0 0 1438 967" fill="none" xmlns="http://www.w3.org/2000/svg">
<path d="M1206.01 1.37988V966.052" stroke="black" stroke-width="2.02773" stroke-miterlimit="10"/>
<path d="M1.58252 0.367188V965.039" stroke="black" stroke-width="2.02773" stroke-miterlimit="10"/>
<path d="M1.71631 499.943H215.804" stroke="black" stroke-width="2.02773" stroke-miterlimit="10"/>
<path d="M1.71631 471.225H1206.01" stroke="black" stroke-width="2.02773" stroke-miterlimit="10"/>
<path d="M215.155 499.532L651.198 965.363" stroke="black" stroke-width="2.02773" stroke-miterlimit="10"/>
<path d="M778.457 966.422V1.12109" stroke="black" stroke-width="2.02773" stroke-miterlimit="10"/>
<path d="M149.112 16.062H14.7954V66.4308H149.112V16.062Z" fill="#050505" stroke="black" stroke-width="2.02773" stroke-miterlimit="10"/>
<path d="M1192.76 8.5835H1079.33V84.1367H1192.76V8.5835Z" fill="#050505" stroke="black" stroke-width="2.02773" stroke-miterlimit="10"/>
<path d="M1045.92 906.358H999.522V948.109H1045.92V906.358Z" fill="#050505" stroke="black" stroke-width="2.02773" stroke-miterlimit="10"/>
<path d="M838.195 812.269H703.878V862.638H838.195V812.269Z" fill="#050505" stroke="black" stroke-width="2.02773" stroke-miterlimit="10"/>
<path d="M1192.76 848.89H1058.45V947.924H1192.76V848.89Z" fill="#050505" stroke="black" stroke-width="2.02773" stroke-miterlimit="10"/>
<path d="M42.3928 803.512H14.7954V949.894H42.3928V803.512Z" fill="#050505" stroke="black" stroke-width="2.02773" stroke-miterlimit="10"/>
<path d="M172.939 898.409H81.9551V956.058H172.939V898.409Z" fill="#050505" stroke="black" stroke-width="2.02773" stroke-miterlimit="10"/>
<path d="M1206.01 754.987H1456.23" stroke="black" stroke-width="2.02773" stroke-miterlimit="10"/>
<path d="M1205.09 648.695H1453.69" stroke="black" stroke-width="2.02773" stroke-miterlimit="10"/>
<path d="M1205.09 902.034H1453.69" stroke="black" stroke-width="2.02773" stroke-miterlimit="10"/>
<path d="M42.7377 80.4238H14.4712V93.5838H42.7377V80.4238Z" fill="#050505" stroke="black" stroke-width="2.02773" stroke-miterlimit="10"/>
</svg>
