<svg width="1408" height="523" viewBox="0 0 1408 523" fill="none" xmlns="http://www.w3.org/2000/svg">
<path d="M788.911 58.151L166.212 265.537L220.866 429.641L843.565 222.255L788.911 58.151Z" fill="#A9FF37" stroke="black" stroke-width="1.97112" stroke-miterlimit="10"/>
<path d="M1541.4 82.8652L717.029 357.418L771.447 520.811L1595.82 246.259L1541.4 82.8652Z" fill="#A9FF37" stroke="black" stroke-width="1.97112" stroke-miterlimit="10"/>
<path d="M915.442 283.382L976.82 453.15" stroke="black" stroke-width="1.97112" stroke-miterlimit="10"/>
<path d="M850.317 0C518.814 250.116 516.074 241.877 931.35 243.335C516.093 241.877 540.516 233.756 209.012 483.852C540.516 233.756 543.255 241.975 127.979 240.517C543.236 241.975 518.814 250.096 850.317 0Z" fill="#FCFCFC"/>
<path d="M790.125 58.7244L718.258 357.251L917.598 291.494L942.729 189.351L790.125 58.7244Z" fill="black" stroke="black" stroke-width="1.97112" stroke-miterlimit="10"/>
<path d="M201.619 252.04L0 319.188L55.2643 485.125L256.884 417.977L201.619 252.04Z" fill="black"/>
<path d="M352.913 260.713C304.246 278.098 303.3 279.36 313.273 314.288C300.303 280.365 298.805 279.912 249.429 295.168C298.096 277.783 299.042 276.522 289.068 241.593C302.038 275.516 303.536 275.97 352.913 260.713Z" fill="#FCFCFC"/>
<path d="M490.217 305.41C464.178 314.674 463.666 315.305 468.594 332.789C462.049 315.837 461.261 315.62 434.868 323.82C460.906 314.556 461.419 313.925 456.491 296.441C463.035 313.393 463.823 313.61 490.217 305.41Z" fill="#FCFCFC"/>
<path d="M756.832 131.557C730.794 140.822 730.281 141.452 735.209 158.936C728.665 141.984 727.876 141.768 701.483 149.968C727.521 140.703 728.034 140.072 723.106 122.589C729.65 139.54 730.439 139.757 756.832 131.557Z" fill="#FCFCFC"/>
</svg>
