<svg width="1532" height="682" viewBox="0 0 1532 682" fill="none" xmlns="http://www.w3.org/2000/svg">
<rect width="1532" height="682" fill="white"/>
<rect x="6" width="1525.6" height="678.09" fill="#D9D9D9"/>
<line x1="1321.2" y1="579.858" x2="1321.2" y2="598.302" stroke="black" stroke-width="1.125"/>
<line x1="1438.46" y1="579.858" x2="1438.46" y2="598.302" stroke="black" stroke-width="1.125"/>
<line x1="1321.8" y1="597.739" x2="1437.9" y2="597.739" stroke="black" stroke-width="1.125"/>
<ellipse cx="179.34" cy="87.8329" rx="26.7038" ry="23.3263" fill="black"/>
<ellipse cx="1284.65" cy="88.9184" rx="26.7038" ry="23.3263" fill="black"/>
<ellipse cx="1422.81" cy="88.9184" rx="26.7038" ry="23.3263" fill="black"/>
<ellipse cx="179.34" cy="226.709" rx="26.7038" ry="23.3263" fill="black"/>
<ellipse cx="179.34" cy="365.58" rx="26.7038" ry="23.3263" fill="black"/>
<ellipse cx="179.34" cy="504.452" rx="26.7038" ry="23.3263" fill="black"/>
<ellipse cx="1284.65" cy="227.794" rx="26.7038" ry="23.3263" fill="black"/>
<ellipse cx="1284.65" cy="366.666" rx="26.7038" ry="23.3263" fill="black"/>
<ellipse cx="1422.81" cy="227.794" rx="26.7038" ry="23.3263" fill="black"/>
<ellipse cx="1422.81" cy="366.666" rx="26.7038" ry="23.3263" fill="black"/>
<ellipse cx="320.986" cy="226.709" rx="26.7038" ry="23.3263" fill="black"/>
<ellipse cx="319.825" cy="366.666" rx="26.7038" ry="23.3263" fill="black"/>
<ellipse cx="319.825" cy="505.537" rx="26.7038" ry="23.3263" fill="black"/>
<ellipse cx="457.988" cy="226.709" rx="26.7038" ry="23.3263" fill="black"/>
<ellipse cx="457.988" cy="365.58" rx="26.7038" ry="23.3263" fill="black"/>
<ellipse cx="457.988" cy="505.537" rx="26.7038" ry="23.3263" fill="black"/>
<ellipse cx="586.863" cy="226.709" rx="26.7038" ry="23.3263" fill="black"/>
<ellipse cx="586.863" cy="365.58" rx="26.7038" ry="23.3263" fill="black"/>
<ellipse cx="735.476" cy="226.709" rx="26.7038" ry="23.3263" fill="black"/>
<ellipse cx="735.476" cy="365.58" rx="26.7038" ry="23.3263" fill="black"/>
<ellipse cx="875.961" cy="227.794" rx="26.7038" ry="23.3263" fill="black"/>
<ellipse cx="874.8" cy="366.666" rx="26.7038" ry="23.3263" fill="black"/>
<ellipse cx="1012.96" cy="226.709" rx="26.7038" ry="23.3263" fill="black"/>
<ellipse cx="1012.96" cy="365.58" rx="26.7038" ry="23.3263" fill="black"/>
<ellipse cx="1152.29" cy="226.709" rx="26.7038" ry="23.3263" fill="black"/>
<ellipse cx="1151.13" cy="365.58" rx="26.7038" ry="23.3263" fill="black"/>
<ellipse cx="735.476" cy="87.8329" rx="26.7038" ry="23.3263" fill="black"/>
<ellipse cx="457.988" cy="87.8329" rx="26.7038" ry="23.3263" fill="black"/>
<ellipse cx="1012.96" cy="87.8329" rx="26.7038" ry="23.3263" fill="black"/>
<ellipse cx="319.825" cy="87.8329" rx="26.7038" ry="23.3263" fill="black"/>
<ellipse cx="874.8" cy="87.8329" rx="26.7038" ry="23.3263" fill="black"/>
<ellipse cx="586.863" cy="87.8329" rx="26.7038" ry="23.3263" fill="black"/>
<ellipse cx="1151.13" cy="87.8329" rx="26.7038" ry="23.3263" fill="black"/>
<ellipse cx="168.891" cy="133.403" rx="6.96621" ry="5.9672" fill="black"/>
<ellipse cx="1274.2" cy="134.489" rx="6.96621" ry="5.9672" fill="black"/>
<ellipse cx="1412.36" cy="134.489" rx="6.96621" ry="5.9672" fill="black"/>
<ellipse cx="168.891" cy="272.275" rx="6.96621" ry="5.9672" fill="black"/>
<ellipse cx="168.891" cy="411.147" rx="6.96621" ry="5.9672" fill="black"/>
<ellipse cx="168.891" cy="550.023" rx="6.96621" ry="5.9672" fill="black"/>
<ellipse cx="1274.2" cy="273.361" rx="6.96621" ry="5.9672" fill="black"/>
<ellipse cx="1274.2" cy="412.232" rx="6.96621" ry="5.9672" fill="black"/>
<ellipse cx="1412.36" cy="273.361" rx="6.96621" ry="5.9672" fill="black"/>
<ellipse cx="1412.36" cy="412.232" rx="6.96621" ry="5.9672" fill="black"/>
<ellipse cx="310.537" cy="272.275" rx="6.96621" ry="5.9672" fill="black"/>
<ellipse cx="309.376" cy="412.232" rx="6.96621" ry="5.9672" fill="black"/>
<ellipse cx="309.376" cy="551.104" rx="6.96621" ry="5.9672" fill="black"/>
<ellipse cx="447.539" cy="272.275" rx="6.96621" ry="5.9672" fill="black"/>
<ellipse cx="447.539" cy="411.147" rx="6.96621" ry="5.9672" fill="black"/>
<ellipse cx="447.539" cy="551.104" rx="6.96621" ry="5.9672" fill="black"/>
<ellipse cx="576.414" cy="272.275" rx="6.96621" ry="5.9672" fill="black"/>
<ellipse cx="576.414" cy="411.147" rx="6.96621" ry="5.9672" fill="black"/>
<ellipse cx="725.026" cy="272.275" rx="6.96621" ry="5.9672" fill="black"/>
<ellipse cx="725.026" cy="411.147" rx="6.96621" ry="5.9672" fill="black"/>
<ellipse cx="865.512" cy="273.361" rx="6.96621" ry="5.9672" fill="black"/>
<ellipse cx="864.351" cy="412.232" rx="6.96621" ry="5.9672" fill="black"/>
<ellipse cx="1002.51" cy="272.275" rx="6.96621" ry="5.9672" fill="black"/>
<ellipse cx="1002.51" cy="411.147" rx="6.96621" ry="5.9672" fill="black"/>
<ellipse cx="1141.84" cy="272.275" rx="6.96621" ry="5.9672" fill="black"/>
<ellipse cx="1140.68" cy="411.147" rx="6.96621" ry="5.9672" fill="black"/>
<ellipse cx="725.026" cy="133.403" rx="6.96621" ry="5.9672" fill="black"/>
<ellipse cx="447.539" cy="133.403" rx="6.96621" ry="5.9672" fill="black"/>
<ellipse cx="1002.51" cy="133.403" rx="6.96621" ry="5.9672" fill="black"/>
<ellipse cx="309.376" cy="133.403" rx="6.96621" ry="5.9672" fill="black"/>
<ellipse cx="864.351" cy="133.403" rx="6.96621" ry="5.9672" fill="black"/>
<ellipse cx="576.414" cy="133.403" rx="6.96621" ry="5.9672" fill="black"/>
<ellipse cx="1140.68" cy="133.403" rx="6.96621" ry="5.9672" fill="black"/>
<line x1="112.562" y1="75.3567" x2="112.562" y2="525.609" stroke="black" stroke-width="1.125"/>
<line x1="1217.87" y1="76.4421" x2="1217.87" y2="382.397" stroke="black" stroke-width="1.125"/>
<line x1="1356.03" y1="76.4421" x2="1356.03" y2="385.651" stroke="black" stroke-width="1.125"/>
<line x1="668.698" y1="75.3567" x2="668.698" y2="385.651" stroke="black" stroke-width="1.125"/>
<line x1="391.211" y1="75.3567" x2="391.211" y2="526.694" stroke="black" stroke-width="1.125"/>
<line x1="946.186" y1="75.3567" x2="946.186" y2="385.651" stroke="black" stroke-width="1.125"/>
<line x1="253.048" y1="75.3567" x2="253.048" y2="526.694" stroke="black" stroke-width="1.125"/>
<line x1="808.022" y1="75.3567" x2="808.022" y2="389.991" stroke="black" stroke-width="1.125"/>
<line x1="520.086" y1="75.3567" x2="520.086" y2="385.651" stroke="black" stroke-width="1.125"/>
<line x1="1084.35" y1="75.3567" x2="1084.35" y2="382.396" stroke="black" stroke-width="1.125"/>
<rect x="112.562" y="75.9192" width="29.0619" height="32.5083" fill="white" stroke="black" stroke-width="1.125"/>
<rect x="1217.87" y="77.0046" width="29.0619" height="32.5083" fill="white" stroke="black" stroke-width="1.125"/>
<rect x="1356.03" y="77.0046" width="29.0619" height="32.5083" fill="white" stroke="black" stroke-width="1.125"/>
<rect x="112.562" y="214.795" width="29.0619" height="32.5083" fill="white" stroke="black" stroke-width="1.125"/>
<rect x="112.562" y="353.667" width="29.0619" height="32.5083" fill="white" stroke="black" stroke-width="1.125"/>
<rect x="112.562" y="492.538" width="29.0619" height="32.5083" fill="white" stroke="black" stroke-width="1.125"/>
<rect x="1217.87" y="215.876" width="29.0619" height="32.5083" fill="white" stroke="black" stroke-width="1.125"/>
<rect x="1217.87" y="354.752" width="29.0619" height="32.5083" fill="white" stroke="black" stroke-width="1.125"/>
<rect x="1356.03" y="215.876" width="29.0619" height="32.5083" fill="white" stroke="black" stroke-width="1.125"/>
<rect x="1356.03" y="354.752" width="29.0619" height="32.5083" fill="white" stroke="black" stroke-width="1.125"/>
<rect x="254.208" y="214.795" width="29.0619" height="32.5083" fill="white" stroke="black" stroke-width="1.125"/>
<rect x="253.048" y="354.752" width="29.0619" height="32.5083" fill="white" stroke="black" stroke-width="1.125"/>
<rect x="253.048" y="493.624" width="29.0619" height="32.5083" fill="white" stroke="black" stroke-width="1.125"/>
<rect x="391.211" y="214.795" width="29.0619" height="32.5083" fill="white" stroke="black" stroke-width="1.125"/>
<rect x="391.211" y="353.667" width="29.0619" height="32.5083" fill="white" stroke="black" stroke-width="1.125"/>
<rect x="391.211" y="493.624" width="29.0619" height="32.5083" fill="white" stroke="black" stroke-width="1.125"/>
<rect x="520.086" y="214.795" width="29.0619" height="32.5083" fill="white" stroke="black" stroke-width="1.125"/>
<rect x="520.086" y="353.667" width="29.0619" height="32.5083" fill="white" stroke="black" stroke-width="1.125"/>
<rect x="668.698" y="214.795" width="29.0619" height="32.5083" fill="white" stroke="black" stroke-width="1.125"/>
<rect x="668.698" y="353.667" width="29.0619" height="32.5083" fill="white" stroke="black" stroke-width="1.125"/>
<rect x="809.184" y="215.876" width="29.0619" height="32.5083" fill="white" stroke="black" stroke-width="1.125"/>
<rect x="808.022" y="354.752" width="29.0619" height="32.5083" fill="white" stroke="black" stroke-width="1.125"/>
<rect x="946.186" y="214.795" width="29.0619" height="32.5083" fill="white" stroke="black" stroke-width="1.125"/>
<rect x="946.186" y="353.667" width="29.0619" height="32.5083" fill="white" stroke="black" stroke-width="1.125"/>
<rect x="1085.51" y="214.795" width="29.0619" height="32.5083" fill="white" stroke="black" stroke-width="1.125"/>
<rect x="1084.35" y="353.667" width="29.0619" height="32.5083" fill="white" stroke="black" stroke-width="1.125"/>
<rect x="668.698" y="75.9192" width="29.0619" height="32.5083" fill="white" stroke="black" stroke-width="1.125"/>
<rect x="391.211" y="75.9192" width="29.0619" height="32.5083" fill="white" stroke="black" stroke-width="1.125"/>
<rect x="946.186" y="75.9192" width="29.0619" height="32.5083" fill="white" stroke="black" stroke-width="1.125"/>
<rect x="253.048" y="75.9192" width="29.0619" height="32.5083" fill="white" stroke="black" stroke-width="1.125"/>
<rect x="808.022" y="75.9192" width="29.0619" height="32.5083" fill="white" stroke="black" stroke-width="1.125"/>
<rect x="520.086" y="75.9192" width="29.0619" height="32.5083" fill="white" stroke="black" stroke-width="1.125"/>
<rect x="1084.35" y="75.9192" width="29.0619" height="32.5083" fill="white" stroke="black" stroke-width="1.125"/>
<path d="M132.799 103.677L130.675 96.5135H121.855L119.731 103.677H116.599L124.303 78.5495H128.299L136.003 103.677H132.799ZM126.427 81.7535H126.103L122.575 93.8855H129.955L126.427 81.7535Z" fill="black"/>
<path d="M1230.9 105.195C1228.84 105.195 1227.1 104.775 1225.68 103.935C1224.29 103.095 1223.14 102.039 1222.23 100.767L1224.42 98.9669C1226.2 101.391 1228.36 102.603 1230.9 102.603C1232.56 102.603 1233.88 102.207 1234.86 101.415C1235.85 100.623 1236.34 99.4949 1236.34 98.0309V97.2749C1236.34 96.0509 1235.92 95.0549 1235.08 94.2869C1234.24 93.4949 1232.93 93.0989 1231.16 93.0989H1227.63V90.4709H1230.94C1234.18 90.4709 1235.8 89.1029 1235.8 86.3669V85.6109C1235.8 84.4589 1235.39 83.5349 1234.58 82.8389C1233.78 82.1429 1232.6 81.7949 1231.01 81.7949C1229.62 81.7949 1228.48 82.0469 1227.59 82.5509C1226.7 83.0549 1225.97 83.7389 1225.4 84.6029L1223.13 83.1269C1223.99 81.8549 1225.05 80.8829 1226.3 80.2109C1227.57 79.5389 1229.14 79.2029 1231.01 79.2029C1233.65 79.2029 1235.63 79.8029 1236.95 81.0029C1238.3 82.2029 1238.97 83.8109 1238.97 85.8269C1238.97 87.5789 1238.51 88.9349 1237.6 89.8949C1236.69 90.8309 1235.55 91.4069 1234.18 91.6229V91.8029C1234.92 91.8989 1235.62 92.0789 1236.27 92.3429C1236.92 92.6069 1237.48 92.9789 1237.96 93.4589C1238.44 93.9389 1238.82 94.5389 1239.11 95.2589C1239.4 95.9549 1239.54 96.7709 1239.54 97.7069C1239.54 98.8109 1239.34 99.8309 1238.93 100.767C1238.55 101.679 1237.98 102.471 1237.24 103.143C1236.5 103.791 1235.58 104.295 1234.5 104.655C1233.45 105.015 1232.25 105.195 1230.9 105.195Z" fill="black"/>
<path d="M1361.83 79.6349H1364.86V92.3069L1364.35 99.5789H1364.53L1374.79 79.6349H1377.67V104.763H1374.65V92.0909L1375.15 84.8189H1374.97L1364.71 104.763H1361.83V79.6349Z" fill="black"/>
<path d="M118.363 217.421H121.387V230.093L120.883 237.365H121.063L131.323 217.421H134.203V242.549H131.179V229.877L131.683 222.605H131.503L121.243 242.549H118.363V217.421ZM126.283 215.009C125.059 215.009 124.063 214.745 123.295 214.217C122.527 213.665 121.855 212.813 121.279 211.661L120.271 209.609L122.863 208.781L124.303 212.597C124.567 212.693 124.891 212.753 125.275 212.777C125.659 212.801 125.995 212.813 126.283 212.813C126.571 212.813 126.907 212.801 127.291 212.777C127.675 212.753 127.999 212.693 128.263 212.597L129.703 208.781L132.295 209.609L131.287 211.661C130.711 212.813 130.039 213.665 129.271 214.217C128.503 214.745 127.507 215.009 126.283 215.009Z" fill="black"/>
<path d="M120.487 378.797H124.231L125.491 375.557L117.067 356.297H120.307L125.311 368.105L126.787 372.137H126.859L128.227 368.141L132.619 356.297H135.715L127.507 377.969C127.243 378.689 126.967 379.277 126.679 379.733C126.391 380.189 126.055 380.549 125.671 380.813C125.311 381.053 124.879 381.221 124.375 381.317C123.895 381.389 123.319 381.425 122.647 381.425H120.487V378.797Z" fill="black"/>
<path d="M125.455 520.729C124.279 520.729 123.259 520.573 122.395 520.261C121.555 519.949 120.823 519.529 120.199 519.001C119.599 518.473 119.095 517.885 118.687 517.237C118.279 516.589 117.919 515.917 117.607 515.221L120.199 514.033C120.415 514.585 120.667 515.113 120.955 515.617C121.243 516.097 121.591 516.529 121.999 516.913C122.407 517.273 122.887 517.561 123.439 517.777C123.991 517.993 124.663 518.101 125.455 518.101C127.495 518.101 129.007 517.345 129.991 515.833C130.975 514.321 131.467 512.305 131.467 509.785V508.885H123.151V506.257H131.467V505.681C131.467 503.161 130.975 501.145 129.991 499.633C129.007 498.121 127.495 497.365 125.455 497.365C124.663 497.365 123.991 497.473 123.439 497.689C122.887 497.905 122.407 498.205 121.999 498.589C121.591 498.949 121.243 499.381 120.955 499.885C120.667 500.365 120.415 500.881 120.199 501.433L117.607 500.245C117.919 499.573 118.279 498.913 118.687 498.265C119.095 497.593 119.599 496.993 120.199 496.465C120.823 495.937 121.555 495.517 122.395 495.205C123.259 494.893 124.279 494.737 125.455 494.737C128.575 494.737 130.891 495.853 132.403 498.085C133.915 500.317 134.671 503.533 134.671 507.733C134.671 511.933 133.915 515.149 132.403 517.381C130.891 519.613 128.575 520.729 125.455 520.729Z" fill="black"/>
<path d="M1232.42 244.067C1229.34 244.067 1227.05 242.951 1225.54 240.719C1224.05 238.487 1223.31 235.271 1223.31 231.071C1223.31 226.871 1224.05 223.655 1225.54 221.423C1227.05 219.191 1229.34 218.075 1232.42 218.075C1233.57 218.075 1234.56 218.231 1235.4 218.543C1236.24 218.855 1236.96 219.275 1237.56 219.803C1238.16 220.331 1238.67 220.931 1239.08 221.603C1239.48 222.251 1239.84 222.911 1240.16 223.583L1237.56 224.771C1237.35 224.219 1237.1 223.703 1236.81 223.223C1236.52 222.719 1236.17 222.287 1235.76 221.927C1235.38 221.543 1234.91 221.243 1234.36 221.027C1233.83 220.811 1233.18 220.703 1232.42 220.703C1230.42 220.703 1228.94 221.459 1227.95 222.971C1226.99 224.483 1226.51 226.499 1226.51 229.019V233.123C1226.51 235.643 1226.99 237.659 1227.95 239.171C1228.94 240.683 1230.42 241.439 1232.42 241.439C1233.18 241.439 1233.83 241.331 1234.36 241.115C1234.91 240.899 1235.38 240.611 1235.76 240.251C1236.17 239.867 1236.52 239.435 1236.81 238.955C1237.1 238.451 1237.35 237.923 1237.56 237.371L1240.16 238.559C1239.84 239.255 1239.48 239.927 1239.08 240.575C1238.67 241.223 1238.16 241.811 1237.56 242.339C1236.96 242.867 1236.24 243.287 1235.4 243.599C1234.56 243.911 1233.57 244.067 1232.42 244.067Z" fill="black"/>
<path d="M1222.52 357.382H1225.47V367.462H1227.99C1230.24 367.462 1231.97 368.11 1233.17 369.406C1234.4 370.702 1235.01 372.562 1235.01 374.986C1235.01 377.41 1234.4 379.27 1233.17 380.566C1231.97 381.862 1230.24 382.51 1227.99 382.51H1222.52V357.382ZM1227.99 379.882C1229.19 379.882 1230.14 379.57 1230.83 378.946C1231.53 378.298 1231.88 377.29 1231.88 375.922V374.05C1231.88 372.682 1231.53 371.686 1230.83 371.062C1230.14 370.414 1229.19 370.09 1227.99 370.09H1225.47V379.882H1227.99ZM1237.71 357.382H1240.66V382.51H1237.71V357.382Z" fill="black"/>
<path d="M1371.26 221.135V243.635H1368.24V221.135H1359.85V218.507H1379.65V221.135H1371.26Z" fill="black"/>
<path d="M1362.26 357.382H1365.29V367.462H1371.44C1373.7 367.462 1375.43 368.11 1376.63 369.406C1377.85 370.702 1378.46 372.562 1378.46 374.986C1378.46 377.41 1377.85 379.27 1376.63 380.566C1375.43 381.862 1373.7 382.51 1371.44 382.51H1362.26V357.382ZM1371.37 379.882C1372.57 379.882 1373.52 379.57 1374.22 378.946C1374.91 378.298 1375.26 377.29 1375.26 375.922V374.05C1375.26 372.682 1374.91 371.686 1374.22 371.062C1373.52 370.414 1372.57 370.09 1371.37 370.09H1365.29V379.882H1371.37Z" fill="black"/>
<path d="M260.009 217.421H263.033V228.509H267.461L272.789 217.421H275.993L271.205 227.357C270.797 228.197 270.413 228.785 270.053 229.121C269.693 229.433 269.297 229.625 268.865 229.697V229.877C269.393 229.997 269.837 230.249 270.197 230.633C270.557 230.993 270.953 231.665 271.385 232.649L274.625 239.921H276.965V242.549H274.697C273.977 242.549 273.341 242.345 272.789 241.937C272.237 241.505 271.757 240.821 271.349 239.885L267.461 231.101H263.033V242.549H260.009V217.421Z" fill="black"/>
<path d="M265.256 380.314C263.768 380.218 262.496 379.894 261.44 379.342C260.408 378.766 259.544 378.022 258.848 377.11C258.176 376.174 257.684 375.106 257.372 373.906C257.06 372.682 256.904 371.374 256.904 369.982C256.904 368.59 257.06 367.294 257.372 366.094C257.684 364.87 258.176 363.802 258.848 362.89C259.544 361.954 260.408 361.21 261.44 360.658C262.496 360.082 263.768 359.746 265.256 359.65V356.41H268.28V359.65C269.744 359.746 271.004 360.082 272.06 360.658C273.116 361.21 273.98 361.954 274.652 362.89C275.348 363.802 275.852 364.87 276.164 366.094C276.476 367.294 276.632 368.59 276.632 369.982C276.632 371.374 276.476 372.682 276.164 373.906C275.852 375.106 275.348 376.174 274.652 377.11C273.98 378.022 273.116 378.766 272.06 379.342C271.004 379.894 269.744 380.218 268.28 380.314V383.554H265.256V380.314ZM265.328 362.206C263.432 362.398 262.076 363.07 261.26 364.222C260.444 365.35 260.036 366.778 260.036 368.506V371.458C260.036 373.186 260.444 374.626 261.26 375.778C262.076 376.906 263.432 377.566 265.328 377.758V362.206ZM268.208 377.758C270.104 377.566 271.46 376.906 272.276 375.778C273.092 374.626 273.5 373.186 273.5 371.458V368.506C273.5 366.778 273.092 365.35 272.276 364.222C271.46 363.07 270.104 362.398 268.208 362.206V377.758Z" fill="black"/>
<path d="M269.72 521.814C268.592 521.814 267.644 521.646 266.876 521.31C266.108 520.974 265.472 520.374 264.968 519.51C264.488 518.622 264.128 517.41 263.888 515.874C263.648 514.338 263.504 512.37 263.456 509.97H260.648V521.382H257.696V496.254H260.648V507.342H263.456C263.504 505.038 263.648 503.142 263.888 501.654C264.128 500.166 264.488 498.99 264.968 498.126C265.472 497.262 266.108 496.662 266.876 496.326C267.668 495.99 268.616 495.822 269.72 495.822C270.824 495.822 271.772 495.99 272.564 496.326C273.356 496.662 274.004 497.31 274.508 498.27C275.012 499.23 275.384 500.562 275.624 502.266C275.864 503.946 275.984 506.13 275.984 508.818C275.984 511.53 275.864 513.726 275.624 515.406C275.384 517.086 275.012 518.406 274.508 519.366C274.004 520.326 273.356 520.974 272.564 521.31C271.772 521.646 270.824 521.814 269.72 521.814ZM269.72 519.186C270.248 519.186 270.704 519.102 271.088 518.934C271.496 518.766 271.82 518.43 272.06 517.926C272.324 517.398 272.516 516.666 272.636 515.73C272.78 514.77 272.852 513.51 272.852 511.95V505.686C272.852 504.126 272.78 502.878 272.636 501.942C272.516 500.982 272.324 500.25 272.06 499.746C271.82 499.218 271.496 498.87 271.088 498.702C270.704 498.534 270.248 498.45 269.72 498.45C269.192 498.45 268.724 498.534 268.316 498.702C267.932 498.87 267.608 499.218 267.344 499.746C267.104 500.25 266.912 500.982 266.768 501.942C266.648 502.878 266.588 504.126 266.588 505.686V511.95C266.588 513.51 266.648 514.77 266.768 515.73C266.912 516.666 267.104 517.398 267.344 517.926C267.608 518.43 267.932 518.766 268.316 518.934C268.724 519.102 269.192 519.186 269.72 519.186Z" fill="black"/>
<path d="M409.864 220.049H402.808V224.585C402.808 227.177 402.724 229.397 402.556 231.245C402.412 233.093 402.196 234.653 401.908 235.925C401.62 237.197 401.26 238.241 400.828 239.057C400.396 239.873 399.904 240.557 399.352 241.109C398.848 241.613 398.284 241.985 397.66 242.225C397.036 242.441 396.292 242.549 395.428 242.549H394.312V239.921H396.724C397.276 239.393 397.744 238.757 398.128 238.013C398.536 237.245 398.86 236.273 399.1 235.097C399.364 233.897 399.556 232.433 399.676 230.705C399.796 228.977 399.856 226.865 399.856 224.369V217.421H412.888V242.549H409.864V220.049Z" fill="black"/>
<path d="M414.832 381.425H411.412L408.424 376.421L405.112 370.949H404.968L401.548 376.421L398.38 381.425H395.068L403.276 368.609L395.536 356.297H398.956L401.872 361.157L405.004 366.233H405.148L408.244 361.157L411.268 356.297H414.58L406.804 368.573L414.832 381.425Z" fill="black"/>
<path d="M395.536 518.754H397.84L400.792 512.598C401.152 511.83 401.524 511.29 401.908 510.978C402.292 510.642 402.772 510.414 403.348 510.294V510.114C401.14 509.994 399.496 509.346 398.416 508.17C397.336 506.97 396.796 505.374 396.796 503.382C396.796 501.198 397.396 499.47 398.596 498.198C399.82 496.902 401.56 496.254 403.816 496.254H412.636V521.382H409.612V510.582H405.076L401.116 518.826C400.636 519.81 400.132 520.482 399.604 520.842C399.1 521.202 398.5 521.382 397.804 521.382H395.536V518.754ZM409.612 498.882H403.888C402.688 498.882 401.74 499.206 401.044 499.854C400.348 500.478 400 501.474 400 502.842V504.03C400 505.398 400.348 506.406 401.044 507.054C401.74 507.678 402.688 507.99 403.888 507.99H409.612V498.882Z" fill="black"/>
<path d="M539.386 229.949V221.993H539.098L533.806 234.917L528.514 221.993H528.226V229.949V242.549H525.454V217.421H529.342L533.77 228.509H533.986L538.414 217.421H542.158V242.549H539.386V229.949Z" fill="black"/>
<path d="M540.898 381.425H525.886V356.297H528.91V378.797H537.946V356.297H540.97V378.797H543.67V386.825H540.898V381.425Z" fill="black"/>
<path d="M687.315 231.137H677.523V242.549H674.499V217.421H677.523V228.509H687.315V217.421H690.339V242.549H687.315V231.137Z" fill="black"/>
<path d="M687.027 371.525H686.847C686.199 371.789 685.443 371.993 684.579 372.137C683.739 372.281 682.815 372.353 681.807 372.353C680.319 372.353 679.059 372.173 678.027 371.813C676.995 371.453 676.167 370.901 675.543 370.157C674.919 369.413 674.463 368.489 674.175 367.385C673.911 366.257 673.779 364.937 673.779 363.425V356.297H676.803V363.425C676.803 364.577 676.887 365.561 677.055 366.377C677.223 367.169 677.499 367.817 677.883 368.321C678.291 368.801 678.819 369.161 679.467 369.401C680.139 369.617 680.955 369.725 681.915 369.725C682.995 369.725 683.919 369.653 684.687 369.509C685.479 369.365 686.259 369.149 687.027 368.861V356.297H690.051V381.425H687.027V371.525Z" fill="black"/>
<path d="M822.904 244.067C821.368 244.067 820.048 243.779 818.944 243.203C817.84 242.603 816.928 241.751 816.208 240.647C815.488 239.543 814.96 238.187 814.624 236.579C814.288 234.971 814.12 233.135 814.12 231.071C814.12 229.031 814.288 227.207 814.624 225.599C814.96 223.967 815.488 222.599 816.208 221.495C816.928 220.391 817.84 219.551 818.944 218.975C820.048 218.375 821.368 218.075 822.904 218.075C824.44 218.075 825.76 218.375 826.864 218.975C827.968 219.551 828.88 220.391 829.6 221.495C830.32 222.599 830.848 223.967 831.184 225.599C831.52 227.207 831.688 229.031 831.688 231.071C831.688 233.135 831.52 234.971 831.184 236.579C830.848 238.187 830.32 239.543 829.6 240.647C828.88 241.751 827.968 242.603 826.864 243.203C825.76 243.779 824.44 244.067 822.904 244.067ZM822.904 241.439C823.912 241.439 824.764 241.247 825.46 240.863C826.156 240.455 826.732 239.891 827.188 239.171C827.644 238.451 827.968 237.587 828.16 236.579C828.376 235.547 828.484 234.395 828.484 233.123V229.019C828.484 227.771 828.376 226.631 828.16 225.599C827.968 224.567 827.644 223.691 827.188 222.971C826.732 222.251 826.156 221.699 825.46 221.315C824.764 220.907 823.912 220.703 822.904 220.703C821.896 220.703 821.044 220.907 820.348 221.315C819.652 221.699 819.076 222.251 818.62 222.971C818.164 223.691 817.828 224.567 817.612 225.599C817.42 226.631 817.324 227.771 817.324 229.019V233.123C817.324 234.395 817.42 235.547 817.612 236.579C817.828 237.587 818.164 238.451 818.62 239.171C819.076 239.891 819.652 240.455 820.348 240.863C821.044 241.247 821.896 241.439 822.904 241.439Z" fill="black"/>
<path d="M812.671 357.382H815.623V379.882H820.267V357.382H823.219V379.882H827.863V357.382H830.815V382.51H812.671V357.382Z" fill="black"/>
<path d="M952.094 217.421H967.718V242.549H964.694V220.049H955.118V242.549H952.094V217.421Z" fill="black"/>
<path d="M967.826 381.425H950.834V356.297H953.786V378.797H957.854V356.297H960.806V378.797H964.874V356.297H967.826V378.797H970.526V386.825H967.826V381.425Z" fill="black"/>
<path d="M1091.67 242.549V217.421H1100.81C1103.14 217.421 1104.92 218.057 1106.14 219.329C1107.37 220.601 1107.98 222.377 1107.98 224.657C1107.98 226.937 1107.37 228.713 1106.14 229.985C1104.92 231.257 1103.14 231.893 1100.81 231.893H1094.69V242.549H1091.67ZM1094.69 229.265H1100.74C1102.01 229.265 1103 228.953 1103.69 228.329C1104.41 227.681 1104.77 226.769 1104.77 225.593V223.721C1104.77 222.545 1104.41 221.645 1103.69 221.021C1103 220.373 1102.01 220.049 1100.74 220.049H1094.69V229.265Z" fill="black"/>
<path d="M1093.39 358.925H1087.63V356.297H1096.41V366.377H1101.13C1103.39 366.377 1105.11 367.025 1106.31 368.321C1107.54 369.617 1108.15 371.477 1108.15 373.901C1108.15 376.325 1107.54 378.185 1106.31 379.481C1105.11 380.777 1103.39 381.425 1101.13 381.425H1093.39V358.925ZM1101.06 378.797C1102.26 378.797 1103.21 378.485 1103.9 377.861C1104.6 377.213 1104.95 376.205 1104.95 374.837V372.965C1104.95 371.597 1104.6 370.601 1103.9 369.977C1103.21 369.329 1102.26 369.005 1101.06 369.005H1096.41V378.797H1101.06Z" fill="black"/>
<path d="M672.123 101.049H674.283C675.363 99.5135 676.179 97.5455 676.731 95.1455C677.283 92.7215 677.559 89.6495 677.559 85.9295V78.5495H689.295V101.049H692.355V109.077H689.583V103.677H674.895V109.077H672.123V101.049ZM686.271 81.1775H680.511V86.1455C680.511 89.9615 680.247 93.0695 679.719 95.4695C679.215 97.8695 678.555 99.7295 677.739 101.049H686.271V81.1775Z" fill="black"/>
<path d="M397.3 78.5495H405.832C407.992 78.5495 409.684 79.1375 410.908 80.3135C412.132 81.4895 412.744 83.0615 412.744 85.0295C412.744 86.5415 412.372 87.7295 411.628 88.5935C410.908 89.4575 409.972 90.0695 408.82 90.4295V90.5375C410.236 90.8735 411.4 91.5095 412.312 92.4455C413.224 93.3575 413.68 94.6895 413.68 96.4415C413.68 97.4495 413.512 98.3975 413.176 99.2855C412.84 100.173 412.36 100.941 411.736 101.589C411.136 102.237 410.416 102.753 409.576 103.137C408.76 103.497 407.872 103.677 406.912 103.677H397.3V78.5495ZM406.012 101.049C407.404 101.049 408.496 100.737 409.288 100.113C410.08 99.4895 410.476 98.5295 410.476 97.2335V95.7575C410.476 94.4855 410.08 93.5375 409.288 92.9135C408.496 92.2655 407.404 91.9415 406.012 91.9415H400.324V101.049H406.012ZM405.508 89.4575C406.78 89.4575 407.776 89.1815 408.496 88.6295C409.216 88.0535 409.576 87.1895 409.576 86.0375V84.6335C409.576 83.4815 409.216 82.6175 408.496 82.0415C407.776 81.4655 406.78 81.1775 405.508 81.1775H400.324V89.4575H405.508Z" fill="black"/>
<path d="M952.346 103.677V78.5495H967.826V81.1775H955.37V89.6375H967.394V92.2655H955.37V101.049H967.826V103.677H952.346ZM956.738 75.3095C955.994 75.3095 955.466 75.1535 955.154 74.8415C954.842 74.5295 954.686 74.1335 954.686 73.6535V73.1495C954.686 72.6695 954.842 72.2735 955.154 71.9615C955.466 71.6495 955.994 71.4935 956.738 71.4935C957.482 71.4935 958.01 71.6495 958.322 71.9615C958.634 72.2735 958.79 72.6695 958.79 73.1495V73.6535C958.79 74.1335 958.634 74.5295 958.322 74.8415C958.01 75.1535 957.482 75.3095 956.738 75.3095ZM963.434 75.3095C962.69 75.3095 962.162 75.1535 961.85 74.8415C961.538 74.5295 961.382 74.1335 961.382 73.6535V73.1495C961.382 72.6695 961.538 72.2735 961.85 71.9615C962.162 71.6495 962.69 71.4935 963.434 71.4935C964.178 71.4935 964.706 71.6495 965.018 71.9615C965.33 72.2735 965.486 72.6695 965.486 73.1495V73.6535C965.486 74.1335 965.33 74.5295 965.018 74.8415C964.706 75.1535 964.178 75.3095 963.434 75.3095Z" fill="black"/>
<path d="M259.028 78.5495H273.212V81.1775H262.052V88.6295H268.244C270.5 88.6295 272.228 89.2775 273.428 90.5735C274.652 91.8695 275.264 93.7295 275.264 96.1535C275.264 98.5775 274.652 100.437 273.428 101.733C272.228 103.029 270.5 103.677 268.244 103.677H259.028V78.5495ZM268.172 101.049C269.372 101.049 270.32 100.737 271.016 100.113C271.712 99.4655 272.06 98.4575 272.06 97.0895V95.2175C272.06 93.8495 271.712 92.8535 271.016 92.2295C270.32 91.5815 269.372 91.2575 268.172 91.2575H262.052V101.049H268.172Z" fill="black"/>
<path d="M814.183 103.677V78.5495H829.663V81.1775H817.207V89.6375H829.231V92.2655H817.207V101.049H829.663V103.677H814.183Z" fill="black"/>
<path d="M527.758 78.5495H541.834V81.1775H530.782V103.677H527.758V78.5495Z" fill="black"/>
<path d="M1096.59 92.2295H1094.11L1090.44 103.677H1087.34L1090.37 94.1375C1090.56 93.5615 1090.75 93.0815 1090.94 92.6975C1091.13 92.3135 1091.33 92.0135 1091.52 91.7975C1091.73 91.5575 1091.95 91.3775 1092.17 91.2575C1092.41 91.1375 1092.66 91.0535 1092.92 91.0055V90.8255C1092.42 90.7055 1091.97 90.4415 1091.59 90.0335C1091.21 89.6255 1090.87 88.9055 1090.58 87.8735L1087.92 78.5495H1090.87L1094.11 89.6375H1096.59V78.5495H1099.55V89.6375H1102.03L1105.31 78.5495H1108.22L1105.52 87.8375C1105.21 88.8935 1104.87 89.6255 1104.51 90.0335C1104.15 90.4415 1103.72 90.7055 1103.22 90.8255V91.0055C1103.48 91.0535 1103.73 91.1375 1103.97 91.2575C1104.21 91.3775 1104.44 91.5575 1104.66 91.7975C1104.87 92.0375 1105.07 92.3495 1105.23 92.7335C1105.43 93.0935 1105.62 93.5615 1105.81 94.1375L1108.8 103.677H1105.67L1102.03 92.2295H1099.55V103.677H1096.59V92.2295Z" fill="black"/>
<path d="M188.25 138.924C187.686 138.924 187.284 138.78 187.044 138.492C186.804 138.204 186.654 137.844 186.594 137.412H186.504C186.3 137.952 185.97 138.378 185.514 138.69C185.07 138.99 184.47 139.14 183.714 139.14C182.742 139.14 181.968 138.888 181.392 138.384C180.816 137.88 180.528 137.19 180.528 136.314C180.528 135.45 180.84 134.784 181.464 134.316C182.1 133.848 183.12 133.614 184.524 133.614H186.504V132.696C186.504 132.012 186.312 131.502 185.928 131.166C185.544 130.818 184.998 130.644 184.29 130.644C183.666 130.644 183.156 130.77 182.76 131.022C182.364 131.262 182.046 131.592 181.806 132.012L180.834 131.292C180.954 131.052 181.116 130.818 181.32 130.59C181.524 130.362 181.776 130.164 182.076 129.996C182.376 129.816 182.718 129.678 183.102 129.582C183.486 129.474 183.912 129.42 184.38 129.42C185.472 129.42 186.336 129.696 186.972 130.248C187.62 130.8 187.944 131.568 187.944 132.552V137.664H189.24V138.924H188.25ZM183.966 137.934C184.338 137.934 184.674 137.892 184.974 137.808C185.286 137.712 185.556 137.592 185.784 137.448C186.012 137.292 186.186 137.112 186.306 136.908C186.438 136.692 186.504 136.464 186.504 136.224V134.694H184.524C183.66 134.694 183.03 134.814 182.634 135.054C182.238 135.294 182.04 135.642 182.04 136.098V136.476C182.04 136.956 182.208 137.322 182.544 137.574C182.892 137.814 183.366 137.934 183.966 137.934Z" fill="black"/>
<path d="M1289.67 140.225C1288.71 140.225 1287.91 140.069 1287.27 139.757C1286.65 139.445 1286.14 139.001 1285.74 138.425L1286.81 137.561C1287.09 138.017 1287.47 138.371 1287.94 138.623C1288.41 138.863 1288.98 138.983 1289.67 138.983C1290.53 138.983 1291.16 138.845 1291.54 138.569C1291.92 138.293 1292.12 137.939 1292.12 137.507V137.255C1292.12 136.787 1291.96 136.433 1291.65 136.193C1291.35 135.941 1290.91 135.815 1290.33 135.815H1287.83V134.609H1290.15C1291.33 134.609 1291.92 134.171 1291.92 133.295V133.079C1291.92 132.683 1291.75 132.365 1291.41 132.125C1291.09 131.873 1290.52 131.747 1289.7 131.747C1288.98 131.747 1288.4 131.867 1287.96 132.107C1287.53 132.347 1287.17 132.683 1286.9 133.115L1285.89 132.431C1286.31 131.819 1286.82 131.345 1287.42 131.009C1288.02 130.673 1288.8 130.505 1289.78 130.505C1291.01 130.505 1291.93 130.727 1292.53 131.171C1293.14 131.615 1293.45 132.227 1293.45 133.007C1293.45 133.583 1293.3 134.039 1293 134.375C1292.7 134.711 1292.28 134.945 1291.74 135.077V135.149C1292.36 135.245 1292.84 135.485 1293.16 135.869C1293.48 136.241 1293.65 136.721 1293.65 137.309C1293.65 138.209 1293.3 138.923 1292.6 139.451C1291.92 139.967 1290.94 140.225 1289.67 140.225Z" fill="black"/>
<path d="M1424.52 130.721H1425.96V135.455L1425.81 137.831H1425.89L1430.55 130.721H1431.9V140.009H1430.46V135.275L1430.6 132.899H1430.53L1425.87 140.009H1424.52V130.721Z" fill="black"/>
<path d="M181.05 268.512H182.49V273.246L182.346 275.622H182.418L187.08 268.512H188.43V277.8H186.99V273.066L187.134 270.69H187.062L182.4 277.8H181.05V268.512ZM184.686 267.09C184.074 267.09 183.576 266.958 183.192 266.694C182.808 266.418 182.472 265.992 182.184 265.416L181.68 264.39L182.976 263.976L183.696 265.884C183.828 265.932 183.99 265.962 184.182 265.974C184.374 265.986 184.542 265.992 184.686 265.992C184.83 265.992 184.998 265.986 185.19 265.974C185.382 265.962 185.544 265.932 185.676 265.884L186.396 263.976L187.692 264.39L187.188 265.416C186.9 265.992 186.564 266.418 186.18 266.694C185.796 266.958 185.298 267.09 184.686 267.09Z" fill="black"/>
<path d="M187.746 407.383H189.186L184.578 418.705C184.47 418.969 184.35 419.197 184.218 419.389C184.086 419.593 183.93 419.755 183.75 419.875C183.57 420.007 183.354 420.103 183.102 420.163C182.85 420.235 182.55 420.271 182.202 420.271H180.834V419.047H182.994L184.038 416.491L180.294 407.383H181.77L183.336 411.271L184.722 414.799H184.794L186.18 411.271L187.746 407.383Z" fill="black"/>
<path d="M183.048 550.251H187.08V550.107C187.08 549.699 187.02 549.321 186.9 548.973C186.792 548.625 186.624 548.325 186.396 548.073C186.168 547.821 185.886 547.629 185.55 547.497C185.214 547.353 184.83 547.281 184.398 547.281C183.762 547.281 183.252 547.413 182.868 547.677C182.484 547.929 182.184 548.301 181.968 548.793L180.852 548.199C181.128 547.575 181.548 547.059 182.112 546.651C182.676 546.243 183.444 546.039 184.416 546.039C185.076 546.039 185.664 546.159 186.18 546.399C186.708 546.627 187.152 546.951 187.512 547.371C187.872 547.791 188.148 548.301 188.34 548.901C188.532 549.501 188.628 550.167 188.628 550.899C188.628 551.643 188.532 552.315 188.34 552.915C188.148 553.503 187.872 554.013 187.512 554.445C187.152 554.865 186.714 555.189 186.198 555.417C185.682 555.645 185.094 555.759 184.434 555.759C183.498 555.759 182.736 555.555 182.148 555.147C181.56 554.739 181.128 554.235 180.852 553.635L181.914 552.897C182.154 553.401 182.472 553.797 182.868 554.085C183.264 554.373 183.786 554.517 184.434 554.517C184.854 554.517 185.226 554.451 185.55 554.319C185.886 554.175 186.162 553.977 186.378 553.725C186.606 553.473 186.78 553.173 186.9 552.825C187.02 552.477 187.08 552.099 187.08 551.691V551.457H183.048V550.251Z" fill="black"/>
<path d="M1290.37 279.101C1289.7 279.101 1289.1 278.987 1288.57 278.759C1288.05 278.519 1287.62 278.189 1287.26 277.769C1286.9 277.349 1286.62 276.839 1286.43 276.239C1286.25 275.639 1286.16 274.973 1286.16 274.241C1286.16 273.509 1286.25 272.843 1286.45 272.243C1286.64 271.643 1286.91 271.133 1287.27 270.713C1287.63 270.281 1288.07 269.951 1288.59 269.723C1289.1 269.495 1289.69 269.381 1290.35 269.381C1291.25 269.381 1291.98 269.579 1292.55 269.975C1293.11 270.371 1293.53 270.887 1293.79 271.523L1292.64 272.135C1292.47 271.655 1292.19 271.283 1291.79 271.019C1291.41 270.755 1290.93 270.623 1290.35 270.623C1289.93 270.623 1289.55 270.695 1289.22 270.839C1288.89 270.971 1288.62 271.163 1288.39 271.415C1288.16 271.667 1287.99 271.967 1287.87 272.315C1287.76 272.663 1287.71 273.041 1287.71 273.449V275.033C1287.71 275.441 1287.76 275.819 1287.87 276.167C1287.99 276.515 1288.16 276.815 1288.39 277.067C1288.62 277.319 1288.9 277.517 1289.24 277.661C1289.57 277.793 1289.96 277.859 1290.39 277.859C1291.01 277.859 1291.53 277.715 1291.94 277.427C1292.34 277.139 1292.67 276.743 1292.91 276.239L1293.93 276.941C1293.66 277.565 1293.23 278.081 1292.64 278.489C1292.06 278.897 1291.31 279.101 1290.37 279.101Z" fill="black"/>
<path d="M1285.62 408.469H1287.06V411.835H1288.62C1289.56 411.835 1290.3 412.099 1290.86 412.627C1291.41 413.155 1291.68 413.881 1291.68 414.805C1291.68 415.741 1291.41 416.467 1290.87 416.983C1290.33 417.499 1289.59 417.757 1288.64 417.757H1285.62V408.469ZM1288.43 416.533C1288.97 416.533 1289.39 416.425 1289.69 416.209C1290 415.993 1290.15 415.645 1290.15 415.165V414.409C1290.15 413.929 1290 413.587 1289.69 413.383C1289.39 413.167 1288.97 413.059 1288.43 413.059H1287.06V416.533H1288.43ZM1293.03 408.469H1294.47V417.757H1293.03V408.469Z" fill="black"/>
<path d="M1427.49 270.821H1424.07V269.597H1432.35V270.821H1428.93V278.885H1427.49V270.821Z" fill="black"/>
<path d="M1424.81 408.469H1426.25V411.835H1429.13C1430.06 411.835 1430.81 412.099 1431.36 412.627C1431.91 413.155 1432.19 413.881 1432.19 414.805C1432.19 415.741 1431.92 416.467 1431.38 416.983C1430.84 417.499 1430.09 417.757 1429.14 417.757H1424.81V408.469ZM1428.93 416.533C1429.47 416.533 1429.89 416.425 1430.19 416.209C1430.5 415.993 1430.66 415.645 1430.66 415.165V414.409C1430.66 413.929 1430.5 413.587 1430.19 413.383C1429.89 413.167 1429.47 413.059 1428.93 413.059H1426.25V416.533H1428.93Z" fill="black"/>
<path d="M322.912 268.512H324.352V272.4H326.332L328.834 268.512H330.328L328.06 272.04C327.856 272.352 327.676 272.574 327.52 272.706C327.364 272.826 327.178 272.916 326.962 272.976V273.048C327.202 273.084 327.406 273.168 327.574 273.3C327.742 273.42 327.916 273.636 328.096 273.948L329.608 276.576H330.652V277.8H329.608C329.296 277.8 329.026 277.716 328.798 277.548C328.57 277.38 328.342 277.104 328.114 276.72L326.332 273.624H324.352V277.8H322.912V268.512Z" fill="black"/>
<path d="M323.317 416.767C323.713 416.767 324.019 416.653 324.235 416.425C324.451 416.197 324.559 415.855 324.559 415.399V410.827C324.559 410.371 324.451 410.029 324.235 409.801C324.019 409.573 323.713 409.459 323.317 409.459C323.101 409.459 322.909 409.501 322.741 409.585C322.573 409.669 322.435 409.819 322.327 410.035C322.219 410.251 322.135 410.545 322.075 410.917C322.015 411.277 321.985 411.739 321.985 412.303V413.923C321.985 414.487 322.015 414.955 322.075 415.327C322.135 415.687 322.219 415.975 322.327 416.191C322.435 416.407 322.573 416.557 322.741 416.641C322.909 416.725 323.101 416.767 323.317 416.767ZM324.559 416.803H324.505C324.301 417.223 324.061 417.523 323.785 417.703C323.521 417.883 323.215 417.973 322.867 417.973C322.507 417.973 322.183 417.901 321.895 417.757C321.619 417.601 321.385 417.337 321.193 416.965C321.001 416.593 320.857 416.095 320.761 415.471C320.665 414.847 320.617 414.061 320.617 413.113C320.617 412.165 320.665 411.379 320.761 410.755C320.857 410.131 321.001 409.633 321.193 409.261C321.385 408.889 321.619 408.631 321.895 408.487C322.183 408.331 322.507 408.253 322.867 408.253C323.215 408.253 323.521 408.343 323.785 408.523C324.061 408.703 324.301 409.003 324.505 409.423H324.559V404.977H325.891V409.423H325.945C326.149 409.003 326.383 408.703 326.647 408.523C326.923 408.343 327.235 408.253 327.583 408.253C327.943 408.253 328.261 408.331 328.537 408.487C328.825 408.631 329.065 408.889 329.257 409.261C329.449 409.633 329.593 410.131 329.689 410.755C329.785 411.379 329.833 412.165 329.833 413.113C329.833 414.061 329.785 414.847 329.689 415.471C329.593 416.095 329.449 416.593 329.257 416.965C329.065 417.337 328.825 417.601 328.537 417.757C328.261 417.901 327.943 417.973 327.583 417.973C327.235 417.973 326.923 417.883 326.647 417.703C326.383 417.523 326.149 417.223 325.945 416.803H325.891V421.357H324.559V416.803ZM327.133 416.767C327.349 416.767 327.541 416.725 327.709 416.641C327.877 416.557 328.015 416.407 328.123 416.191C328.231 415.975 328.315 415.687 328.375 415.327C328.435 414.955 328.465 414.487 328.465 413.923V412.303C328.465 411.739 328.435 411.277 328.375 410.917C328.315 410.545 328.231 410.251 328.123 410.035C328.015 409.819 327.877 409.669 327.709 409.585C327.541 409.501 327.349 409.459 327.133 409.459C326.737 409.459 326.431 409.573 326.215 409.801C325.999 410.029 325.891 410.371 325.891 410.827V415.399C325.891 415.855 325.999 416.197 326.215 416.425C326.431 416.653 326.737 416.767 327.133 416.767Z" fill="black"/>
<path d="M326.827 556.844C326.371 556.844 325.963 556.778 325.603 556.646C325.243 556.526 324.937 556.304 324.685 555.98C324.433 555.644 324.235 555.188 324.091 554.612C323.959 554.036 323.881 553.304 323.857 552.416H322.129V556.628H320.797V547.34H322.129V551.282H323.875C323.911 550.454 323.995 549.77 324.127 549.23C324.271 548.69 324.469 548.264 324.721 547.952C324.973 547.64 325.273 547.424 325.621 547.304C325.969 547.184 326.371 547.124 326.827 547.124C327.307 547.124 327.727 547.196 328.087 547.34C328.459 547.472 328.771 547.718 329.023 548.078C329.275 548.438 329.467 548.936 329.599 549.572C329.731 550.196 329.797 551 329.797 551.984C329.797 552.968 329.731 553.778 329.599 554.414C329.467 555.038 329.275 555.53 329.023 555.89C328.771 556.25 328.459 556.496 328.087 556.628C327.727 556.772 327.307 556.844 326.827 556.844ZM326.827 555.656C327.091 555.656 327.319 555.614 327.511 555.53C327.715 555.446 327.883 555.302 328.015 555.098C328.147 554.882 328.243 554.594 328.303 554.234C328.375 553.862 328.411 553.394 328.411 552.83V551.138C328.411 550.574 328.375 550.112 328.303 549.752C328.243 549.38 328.147 549.092 328.015 548.888C327.883 548.672 327.715 548.522 327.511 548.438C327.319 548.354 327.091 548.312 326.827 548.312C326.563 548.312 326.329 548.354 326.125 548.438C325.933 548.522 325.771 548.672 325.639 548.888C325.507 549.092 325.405 549.38 325.333 549.752C325.273 550.112 325.243 550.574 325.243 551.138V552.83C325.243 553.394 325.273 553.862 325.333 554.234C325.405 554.594 325.507 554.882 325.639 555.098C325.771 555.302 325.933 555.446 326.125 555.53C326.329 555.614 326.563 555.656 326.827 555.656Z" fill="black"/>
<path d="M458.457 276.576H459.609C459.789 276.348 459.945 276.078 460.077 275.766C460.221 275.454 460.335 275.082 460.419 274.65C460.515 274.218 460.587 273.72 460.635 273.156C460.683 272.58 460.707 271.914 460.707 271.158V268.512H466.881V277.8H465.441V269.736H462.111V271.194C462.111 272.874 461.985 274.194 461.733 275.154C461.493 276.102 461.169 276.78 460.761 277.188C460.533 277.416 460.281 277.578 460.005 277.674C459.729 277.758 459.399 277.8 459.015 277.8H458.457V276.576Z" fill="black"/>
<path d="M459.087 416.671L462.543 411.955L459.177 407.383H460.905L462.309 409.345L463.425 410.893H463.497L464.577 409.345L465.963 407.383H467.619L464.217 411.937L467.709 416.671H465.981L464.415 414.493L463.353 413.017H463.281L462.255 414.493L460.743 416.671H459.087Z" fill="black"/>
<path d="M459.213 555.404H460.257L461.067 553.874C461.211 553.598 461.367 553.388 461.535 553.244C461.703 553.1 461.907 553.01 462.147 552.974V552.902C461.391 552.866 460.773 552.626 460.293 552.182C459.825 551.726 459.591 551.066 459.591 550.202C459.591 549.314 459.861 548.618 460.401 548.114C460.941 547.598 461.685 547.34 462.633 547.34H466.809V556.628H465.369V553.046H463.119L461.841 555.44C461.625 555.836 461.391 556.136 461.139 556.34C460.899 556.532 460.587 556.628 460.203 556.628H459.213V555.404ZM465.369 548.564H462.849C462.309 548.564 461.883 548.672 461.571 548.888C461.271 549.104 461.121 549.452 461.121 549.932V550.49C461.121 550.97 461.271 551.318 461.571 551.534C461.883 551.75 462.309 551.858 462.849 551.858H465.369V548.564Z" fill="black"/>
<path d="M588.159 268.512H590.139L592.281 273.246H592.389L594.531 268.512H596.367V277.8H594.981V271.986L595.035 270.33H594.927L592.263 276.216L589.599 270.33H589.491L589.545 271.986V277.8H588.159V268.512Z" fill="black"/>
<path d="M595.809 416.671H588.375V407.383H589.815V415.447H594.153V407.383H595.593V415.447H597.123V419.191H595.809V416.671Z" fill="black"/>
<path d="M737.186 268.512H738.626V272.4H743.126V268.512H744.566V277.8H743.126V273.624H738.626V277.8H737.186V268.512Z" fill="black"/>
<path d="M742.856 412.405H742.766C742.43 412.777 742.046 413.059 741.614 413.251C741.194 413.431 740.654 413.521 739.994 413.521C738.986 413.521 738.218 413.287 737.69 412.819C737.174 412.339 736.916 411.619 736.916 410.659V407.383H738.356V410.533C738.356 411.109 738.518 411.535 738.842 411.811C739.166 412.087 739.694 412.225 740.426 412.225C741.146 412.225 741.728 412.135 742.172 411.955C742.628 411.763 742.856 411.475 742.856 411.091V407.383H744.296V416.671H742.856V412.405Z" fill="black"/>
<path d="M881.361 279.101C880.713 279.101 880.125 278.987 879.597 278.759C879.081 278.531 878.637 278.207 878.265 277.787C877.905 277.355 877.629 276.845 877.437 276.257C877.245 275.657 877.149 274.985 877.149 274.241C877.149 273.509 877.245 272.843 877.437 272.243C877.629 271.643 877.905 271.133 878.265 270.713C878.637 270.281 879.081 269.951 879.597 269.723C880.125 269.495 880.713 269.381 881.361 269.381C882.009 269.381 882.591 269.495 883.107 269.723C883.635 269.951 884.079 270.281 884.439 270.713C884.811 271.133 885.093 271.643 885.285 272.243C885.477 272.843 885.573 273.509 885.573 274.241C885.573 274.985 885.477 275.657 885.285 276.257C885.093 276.845 884.811 277.355 884.439 277.787C884.079 278.207 883.635 278.531 883.107 278.759C882.591 278.987 882.009 279.101 881.361 279.101ZM881.361 277.859C882.165 277.859 882.813 277.619 883.305 277.139C883.797 276.659 884.043 275.915 884.043 274.907V273.575C884.043 272.567 883.797 271.823 883.305 271.343C882.813 270.863 882.165 270.623 881.361 270.623C880.557 270.623 879.909 270.863 879.417 271.343C878.925 271.823 878.679 272.567 878.679 273.575V274.907C878.679 275.915 878.925 276.659 879.417 277.139C879.909 277.619 880.557 277.859 881.361 277.859Z" fill="black"/>
<path d="M875.772 408.469H877.104V416.569H879.534V408.469H880.866V416.569H883.296V408.469H884.628V417.757H875.772V408.469Z" fill="black"/>
<path d="M1014.71 268.512H1022.02V277.8H1020.58V269.736H1016.15V277.8H1014.71V268.512Z" fill="black"/>
<path d="M1022.5 416.671H1013.94V407.383H1015.27V415.483H1017.7V407.383H1019.03V415.483H1021.46V407.383H1022.79V415.447H1023.76V419.191H1022.5V416.671Z" fill="black"/>
<path d="M1154 268.512H1155.44V270.024H1155.51C1156.11 268.872 1157.06 268.296 1158.37 268.296C1159.51 268.296 1160.4 268.722 1161.04 269.574C1161.68 270.426 1162.01 271.62 1162.01 273.156C1162.01 274.692 1161.68 275.886 1161.04 276.738C1160.4 277.59 1159.51 278.016 1158.37 278.016C1157.06 278.016 1156.11 277.44 1155.51 276.288H1155.44V281.4H1154V268.512ZM1157.81 276.738C1158.65 276.738 1159.3 276.486 1159.76 275.982C1160.23 275.466 1160.46 274.788 1160.46 273.948V272.364C1160.46 271.524 1160.23 270.852 1159.76 270.348C1159.3 269.832 1158.65 269.574 1157.81 269.574C1157.49 269.574 1157.18 269.616 1156.9 269.7C1156.61 269.784 1156.36 269.91 1156.14 270.078C1155.92 270.234 1155.75 270.432 1155.62 270.672C1155.5 270.9 1155.44 271.17 1155.44 271.482V274.83C1155.44 275.142 1155.5 275.418 1155.62 275.658C1155.75 275.886 1155.92 276.084 1156.14 276.252C1156.36 276.408 1156.61 276.528 1156.9 276.612C1157.18 276.696 1157.49 276.738 1157.81 276.738Z" fill="black"/>
<path d="M1154.02 408.607H1151.32V407.383H1155.46V410.749H1158.09C1159.03 410.749 1159.77 411.013 1160.32 411.541C1160.88 412.069 1161.15 412.795 1161.15 413.719C1161.15 414.655 1160.88 415.381 1160.34 415.897C1159.8 416.413 1159.06 416.671 1158.11 416.671H1154.02V408.607ZM1157.89 415.447C1158.43 415.447 1158.85 415.339 1159.15 415.123C1159.47 414.907 1159.62 414.559 1159.62 414.079V413.323C1159.62 412.843 1159.47 412.501 1159.15 412.297C1158.85 412.081 1158.43 411.973 1157.89 411.973H1155.46V415.447H1157.89Z" fill="black"/>
<path d="M735.872 137.7H736.916C737.3 137.088 737.6 136.368 737.816 135.54C738.044 134.7 738.158 133.716 738.158 132.588V129.636H744.152V137.7H745.682V141.444H744.368V138.924H737.186V141.444H735.872V137.7ZM742.712 137.7V130.86H739.562V132.66C739.562 133.776 739.472 134.736 739.292 135.54C739.112 136.332 738.842 137.052 738.482 137.7H742.712Z" fill="black"/>
<path d="M459.573 126.36H463.839C464.919 126.36 465.765 126.654 466.377 127.242C466.989 127.83 467.295 128.616 467.295 129.6C467.295 130.356 467.109 130.95 466.737 131.382C466.377 131.814 465.909 132.12 465.333 132.3V132.354C466.041 132.522 466.623 132.84 467.079 133.308C467.535 133.764 467.763 134.43 467.763 135.306C467.763 135.81 467.679 136.284 467.511 136.728C467.343 137.172 467.103 137.556 466.791 137.88C466.491 138.204 466.131 138.462 465.711 138.654C465.303 138.834 464.859 138.924 464.379 138.924H459.573V126.36ZM463.929 137.61C464.625 137.61 465.171 137.454 465.567 137.142C465.963 136.83 466.161 136.35 466.161 135.702V134.964C466.161 134.328 465.963 133.854 465.567 133.542C465.171 133.218 464.625 133.056 463.929 133.056H461.085V137.61H463.929ZM463.677 131.814C464.313 131.814 464.811 131.676 465.171 131.4C465.531 131.112 465.711 130.68 465.711 130.104V129.402C465.711 128.826 465.531 128.394 465.171 128.106C464.811 127.818 464.313 127.674 463.677 127.674H461.085V131.814H463.677Z" fill="black"/>
<path d="M1018.53 139.14C1017.85 139.14 1017.25 139.026 1016.71 138.798C1016.18 138.57 1015.72 138.246 1015.34 137.826C1014.97 137.394 1014.68 136.884 1014.48 136.296C1014.27 135.696 1014.17 135.03 1014.17 134.298C1014.17 133.554 1014.27 132.882 1014.48 132.282C1014.69 131.682 1014.99 131.172 1015.36 130.752C1015.73 130.32 1016.17 129.99 1016.69 129.762C1017.22 129.534 1017.8 129.42 1018.44 129.42C1019.06 129.42 1019.62 129.534 1020.13 129.762C1020.64 129.99 1021.08 130.308 1021.44 130.716C1021.8 131.112 1022.08 131.586 1022.27 132.138C1022.46 132.69 1022.56 133.296 1022.56 133.956V134.64H1015.68V135.072C1015.68 135.48 1015.75 135.858 1015.88 136.206C1016.01 136.554 1016.2 136.854 1016.44 137.106C1016.69 137.358 1016.99 137.556 1017.34 137.7C1017.7 137.832 1018.09 137.898 1018.53 137.898C1019.15 137.898 1019.69 137.754 1020.15 137.466C1020.6 137.178 1020.95 136.782 1021.19 136.278L1022.25 136.998C1021.98 137.622 1021.51 138.138 1020.87 138.546C1020.23 138.942 1019.45 139.14 1018.53 139.14ZM1018.44 130.608C1018.04 130.608 1017.67 130.68 1017.34 130.824C1017 130.968 1016.71 131.166 1016.46 131.418C1016.22 131.67 1016.02 131.97 1015.88 132.318C1015.75 132.654 1015.68 133.026 1015.68 133.434V133.56H1021.01V133.362C1021.01 132.954 1020.94 132.582 1020.81 132.246C1020.69 131.91 1020.52 131.622 1020.29 131.382C1020.07 131.13 1019.8 130.938 1019.48 130.806C1019.17 130.674 1018.82 130.608 1018.44 130.608ZM1016.73 127.8C1016.35 127.8 1016.09 127.722 1015.93 127.566C1015.78 127.41 1015.7 127.212 1015.7 126.972V126.72C1015.7 126.48 1015.78 126.282 1015.93 126.126C1016.09 125.97 1016.35 125.892 1016.73 125.892C1017.1 125.892 1017.36 125.97 1017.52 126.126C1017.67 126.282 1017.75 126.48 1017.75 126.72V126.972C1017.75 127.212 1017.67 127.41 1017.52 127.566C1017.36 127.722 1017.1 127.8 1016.73 127.8ZM1020.07 127.8C1019.7 127.8 1019.44 127.722 1019.28 127.566C1019.13 127.41 1019.05 127.212 1019.05 126.972V126.72C1019.05 126.48 1019.13 126.282 1019.28 126.126C1019.44 125.97 1019.7 125.892 1020.07 125.892C1020.45 125.892 1020.71 125.97 1020.87 126.126C1021.02 126.282 1021.1 126.48 1021.1 126.72V126.972C1021.1 127.212 1021.02 127.41 1020.87 127.566C1020.71 127.722 1020.45 127.8 1020.07 127.8Z" fill="black"/>
<path d="M325.243 139.14C324.619 139.14 324.049 139.026 323.533 138.798C323.029 138.57 322.591 138.222 322.219 137.754C321.859 137.286 321.577 136.698 321.373 135.99C321.169 135.27 321.067 134.418 321.067 133.434C321.067 132.066 321.157 130.902 321.337 129.942C321.529 128.982 321.817 128.19 322.201 127.566C322.597 126.942 323.095 126.48 323.695 126.18C324.307 125.88 325.033 125.7 325.873 125.64L328.717 125.46V126.882L325.729 127.08C325.213 127.116 324.769 127.212 324.397 127.368C324.037 127.524 323.731 127.776 323.479 128.124C323.239 128.46 323.047 128.904 322.903 129.456C322.759 130.008 322.651 130.698 322.579 131.526H322.669C322.921 130.926 323.275 130.464 323.731 130.14C324.187 129.804 324.757 129.636 325.441 129.636C326.029 129.636 326.569 129.744 327.061 129.96C327.553 130.176 327.973 130.488 328.321 130.896C328.669 131.292 328.939 131.79 329.131 132.39C329.335 132.978 329.437 133.65 329.437 134.406C329.437 135.114 329.335 135.756 329.131 136.332C328.927 136.908 328.639 137.406 328.267 137.826C327.895 138.246 327.451 138.57 326.935 138.798C326.431 139.026 325.867 139.14 325.243 139.14ZM325.243 137.898C326.023 137.898 326.659 137.658 327.151 137.178C327.655 136.686 327.907 135.972 327.907 135.036V133.902C327.907 132.894 327.661 132.138 327.169 131.634C326.689 131.13 326.059 130.878 325.279 130.878C324.367 130.878 323.689 131.1 323.245 131.544C322.813 131.976 322.597 132.534 322.597 133.218V135.036C322.597 135.972 322.837 136.686 323.317 137.178C323.809 137.658 324.451 137.898 325.243 137.898Z" fill="black"/>
<path d="M880.362 139.14C879.69 139.14 879.084 139.026 878.544 138.798C878.016 138.57 877.56 138.246 877.176 137.826C876.804 137.394 876.516 136.884 876.312 136.296C876.108 135.696 876.006 135.03 876.006 134.298C876.006 133.554 876.108 132.882 876.312 132.282C876.528 131.682 876.822 131.172 877.194 130.752C877.566 130.32 878.01 129.99 878.526 129.762C879.054 129.534 879.636 129.42 880.272 129.42C880.896 129.42 881.46 129.534 881.964 129.762C882.48 129.99 882.918 130.308 883.278 130.716C883.638 131.112 883.914 131.586 884.106 132.138C884.298 132.69 884.394 133.296 884.394 133.956V134.64H877.518V135.072C877.518 135.48 877.584 135.858 877.716 136.206C877.848 136.554 878.034 136.854 878.274 137.106C878.526 137.358 878.826 137.556 879.174 137.7C879.534 137.832 879.93 137.898 880.362 137.898C880.986 137.898 881.526 137.754 881.982 137.466C882.438 137.178 882.786 136.782 883.026 136.278L884.088 136.998C883.812 137.622 883.35 138.138 882.702 138.546C882.066 138.942 881.286 139.14 880.362 139.14ZM880.272 130.608C879.876 130.608 879.51 130.68 879.174 130.824C878.838 130.968 878.544 131.166 878.292 131.418C878.052 131.67 877.86 131.97 877.716 132.318C877.584 132.654 877.518 133.026 877.518 133.434V133.56H882.846V133.362C882.846 132.954 882.78 132.582 882.648 132.246C882.528 131.91 882.354 131.622 882.126 131.382C881.91 131.13 881.64 130.938 881.316 130.806C881.004 130.674 880.656 130.608 880.272 130.608Z" fill="black"/>
<path d="M589.293 129.636H595.953V130.86H590.733V138.924H589.293V129.636Z" fill="black"/>
<path d="M1157.02 134.73H1155.44L1154.27 138.924H1152.83L1153.85 135.27C1154.05 134.61 1154.38 134.244 1154.86 134.172V134.1C1154.41 133.992 1154.09 133.638 1153.93 133.038L1152.94 129.636H1154.3L1155.44 133.542H1157.02V129.636H1158.35V133.542H1159.94L1161.09 129.636H1162.44L1161.43 133.038C1161.34 133.35 1161.22 133.59 1161.07 133.758C1160.94 133.926 1160.75 134.04 1160.51 134.1V134.172C1161.03 134.244 1161.37 134.61 1161.54 135.27L1162.55 138.924H1161.09L1159.94 134.73H1158.35V138.924H1157.02V134.73Z" fill="black"/>
<line x1="145.67" y1="87.8152" x2="159.602" y2="87.8152" stroke="black" stroke-width="1.125"/>
<line x1="1250.98" y1="88.9006" x2="1264.91" y2="88.9006" stroke="black" stroke-width="1.125"/>
<line x1="1389.14" y1="88.9006" x2="1403.07" y2="88.9006" stroke="black" stroke-width="1.125"/>
<line x1="145.67" y1="226.687" x2="159.602" y2="226.687" stroke="black" stroke-width="1.125"/>
<line x1="145.67" y1="365.558" x2="159.602" y2="365.558" stroke="black" stroke-width="1.125"/>
<line x1="145.67" y1="504.434" x2="159.602" y2="504.434" stroke="black" stroke-width="1.125"/>
<line x1="1250.98" y1="227.772" x2="1264.91" y2="227.772" stroke="black" stroke-width="1.125"/>
<line x1="1250.98" y1="366.644" x2="1264.91" y2="366.644" stroke="black" stroke-width="1.125"/>
<line x1="1389.14" y1="227.772" x2="1403.07" y2="227.772" stroke="black" stroke-width="1.125"/>
<line x1="1389.14" y1="366.644" x2="1403.07" y2="366.644" stroke="black" stroke-width="1.125"/>
<line x1="287.316" y1="226.687" x2="301.249" y2="226.687" stroke="black" stroke-width="1.125"/>
<line x1="286.155" y1="366.644" x2="300.088" y2="366.644" stroke="black" stroke-width="1.125"/>
<line x1="286.155" y1="505.52" x2="300.088" y2="505.52" stroke="black" stroke-width="1.125"/>
<line x1="424.318" y1="226.687" x2="438.251" y2="226.687" stroke="black" stroke-width="1.125"/>
<line x1="424.318" y1="365.558" x2="438.251" y2="365.558" stroke="black" stroke-width="1.125"/>
<line x1="424.318" y1="505.52" x2="438.251" y2="505.52" stroke="black" stroke-width="1.125"/>
<line x1="553.193" y1="226.687" x2="567.126" y2="226.687" stroke="black" stroke-width="1.125"/>
<line x1="553.193" y1="365.558" x2="567.126" y2="365.558" stroke="black" stroke-width="1.125"/>
<line x1="701.806" y1="226.687" x2="715.738" y2="226.687" stroke="black" stroke-width="1.125"/>
<line x1="701.806" y1="365.558" x2="715.738" y2="365.558" stroke="black" stroke-width="1.125"/>
<line x1="842.291" y1="227.772" x2="856.223" y2="227.772" stroke="black" stroke-width="1.125"/>
<line x1="841.13" y1="366.644" x2="855.063" y2="366.644" stroke="black" stroke-width="1.125"/>
<line x1="979.293" y1="226.687" x2="993.226" y2="226.687" stroke="black" stroke-width="1.125"/>
<line x1="979.293" y1="365.558" x2="993.226" y2="365.558" stroke="black" stroke-width="1.125"/>
<line x1="1118.62" y1="226.687" x2="1132.55" y2="226.687" stroke="black" stroke-width="1.125"/>
<line x1="1117.46" y1="365.558" x2="1131.39" y2="365.558" stroke="black" stroke-width="1.125"/>
<line x1="701.806" y1="87.8152" x2="715.738" y2="87.8152" stroke="black" stroke-width="1.125"/>
<line x1="424.318" y1="87.8152" x2="438.251" y2="87.8152" stroke="black" stroke-width="1.125"/>
<line x1="979.293" y1="87.8152" x2="993.226" y2="87.8152" stroke="black" stroke-width="1.125"/>
<line x1="286.155" y1="87.8152" x2="300.088" y2="87.8152" stroke="black" stroke-width="1.125"/>
<line x1="841.13" y1="87.8152" x2="855.063" y2="87.8152" stroke="black" stroke-width="1.125"/>
<line x1="553.193" y1="87.8152" x2="567.126" y2="87.8152" stroke="black" stroke-width="1.125"/>
<line x1="1117.46" y1="87.8152" x2="1131.39" y2="87.8152" stroke="black" stroke-width="1.125"/>
<line x1="145.67" y1="131.211" x2="159.602" y2="131.211" stroke="black" stroke-width="1.125"/>
<line x1="1250.98" y1="132.297" x2="1264.91" y2="132.297" stroke="black" stroke-width="1.125"/>
<line x1="1389.14" y1="132.297" x2="1403.07" y2="132.297" stroke="black" stroke-width="1.125"/>
<line x1="145.67" y1="270.087" x2="159.602" y2="270.087" stroke="black" stroke-width="1.125"/>
<line x1="145.67" y1="408.959" x2="159.602" y2="408.959" stroke="black" stroke-width="1.125"/>
<line x1="145.67" y1="547.83" x2="159.602" y2="547.83" stroke="black" stroke-width="1.125"/>
<line x1="1250.98" y1="271.168" x2="1264.91" y2="271.168" stroke="black" stroke-width="1.125"/>
<line x1="1250.98" y1="410.044" x2="1264.91" y2="410.044" stroke="black" stroke-width="1.125"/>
<line x1="1389.14" y1="271.168" x2="1403.07" y2="271.168" stroke="black" stroke-width="1.125"/>
<line x1="1389.14" y1="410.044" x2="1403.07" y2="410.044" stroke="black" stroke-width="1.125"/>
<line x1="287.316" y1="270.087" x2="301.249" y2="270.087" stroke="black" stroke-width="1.125"/>
<line x1="286.155" y1="410.044" x2="300.088" y2="410.044" stroke="black" stroke-width="1.125"/>
<line x1="286.155" y1="548.916" x2="300.088" y2="548.916" stroke="black" stroke-width="1.125"/>
<line x1="424.318" y1="270.087" x2="438.251" y2="270.087" stroke="black" stroke-width="1.125"/>
<line x1="424.318" y1="408.959" x2="438.251" y2="408.959" stroke="black" stroke-width="1.125"/>
<line x1="424.318" y1="548.916" x2="438.251" y2="548.916" stroke="black" stroke-width="1.125"/>
<line x1="553.193" y1="270.087" x2="567.126" y2="270.087" stroke="black" stroke-width="1.125"/>
<line x1="553.193" y1="408.959" x2="567.126" y2="408.959" stroke="black" stroke-width="1.125"/>
<line x1="701.806" y1="270.087" x2="715.738" y2="270.087" stroke="black" stroke-width="1.125"/>
<line x1="701.806" y1="408.959" x2="715.738" y2="408.959" stroke="black" stroke-width="1.125"/>
<line x1="842.291" y1="271.168" x2="856.223" y2="271.168" stroke="black" stroke-width="1.125"/>
<line x1="841.13" y1="410.044" x2="855.063" y2="410.044" stroke="black" stroke-width="1.125"/>
<line x1="979.293" y1="270.087" x2="993.226" y2="270.087" stroke="black" stroke-width="1.125"/>
<line x1="979.293" y1="408.959" x2="993.226" y2="408.959" stroke="black" stroke-width="1.125"/>
<line x1="1118.62" y1="270.087" x2="1132.55" y2="270.087" stroke="black" stroke-width="1.125"/>
<line x1="1117.46" y1="408.959" x2="1131.39" y2="408.959" stroke="black" stroke-width="1.125"/>
<line x1="701.806" y1="131.211" x2="715.738" y2="131.211" stroke="black" stroke-width="1.125"/>
<line x1="424.318" y1="131.211" x2="438.251" y2="131.211" stroke="black" stroke-width="1.125"/>
<line x1="979.293" y1="131.211" x2="993.226" y2="131.211" stroke="black" stroke-width="1.125"/>
<line x1="286.155" y1="131.211" x2="300.088" y2="131.211" stroke="black" stroke-width="1.125"/>
<line x1="841.13" y1="131.211" x2="855.063" y2="131.211" stroke="black" stroke-width="1.125"/>
<line x1="553.193" y1="131.211" x2="567.126" y2="131.211" stroke="black" stroke-width="1.125"/>
<line x1="1117.46" y1="131.211" x2="1131.39" y2="131.211" stroke="black" stroke-width="1.125"/>
<line x1="199.078" y1="87.8152" x2="213.01" y2="87.8152" stroke="black" stroke-width="1.125"/>
<line x1="1304.38" y1="88.9006" x2="1318.32" y2="88.9006" stroke="black" stroke-width="1.125"/>
<line x1="199.078" y1="226.687" x2="213.01" y2="226.687" stroke="black" stroke-width="1.125"/>
<line x1="199.078" y1="365.558" x2="213.01" y2="365.558" stroke="black" stroke-width="1.125"/>
<line x1="199.078" y1="504.434" x2="213.01" y2="504.434" stroke="black" stroke-width="1.125"/>
<line x1="1304.38" y1="227.772" x2="1318.32" y2="227.772" stroke="black" stroke-width="1.125"/>
<line x1="1304.38" y1="366.644" x2="1318.32" y2="366.644" stroke="black" stroke-width="1.125"/>
<line x1="340.724" y1="226.687" x2="354.656" y2="226.687" stroke="black" stroke-width="1.125"/>
<line x1="339.563" y1="366.644" x2="353.495" y2="366.644" stroke="black" stroke-width="1.125"/>
<line x1="339.563" y1="505.52" x2="353.495" y2="505.52" stroke="black" stroke-width="1.125"/>
<line x1="477.726" y1="226.687" x2="491.659" y2="226.687" stroke="black" stroke-width="1.125"/>
<line x1="477.726" y1="365.558" x2="491.659" y2="365.558" stroke="black" stroke-width="1.125"/>
<line x1="477.726" y1="505.52" x2="491.659" y2="505.52" stroke="black" stroke-width="1.125"/>
<line x1="606.601" y1="226.687" x2="620.534" y2="226.687" stroke="black" stroke-width="1.125"/>
<line x1="597.313" y1="366.644" x2="611.245" y2="366.644" stroke="black" stroke-width="1.125"/>
<line x1="755.213" y1="226.687" x2="769.146" y2="226.687" stroke="black" stroke-width="1.125"/>
<line x1="755.213" y1="365.558" x2="769.146" y2="365.558" stroke="black" stroke-width="1.125"/>
<line x1="895.699" y1="227.772" x2="909.631" y2="227.772" stroke="black" stroke-width="1.125"/>
<line x1="894.538" y1="366.644" x2="908.47" y2="366.644" stroke="black" stroke-width="1.125"/>
<line x1="1032.7" y1="226.687" x2="1046.63" y2="226.687" stroke="black" stroke-width="1.125"/>
<line x1="1032.7" y1="365.558" x2="1046.63" y2="365.558" stroke="black" stroke-width="1.125"/>
<line x1="755.213" y1="87.8152" x2="769.146" y2="87.8152" stroke="black" stroke-width="1.125"/>
<line x1="477.726" y1="87.8152" x2="491.659" y2="87.8152" stroke="black" stroke-width="1.125"/>
<line x1="1032.7" y1="87.8152" x2="1046.63" y2="87.8152" stroke="black" stroke-width="1.125"/>
<line x1="339.563" y1="87.8152" x2="353.495" y2="87.8152" stroke="black" stroke-width="1.125"/>
<line x1="894.538" y1="87.8152" x2="908.47" y2="87.8152" stroke="black" stroke-width="1.125"/>
<line x1="615.889" y1="87.8152" x2="629.822" y2="87.8152" stroke="black" stroke-width="1.125"/>
<line x1="181.1" y1="117.672" x2="181.1" y2="104.652" stroke="black" stroke-width="1.125"/>
<line x1="1286.41" y1="118.757" x2="1286.41" y2="105.738" stroke="black" stroke-width="1.125"/>
<line x1="1424.57" y1="118.757" x2="1424.57" y2="105.738" stroke="black" stroke-width="1.125"/>
<line x1="181.1" y1="256.543" x2="181.1" y2="243.524" stroke="black" stroke-width="1.125"/>
<line x1="181.1" y1="395.415" x2="181.1" y2="382.395" stroke="black" stroke-width="1.125"/>
<line x1="181.1" y1="534.291" x2="181.1" y2="521.271" stroke="black" stroke-width="1.125"/>
<line x1="1286.41" y1="257.629" x2="1286.41" y2="244.609" stroke="black" stroke-width="1.125"/>
<line x1="1286.41" y1="396.5" x2="1286.41" y2="383.481" stroke="black" stroke-width="1.125"/>
<line x1="1424.57" y1="257.629" x2="1424.57" y2="244.609" stroke="black" stroke-width="1.125"/>
<line x1="1424.57" y1="396.5" x2="1424.57" y2="383.481" stroke="black" stroke-width="1.125"/>
<line x1="322.746" y1="256.543" x2="322.746" y2="243.524" stroke="black" stroke-width="1.125"/>
<line x1="321.585" y1="396.5" x2="321.585" y2="383.481" stroke="black" stroke-width="1.125"/>
<line x1="321.585" y1="535.376" x2="321.585" y2="522.357" stroke="black" stroke-width="1.125"/>
<line x1="459.748" y1="256.543" x2="459.748" y2="243.524" stroke="black" stroke-width="1.125"/>
<line x1="459.748" y1="395.415" x2="459.748" y2="382.395" stroke="black" stroke-width="1.125"/>
<line x1="459.748" y1="535.376" x2="459.748" y2="522.357" stroke="black" stroke-width="1.125"/>
<line x1="588.623" y1="256.543" x2="588.623" y2="243.524" stroke="black" stroke-width="1.125"/>
<line x1="588.623" y1="395.415" x2="588.623" y2="382.395" stroke="black" stroke-width="1.125"/>
<line x1="737.235" y1="256.543" x2="737.235" y2="243.524" stroke="black" stroke-width="1.125"/>
<line x1="737.235" y1="395.415" x2="737.235" y2="382.395" stroke="black" stroke-width="1.125"/>
<line x1="877.721" y1="257.629" x2="877.721" y2="244.609" stroke="black" stroke-width="1.125"/>
<line x1="876.56" y1="396.5" x2="876.56" y2="383.481" stroke="black" stroke-width="1.125"/>
<line x1="1014.72" y1="256.543" x2="1014.72" y2="243.524" stroke="black" stroke-width="1.125"/>
<line x1="1014.72" y1="395.415" x2="1014.72" y2="382.395" stroke="black" stroke-width="1.125"/>
<line x1="1154.05" y1="256.543" x2="1154.05" y2="243.524" stroke="black" stroke-width="1.125"/>
<line x1="1152.89" y1="395.415" x2="1152.89" y2="382.395" stroke="black" stroke-width="1.125"/>
<line x1="737.235" y1="117.672" x2="737.235" y2="104.652" stroke="black" stroke-width="1.125"/>
<line x1="459.748" y1="117.672" x2="459.748" y2="104.652" stroke="black" stroke-width="1.125"/>
<line x1="1014.72" y1="117.672" x2="1014.72" y2="104.652" stroke="black" stroke-width="1.125"/>
<line x1="321.585" y1="117.672" x2="321.585" y2="104.652" stroke="black" stroke-width="1.125"/>
<line x1="876.56" y1="117.672" x2="876.56" y2="104.652" stroke="black" stroke-width="1.125"/>
<line x1="588.623" y1="117.672" x2="588.623" y2="104.652" stroke="black" stroke-width="1.125"/>
<line x1="1154.05" y1="117.672" x2="1154.05" y2="104.652" stroke="black" stroke-width="1.125"/>
<line x1="181.1" y1="71.0193" x2="181.1" y2="58" stroke="black" stroke-width="1.125"/>
<line x1="1286.41" y1="72.1047" x2="1286.41" y2="59.0854" stroke="black" stroke-width="1.125"/>
<line x1="1424.57" y1="72.1047" x2="1424.57" y2="59.0854" stroke="black" stroke-width="1.125"/>
<line x1="181.1" y1="209.891" x2="181.1" y2="196.871" stroke="black" stroke-width="1.125"/>
<line x1="181.1" y1="348.762" x2="181.1" y2="335.743" stroke="black" stroke-width="1.125"/>
<line x1="181.1" y1="487.638" x2="181.1" y2="474.619" stroke="black" stroke-width="1.125"/>
<line x1="1286.41" y1="210.976" x2="1286.41" y2="197.957" stroke="black" stroke-width="1.125"/>
<line x1="1286.41" y1="349.848" x2="1286.41" y2="336.829" stroke="black" stroke-width="1.125"/>
<line x1="1424.57" y1="210.976" x2="1424.57" y2="197.957" stroke="black" stroke-width="1.125"/>
<line x1="1426.89" y1="352.019" x2="1426.89" y2="338.999" stroke="black" stroke-width="1.125"/>
<line x1="322.746" y1="209.891" x2="322.746" y2="196.871" stroke="black" stroke-width="1.125"/>
<line x1="321.585" y1="349.848" x2="321.585" y2="336.829" stroke="black" stroke-width="1.125"/>
<line x1="322.746" y1="490.89" x2="322.746" y2="477.871" stroke="black" stroke-width="1.125"/>
<line x1="459.748" y1="209.891" x2="459.748" y2="196.871" stroke="black" stroke-width="1.125"/>
<line x1="459.748" y1="348.762" x2="459.748" y2="335.743" stroke="black" stroke-width="1.125"/>
<line x1="459.748" y1="488.719" x2="459.748" y2="475.7" stroke="black" stroke-width="1.125"/>
<line x1="588.623" y1="209.891" x2="588.623" y2="196.871" stroke="black" stroke-width="1.125"/>
<line x1="588.623" y1="348.762" x2="588.623" y2="335.743" stroke="black" stroke-width="1.125"/>
<line x1="737.235" y1="209.891" x2="737.235" y2="196.871" stroke="black" stroke-width="1.125"/>
<line x1="737.235" y1="348.762" x2="737.235" y2="335.743" stroke="black" stroke-width="1.125"/>
<line x1="877.721" y1="209.891" x2="877.721" y2="196.871" stroke="black" stroke-width="1.125"/>
<line x1="876.56" y1="349.848" x2="876.56" y2="336.829" stroke="black" stroke-width="1.125"/>
<line x1="1014.72" y1="209.891" x2="1014.72" y2="196.871" stroke="black" stroke-width="1.125"/>
<line x1="1014.72" y1="348.762" x2="1014.72" y2="335.743" stroke="black" stroke-width="1.125"/>
<line x1="1154.05" y1="209.891" x2="1154.05" y2="196.871" stroke="black" stroke-width="1.125"/>
<line x1="1152.89" y1="348.762" x2="1152.89" y2="335.743" stroke="black" stroke-width="1.125"/>
<line x1="737.235" y1="71.0193" x2="737.235" y2="58" stroke="black" stroke-width="1.125"/>
<line x1="459.748" y1="71.0193" x2="459.748" y2="58" stroke="black" stroke-width="1.125"/>
<line x1="1014.72" y1="71.0193" x2="1014.72" y2="58" stroke="black" stroke-width="1.125"/>
<line y1="-0.779419" x2="25.4483" y2="-0.779419" transform="matrix(0.526652 -0.850081 0.879542 0.475822 167.73 108.922)" stroke="white" stroke-width="1.55884"/>
<line y1="-0.779419" x2="25.4483" y2="-0.779419" transform="matrix(0.526652 -0.850081 0.879542 0.475822 1273.04 110.008)" stroke="white" stroke-width="1.55884"/>
<line y1="-0.779419" x2="25.4483" y2="-0.779419" transform="matrix(0.526652 -0.850081 0.879542 0.475822 1411.2 110.008)" stroke="white" stroke-width="1.55884"/>
<line y1="-0.779419" x2="25.4483" y2="-0.779419" transform="matrix(0.526652 -0.850081 0.879542 0.475822 167.73 247.798)" stroke="white" stroke-width="1.55884"/>
<line y1="-0.779419" x2="25.4483" y2="-0.779419" transform="matrix(0.526652 -0.850081 0.879542 0.475822 167.73 386.67)" stroke="white" stroke-width="1.55884"/>
<line y1="-0.779419" x2="25.4483" y2="-0.779419" transform="matrix(0.526652 -0.850081 0.879542 0.475822 167.73 525.541)" stroke="white" stroke-width="1.55884"/>
<line y1="-0.779419" x2="25.4483" y2="-0.779419" transform="matrix(0.526652 -0.850081 0.879542 0.475822 1273.04 248.879)" stroke="white" stroke-width="1.55884"/>
<line y1="-0.779419" x2="25.4483" y2="-0.779419" transform="matrix(0.526652 -0.850081 0.879542 0.475822 1273.04 387.755)" stroke="white" stroke-width="1.55884"/>
<line y1="-0.779419" x2="25.4483" y2="-0.779419" transform="matrix(0.526652 -0.850081 0.879542 0.475822 1411.2 248.879)" stroke="white" stroke-width="1.55884"/>
<line y1="-0.779419" x2="25.4483" y2="-0.779419" transform="matrix(0.526652 -0.850081 0.879542 0.475822 1411.2 387.755)" stroke="white" stroke-width="1.55884"/>
<line y1="-0.779419" x2="25.4483" y2="-0.779419" transform="matrix(0.526652 -0.850081 0.879542 0.475822 309.376 247.798)" stroke="white" stroke-width="1.55884"/>
<line y1="-0.779419" x2="25.4483" y2="-0.779419" transform="matrix(0.526652 -0.850081 0.879542 0.475822 308.215 387.755)" stroke="white" stroke-width="1.55884"/>
<line y1="-0.779419" x2="25.4483" y2="-0.779419" transform="matrix(0.526652 -0.850081 0.879542 0.475822 308.215 526.627)" stroke="white" stroke-width="1.55884"/>
<line y1="-0.779419" x2="25.4483" y2="-0.779419" transform="matrix(0.526652 -0.850081 0.879542 0.475822 446.378 247.798)" stroke="white" stroke-width="1.55884"/>
<line y1="-0.779419" x2="25.4483" y2="-0.779419" transform="matrix(0.526652 -0.850081 0.879542 0.475822 446.378 386.67)" stroke="white" stroke-width="1.55884"/>
<line y1="-0.779419" x2="25.4483" y2="-0.779419" transform="matrix(0.526652 -0.850081 0.879542 0.475822 446.378 526.627)" stroke="white" stroke-width="1.55884"/>
<line y1="-0.779419" x2="25.4483" y2="-0.779419" transform="matrix(0.526652 -0.850081 0.879542 0.475822 575.253 247.798)" stroke="white" stroke-width="1.55884"/>
<line y1="-0.779419" x2="25.4483" y2="-0.779419" transform="matrix(0.526652 -0.850081 0.879542 0.475822 575.253 386.67)" stroke="white" stroke-width="1.55884"/>
<line y1="-0.779419" x2="25.4483" y2="-0.779419" transform="matrix(0.526652 -0.850081 0.879542 0.475822 723.865 247.798)" stroke="white" stroke-width="1.55884"/>
<line y1="-0.779419" x2="25.4483" y2="-0.779419" transform="matrix(0.526652 -0.850081 0.879542 0.475822 723.865 386.67)" stroke="white" stroke-width="1.55884"/>
<line y1="-0.779419" x2="25.4483" y2="-0.779419" transform="matrix(0.526652 -0.850081 0.879542 0.475822 864.351 248.879)" stroke="white" stroke-width="1.55884"/>
<line y1="-0.779419" x2="25.4483" y2="-0.779419" transform="matrix(0.526652 -0.850081 0.879542 0.475822 863.19 387.755)" stroke="white" stroke-width="1.55884"/>
<line y1="-0.779419" x2="25.4483" y2="-0.779419" transform="matrix(0.526652 -0.850081 0.879542 0.475822 1001.35 247.798)" stroke="white" stroke-width="1.55884"/>
<line y1="-0.779419" x2="25.4483" y2="-0.779419" transform="matrix(0.526652 -0.850081 0.879542 0.475822 1001.35 386.67)" stroke="white" stroke-width="1.55884"/>
<line y1="-0.779419" x2="25.4483" y2="-0.779419" transform="matrix(0.526652 -0.850081 0.879542 0.475822 1140.68 247.798)" stroke="white" stroke-width="1.55884"/>
<line y1="-0.779419" x2="25.4483" y2="-0.779419" transform="matrix(0.526652 -0.850081 0.879542 0.475822 1139.52 386.67)" stroke="white" stroke-width="1.55884"/>
<line y1="-0.779419" x2="25.4483" y2="-0.779419" transform="matrix(0.526652 -0.850081 0.879542 0.475822 723.865 108.922)" stroke="white" stroke-width="1.55884"/>
<line y1="-0.779419" x2="25.4483" y2="-0.779419" transform="matrix(0.526652 -0.850081 0.879542 0.475822 446.378 108.922)" stroke="white" stroke-width="1.55884"/>
<line y1="-0.779419" x2="25.4483" y2="-0.779419" transform="matrix(0.526652 -0.850081 0.879542 0.475822 1001.35 108.922)" stroke="white" stroke-width="1.55884"/>
<line y1="-0.779419" x2="25.4483" y2="-0.779419" transform="matrix(0.526652 -0.850081 0.879542 0.475822 308.215 108.922)" stroke="white" stroke-width="1.55884"/>
<line y1="-0.779419" x2="25.4483" y2="-0.779419" transform="matrix(0.526652 -0.850081 0.879542 0.475822 863.19 108.922)" stroke="white" stroke-width="1.55884"/>
<line y1="-0.779419" x2="25.4483" y2="-0.779419" transform="matrix(0.526652 -0.850081 0.879542 0.475822 575.253 108.922)" stroke="white" stroke-width="1.55884"/>
<line y1="-0.779419" x2="25.4483" y2="-0.779419" transform="matrix(0.526652 -0.850081 0.879542 0.475822 1140.68 108.922)" stroke="white" stroke-width="1.55884"/>
<line x1="145.107" y1="131.774" x2="145.107" y2="92.7157" stroke="black" stroke-width="1.125"/>
<line x1="1250.41" y1="132.859" x2="1250.41" y2="93.8011" stroke="black" stroke-width="1.125"/>
<line x1="1388.58" y1="132.859" x2="1388.58" y2="93.8011" stroke="black" stroke-width="1.125"/>
<line x1="145.107" y1="270.65" x2="145.107" y2="231.592" stroke="black" stroke-width="1.125"/>
<line x1="145.107" y1="409.521" x2="145.107" y2="370.463" stroke="black" stroke-width="1.125"/>
<line x1="145.107" y1="548.393" x2="145.107" y2="509.335" stroke="black" stroke-width="1.125"/>
<line x1="1250.41" y1="271.731" x2="1250.41" y2="232.673" stroke="black" stroke-width="1.125"/>
<line x1="1250.41" y1="410.607" x2="1250.41" y2="371.549" stroke="black" stroke-width="1.125"/>
<line x1="1388.58" y1="271.731" x2="1388.58" y2="232.673" stroke="black" stroke-width="1.125"/>
<line x1="1388.58" y1="410.607" x2="1388.58" y2="371.549" stroke="black" stroke-width="1.125"/>
<line x1="286.754" y1="270.65" x2="286.754" y2="231.592" stroke="black" stroke-width="1.125"/>
<line x1="285.593" y1="410.607" x2="285.593" y2="371.549" stroke="black" stroke-width="1.125"/>
<line x1="285.593" y1="549.478" x2="285.593" y2="510.42" stroke="black" stroke-width="1.125"/>
<line x1="423.756" y1="270.65" x2="423.756" y2="231.592" stroke="black" stroke-width="1.125"/>
<line x1="423.756" y1="409.521" x2="423.756" y2="370.463" stroke="black" stroke-width="1.125"/>
<line x1="423.756" y1="549.478" x2="423.756" y2="510.42" stroke="black" stroke-width="1.125"/>
<line x1="552.631" y1="270.65" x2="552.631" y2="231.592" stroke="black" stroke-width="1.125"/>
<line x1="552.631" y1="409.521" x2="552.631" y2="370.463" stroke="black" stroke-width="1.125"/>
<line x1="701.243" y1="270.65" x2="701.243" y2="231.592" stroke="black" stroke-width="1.125"/>
<line x1="701.243" y1="409.521" x2="701.243" y2="370.463" stroke="black" stroke-width="1.125"/>
<line x1="841.729" y1="271.731" x2="841.729" y2="232.673" stroke="black" stroke-width="1.125"/>
<line x1="840.568" y1="410.607" x2="840.568" y2="371.549" stroke="black" stroke-width="1.125"/>
<line x1="978.731" y1="270.65" x2="978.731" y2="231.592" stroke="black" stroke-width="1.125"/>
<line x1="978.731" y1="409.521" x2="978.731" y2="370.463" stroke="black" stroke-width="1.125"/>
<line x1="1118.05" y1="270.65" x2="1118.05" y2="231.592" stroke="black" stroke-width="1.125"/>
<line x1="1116.89" y1="409.521" x2="1116.89" y2="370.463" stroke="black" stroke-width="1.125"/>
<line x1="701.243" y1="131.774" x2="701.243" y2="92.7157" stroke="black" stroke-width="1.125"/>
<line x1="423.756" y1="131.774" x2="423.756" y2="92.7157" stroke="black" stroke-width="1.125"/>
<line x1="978.731" y1="131.774" x2="978.731" y2="92.7157" stroke="black" stroke-width="1.125"/>
<line x1="285.593" y1="131.774" x2="285.593" y2="92.7157" stroke="black" stroke-width="1.125"/>
<line x1="840.568" y1="131.774" x2="840.568" y2="92.7157" stroke="black" stroke-width="1.125"/>
<line x1="552.631" y1="131.774" x2="552.631" y2="92.7157" stroke="black" stroke-width="1.125"/>
<line x1="1116.89" y1="131.774" x2="1116.89" y2="92.7157" stroke="black" stroke-width="1.125"/>
<ellipse cx="1322.38" cy="552.735" rx="20.3181" ry="18.4441" fill="black"/>
<ellipse cx="1432.68" cy="552.735" rx="20.3181" ry="18.4441" fill="black"/>
<rect x="662.331" y="583.835" width="453.965" height="14.1043" rx="4.6916" fill="#939598"/>
<rect x="662.81" y="479.68" width="453.965" height="14.1043" rx="4.6916" fill="#939598"/>
<rect x="780.075" y="476.085" width="49.9245" height="20.6139" rx="4.6916" fill="black"/>
<rect x="1041.99" y="581.299" width="49.9245" height="20.6139" rx="4.6916" fill="black"/>
</svg>
