<svg width="454" height="279" viewBox="0 0 454 279" fill="none" xmlns="http://www.w3.org/2000/svg">
<g clip-path="url(#clip0_601_16628)">
<path d="M448.047 63.4214L446.047 71.6443H398V35H444.547L447.047 41.9214L448.547 49.9214L449.047 54.9214V58.4214L448.047 63.4214Z" fill="#A9FF38"/>
<path d="M220.771 151.048L354.29 82.5551" stroke="black"/>
<path d="M167.729 266L152.05 272.5V221.166H52.5V151.367H220.101L219 208.5L213 222L204 236.5L186 254L167.729 266Z" fill="#A9FF38"/>
<path d="M449.339 55.3385C449.339 82.2847 426.199 104.177 397.592 104.177C368.986 104.177 345.846 82.2847 345.846 55.3385C345.846 28.3923 368.986 6.5 397.592 6.5C426.199 6.5 449.339 28.3923 449.339 55.3385Z" stroke="black"/>
<path d="M225.258 174.482C225.258 231.881 175.868 278.463 114.879 278.463C53.8899 278.463 4.5 231.881 4.5 174.482C4.5 117.082 53.8899 70.5 114.879 70.5C175.868 70.5 225.258 117.082 225.258 174.482Z" stroke="black"/>
</g>
<defs>
<clipPath id="clip0_601_16628">
<rect width="454" height="279" fill="white"/>
</clipPath>
</defs>
</svg>
