<svg width="377" height="435" viewBox="0 0 377 435" fill="none" xmlns="http://www.w3.org/2000/svg">
<g clip-path="url(#clip0_600_16620)">
<path d="M364.455 309.599C364.455 366.999 315.065 413.58 254.076 413.58C193.087 413.58 143.697 366.999 143.697 309.599C143.697 252.199 193.087 205.617 254.076 205.617C315.065 205.617 364.455 252.199 364.455 309.599Z" stroke="black"/>
<path d="M100.735 103.686L195.735 221.686" stroke="black"/>
<path d="M12.3457 71C12.3457 71 12.8456 68 12.8457 63C12.3457 61.5 13.8457 70.321 13.8457 58C13.8457 55.026 37.2069 82.0937 12.8305 64.5C13.2553 61.3135 11.996 67.8859 12.8457 63L12.3457 66L13.8457 58L16.8457 52.5002L20.3456 55C27.1434 55 10.4468 60.7616 13.8457 58C14.2388 59.2882 13.8455 59.2882 13.8457 58L15.8455 52L17.3456 49L18.3341 46.3345L20.8457 42L15.3456 53.1932L18.8457 45.6317L27.8457 33L45.3457 19L48.3457 23L68.7413 45.6317L49.6225 62.2013C42.8247 67.9369 36.6642 73.0352 31.1411 77.4963C25.6179 81.7449 21.944 83.526 16.8457 86.5C15.3457 85.5 12.8456 80 12.8456 75C12.8456 65.5 12.3457 71 12.3457 71Z" fill="#A9FF38"/>
<path d="M115.993 68.7096C115.993 95.6558 92.8528 117.548 64.2466 117.548C35.6404 117.548 12.5 95.6558 12.5 68.7096C12.5 41.7634 35.6404 19.8711 64.2466 19.8711C92.8528 19.8711 115.993 41.7634 115.993 68.7096Z" stroke="black"/>
<path d="M202.721 389.883C181.817 389.883 177.548 384.164 167.729 373.099C158.227 362.033 152.349 353.801 146.5 334C143.241 329.052 143.184 303.926 143.5 299.5C144.134 294.758 145.555 283.993 148.5 276.5L158.5 256L173 238L181.766 231.235L185.86 227.732C191.708 223.645 189.369 225.397 194.633 221.895C198.145 219.559 197.557 219.559 201.066 218.391L206.33 215.472L208.084 214.305L214.518 211.969L219.197 210.218L223.291 209.05L229.724 207.883L210.323 330.128L219.825 333.448L293.941 275.116L328.149 314.004L299.643 338.665C289.507 347.201 280.322 354.789 272.086 361.428C263.851 367.751 255.933 373.126 248.331 377.552C241.046 381.663 233.761 384.666 226.476 386.563C219.191 388.776 211.273 389.883 202.721 389.883Z" fill="#A9FF38"/>
<path d="M364.258 309.482C364.258 366.881 314.868 413.463 253.879 413.463C192.89 413.463 143 366.4 143 309C143 251.606 192.884 205.5 253.879 205.5C314.868 205.5 364.258 252.082 364.258 309.482Z" stroke="black"/>
</g>
<defs>
<clipPath id="clip0_600_16620">
<rect width="377" height="435" fill="white"/>
</clipPath>
</defs>
</svg>
