<svg width="1440" height="1144" viewBox="0 0 1440 1144" fill="none" xmlns="http://www.w3.org/2000/svg">
<g clip-path="url(#clip0_566_946)">
<rect width="1440" height="1144" fill="white"/>
<path d="M245.548 98H20.601V247.699H245.548V98Z" fill="#A9FF38"/>
<path d="M241.313 606.364H20.601V773.566H241.313V606.364Z" fill="#A9FF38"/>
<path d="M41.8622 778.11C64.982 778.11 83.7243 756.541 83.7243 729.935C83.7243 703.329 64.982 681.761 41.8622 681.761C18.7423 681.761 0 703.329 0 729.935C0 756.541 18.7423 778.11 41.8622 778.11Z" fill="white"/>
<path d="M462.189 352.215H241.312V587.85H462.189V352.215Z" fill="#A9FF38"/>
<path d="M476.392 862.771H225.415V1088.6H476.392V862.771Z" fill="#A9FF38" stroke="#0E0F10" stroke-width="1.08543" stroke-miterlimit="10"/>
<path d="M271.623 970.837C309.592 970.837 340.371 935.416 340.371 891.723C340.371 848.029 309.592 812.608 271.623 812.608C233.655 812.608 202.875 848.029 202.875 891.723C202.875 935.416 233.655 970.837 271.623 970.837Z" fill="white"/>
<path d="M681.993 98H461.116V290.319H681.993V98Z" fill="#A9FF38" stroke="#A9FF38" stroke-width="1.08543" stroke-miterlimit="10"/>
<path d="M582.041 326.81C620.01 326.81 650.789 291.389 650.789 247.695C650.789 204.001 620.01 168.581 582.041 168.581C544.073 168.581 513.293 204.001 513.293 247.695C513.293 291.389 544.073 326.81 582.041 326.81Z" fill="white"/>
<path d="M351.758 549.151C389.727 549.151 420.506 513.73 420.506 470.037C420.506 426.343 389.727 390.922 351.758 390.922C313.79 390.922 283.01 426.343 283.01 470.037C283.01 513.73 313.79 549.151 351.758 549.151Z" fill="white"/>
<path d="M241.313 353.529H20.601V458.044H241.313V353.529Z" fill="white" stroke="#A9FF38" stroke-width="1.08543" stroke-miterlimit="10"/>
<path d="M683.08 352.215H462.368V537.792H683.08V352.215Z" fill="white" stroke="#A9FF38" stroke-width="1.08543" stroke-miterlimit="10"/>
<path d="M681.566 876.961H462.822V992.191H681.566V876.961Z" fill="white" stroke="#A9FF38" stroke-width="1.08543" stroke-miterlimit="10"/>
<path d="M680.536 991.479L612.874 992.412C612.42 949.017 642.593 912.886 679.711 912.364C679.986 912.364 680.261 912.364 680.536 912.364V991.479Z" fill="#A9FF38"/>
<path d="M683.08 537.792H462.368V614.374H683.08V537.792Z" fill="white" stroke="#A9FF38" stroke-width="1.08543" stroke-miterlimit="10"/>
<path d="M612.832 536.591H681.58C681.58 579.986 650.541 615.706 612.832 615.706C575.123 615.706 544.084 579.986 544.084 536.591C544.084 536.543 544.084 536.512 544.084 536.464L612.832 536.591Z" fill="#A9FF38"/>
<path d="M683.08 614.116H462.368V652.415H683.08V614.116Z" fill="white" stroke="#A9FF38" stroke-width="1.08543" stroke-miterlimit="10"/>
<path d="M462.107 578.195H241.395V616.494H462.107V578.195Z" fill="white" stroke="#A9FF38" stroke-width="1.08543" stroke-miterlimit="10"/>
<path d="M137.524 474.884C175.492 474.884 206.272 439.463 206.272 395.769C206.272 352.075 175.492 316.654 137.524 316.654C99.5551 316.654 68.7755 352.075 68.7755 395.769C68.7755 439.463 99.5551 474.884 137.524 474.884Z" fill="#A9FF38"/>
<path d="M241.313 247.7H20.601V356.314H241.313V247.7Z" fill="white" stroke="#A9FF38" stroke-width="1.08543" stroke-miterlimit="10"/>
<path d="M241.313 456.726H20.601V611.805H241.313V456.726Z" fill="white" stroke="#A9FF38" stroke-width="1.08543" stroke-miterlimit="10"/>
<path d="M241.313 773.567H20.601V871.404H241.313V773.567Z" fill="white" stroke="#A9FF38" stroke-width="1.08543" stroke-miterlimit="10"/>
<path d="M240.735 871.402H20.0231V1045.9H240.735V871.402Z" fill="white" stroke="#A9FF38" stroke-width="1.08543" stroke-miterlimit="10"/>
<path d="M134.127 1092.57C172.095 1092.57 202.875 1057.15 202.875 1013.46C202.875 969.766 172.095 934.345 134.127 934.345C96.1583 934.345 65.3787 969.766 65.3787 1013.46C65.3787 1057.15 96.1583 1092.57 134.127 1092.57Z" fill="#A9FF38"/>
<path d="M240.735 1045.9H20.0231V1131.7H240.735V1045.9Z" fill="white" stroke="#A9FF38" stroke-width="1.08543" stroke-miterlimit="10"/>
<path d="M462.107 1082.4H241.395V1131.7H462.107V1082.4Z" fill="white" stroke="#A9FF38" stroke-width="1.08543" stroke-miterlimit="10"/>
<path d="M682.984 992.186H462.272V1131.69H682.984V992.186Z" fill="white" stroke="#A9FF38" stroke-width="1.08543" stroke-miterlimit="10"/>
<path d="M462.107 764.022H241.395V873.111H462.107V764.022Z" fill="white" stroke="#A9FF38" stroke-width="1.08543" stroke-miterlimit="10"/>
<path d="M434.698 866.722C472.666 866.722 503.446 831.301 503.446 787.607C503.446 743.914 472.666 708.493 434.698 708.493C396.729 708.493 365.95 743.914 365.95 787.607C365.95 831.301 396.729 866.722 434.698 866.722Z" fill="#A9FF38"/>
<path d="M462.107 615.922H241.395V767.109H462.107V615.922Z" fill="white" stroke="#A9FF38" stroke-width="1.08543" stroke-miterlimit="10"/>
<path d="M683.149 651.109H462.272V876.979H683.149V651.109Z" fill="#A9FF38" stroke="#A9FF38" stroke-width="1.08543" stroke-miterlimit="10"/>
<path d="M572.208 843.137C610.176 843.137 640.956 807.716 640.956 764.022C640.956 720.328 610.176 684.907 572.208 684.907C534.239 684.907 503.46 720.328 503.46 764.022C503.46 807.716 534.239 843.137 572.208 843.137Z" fill="white"/>
<path d="M682.557 290.3H461.845V353.541H682.557V290.3Z" fill="white" stroke="#A9FF38" stroke-width="1.08543" stroke-miterlimit="10"/>
<path d="M461.117 167.97H242.399V353.547H461.117V167.97Z" fill="white" stroke="#A9FF38" stroke-width="1.08543" stroke-miterlimit="10"/>
<path d="M385.891 275.868C423.859 275.868 454.639 240.448 454.639 196.754C454.639 153.06 423.859 117.639 385.891 117.639C347.922 117.639 317.143 153.06 317.143 196.754C317.143 240.448 347.922 275.868 385.891 275.868Z" fill="#A9FF38"/>
<path d="M461.117 98H242.399V169.312H461.117V98Z" fill="white" stroke="#A9FF38" stroke-width="1.08543" stroke-miterlimit="10"/>
<path d="M354.202 703.502H348.45C346.081 703.502 344.086 703.097 342.465 702.287C340.875 701.507 339.581 700.307 338.584 698.686C337.617 697.096 336.916 695.101 336.48 692.701C336.074 690.3 335.872 687.479 335.872 684.237C335.872 680.621 336.105 677.597 336.573 675.165C337.072 672.703 337.789 670.723 338.724 669.227C339.659 667.731 340.813 666.671 342.184 666.047C343.587 665.393 345.208 665.065 347.047 665.065C348.918 665.065 350.508 665.361 351.817 665.954C353.157 666.546 354.249 667.356 355.09 668.385C355.932 669.414 356.54 670.645 356.914 672.079C357.319 673.482 357.522 674.994 357.522 676.615V694.01H354.202V691.345H353.968C353.656 692.155 353.142 692.903 352.425 693.589C351.708 694.244 350.664 694.571 349.292 694.571C347.39 694.571 345.878 693.776 344.756 692.186C343.634 690.565 343.073 688.025 343.073 684.564C343.073 681.104 343.634 678.563 344.756 676.942C345.878 675.321 347.39 674.511 349.292 674.511C349.978 674.511 350.57 674.604 351.069 674.791C351.599 674.978 352.051 675.228 352.425 675.54C352.799 675.851 353.111 676.194 353.36 676.568C353.609 676.942 353.812 677.332 353.968 677.737H354.202V676.615C354.202 673.965 353.641 671.877 352.518 670.349C351.427 668.822 349.635 668.058 347.141 668.058C344.366 668.058 342.371 669.133 341.156 671.284C339.971 673.404 339.379 676.818 339.379 681.525V687.557C339.379 689.365 339.503 691.064 339.753 692.654C340.002 694.213 340.454 695.584 341.109 696.769C341.795 697.922 342.714 698.826 343.868 699.481C345.052 700.167 346.58 700.51 348.45 700.51H354.202V703.502ZM350.508 691.765C351.63 691.765 352.518 691.454 353.173 690.83C353.859 690.207 354.202 689.303 354.202 688.118V680.964C354.202 679.779 353.859 678.875 353.173 678.252C352.518 677.628 351.63 677.316 350.508 677.316C349.198 677.316 348.201 677.768 347.515 678.673C346.86 679.545 346.533 681.026 346.533 683.115V685.967C346.533 688.056 346.86 689.552 347.515 690.456C348.201 691.329 349.198 691.765 350.508 691.765Z" fill="#231F20"/>
<path d="M117.831 812.287V804.888C120.533 804.762 122.654 804.181 124.193 803.144C125.733 802.075 126.503 800.473 126.503 798.337V797.677C126.503 795.917 125.968 794.598 124.9 793.718C123.863 792.838 122.434 792.398 120.611 792.398C118.726 792.398 117.218 792.917 116.087 793.953C114.956 794.99 114.17 796.31 113.73 797.912L110.196 796.593C110.51 795.556 110.95 794.582 111.515 793.671C112.081 792.728 112.788 791.911 113.636 791.22C114.516 790.529 115.537 789.979 116.7 789.57C117.894 789.162 119.245 788.958 120.753 788.958C122.261 788.958 123.612 789.178 124.806 789.618C126.031 790.026 127.068 790.623 127.916 791.408C128.765 792.163 129.425 793.089 129.896 794.189C130.367 795.289 130.603 796.514 130.603 797.865C130.603 799.342 130.336 800.646 129.802 801.777C129.267 802.877 128.576 803.819 127.728 804.605C126.88 805.39 125.906 806.034 124.806 806.537C123.738 807.008 122.654 807.338 121.554 807.527V812.287H117.831ZM119.857 822.844C118.569 822.844 117.658 822.577 117.124 822.043C116.621 821.509 116.37 820.833 116.37 820.016V819.168C116.37 818.351 116.621 817.675 117.124 817.141C117.658 816.607 118.569 816.34 119.857 816.34C121.145 816.34 122.041 816.607 122.544 817.141C123.078 817.675 123.345 818.351 123.345 819.168V820.016C123.345 820.833 123.078 821.509 122.544 822.043C122.041 822.577 121.145 822.844 119.857 822.844Z" fill="#231F20"/>
<path d="M128.949 293.913C126.992 293.913 125.391 293.261 124.146 291.956C122.931 290.622 122.323 288.65 122.323 286.042C122.323 283.433 122.931 281.476 124.146 280.171C125.391 278.837 126.992 278.17 128.949 278.17C130.906 278.17 132.492 278.837 133.707 280.171C134.952 281.476 135.575 283.433 135.575 286.042C135.575 288.65 134.952 290.622 133.707 291.956C132.492 293.261 130.906 293.913 128.949 293.913ZM128.949 291.511C130.016 291.511 130.876 291.141 131.528 290.4C132.21 289.658 132.551 288.576 132.551 287.153V284.93C132.551 283.507 132.21 282.425 131.528 281.683C130.876 280.942 130.016 280.572 128.949 280.572C127.882 280.572 127.007 280.942 126.325 281.683C125.673 282.425 125.347 283.507 125.347 284.93V287.153C125.347 288.576 125.673 289.658 126.325 290.4C127.007 291.141 127.882 291.511 128.949 291.511ZM144.113 278.704H147.315L140.2 292.045H136.998L144.113 278.704ZM129.349 296.403H132.551L125.436 309.744H122.234L129.349 296.403ZM140.6 310.278C138.643 310.278 137.043 309.626 135.797 308.321C134.582 306.987 133.974 305.015 133.974 302.407C133.974 299.798 134.582 297.841 135.797 296.536C137.043 295.202 138.643 294.535 140.6 294.535C142.557 294.535 144.143 295.202 145.358 296.536C146.604 297.841 147.226 299.798 147.226 302.407C147.226 305.015 146.604 306.987 145.358 308.321C144.143 309.626 142.557 310.278 140.6 310.278ZM140.6 307.876C141.667 307.876 142.527 307.506 143.179 306.765C143.861 306.023 144.202 304.941 144.202 303.518V301.295C144.202 299.872 143.861 298.79 143.179 298.048C142.527 297.307 141.667 296.937 140.6 296.937C139.533 296.937 138.658 297.307 137.976 298.048C137.324 298.79 136.998 299.872 136.998 301.295V303.518C136.998 304.941 137.324 306.023 137.976 306.765C138.658 307.506 139.533 307.876 140.6 307.876Z" fill="#231F20"/>
<path d="M119.228 1105.97V1096.13L120.585 1083.42H122.137L123.494 1096.13V1105.97H119.228ZM121.361 1078.38C120.036 1078.38 119.098 1078.11 118.549 1077.56C118.032 1077.01 117.773 1076.31 117.773 1075.47V1074.6C117.773 1073.76 118.032 1073.06 118.549 1072.51C119.098 1071.96 120.036 1071.69 121.361 1071.69C122.686 1071.69 123.608 1071.96 124.125 1072.51C124.674 1073.06 124.949 1073.76 124.949 1074.6V1075.47C124.949 1076.31 124.674 1077.01 124.125 1077.56C123.608 1078.11 122.686 1078.38 121.361 1078.38Z" fill="#231F20"/>
<path d="M572.585 640.412L570.253 638.693L575.327 631.737L567.184 629.036L568.043 626.335L576.186 628.954V620.115H579.214V628.954L587.358 626.335L588.217 629.036L580.074 631.737L585.148 638.693L582.815 640.412L577.7 633.374L572.585 640.412Z" fill="#231F20"/>
<path d="M349.604 1116.58C348.746 1116.58 348.138 1116.4 347.783 1116.04C347.448 1115.69 347.28 1115.24 347.28 1114.69V1114.13C347.28 1113.58 347.448 1113.13 347.783 1112.78C348.138 1112.42 348.746 1112.24 349.604 1112.24C350.462 1112.24 351.059 1112.42 351.394 1112.78C351.75 1113.13 351.928 1113.58 351.928 1114.13V1114.69C351.928 1115.24 351.75 1115.69 351.394 1116.04C351.059 1116.4 350.462 1116.58 349.604 1116.58ZM349.604 1104.14C348.746 1104.14 348.138 1103.97 347.783 1103.61C347.448 1103.25 347.28 1102.8 347.28 1102.26V1101.69C347.28 1101.15 347.448 1100.7 347.783 1100.34C348.138 1099.99 348.746 1099.81 349.604 1099.81C350.462 1099.81 351.059 1099.99 351.394 1100.34C351.75 1100.7 351.928 1101.15 351.928 1101.69V1102.26C351.928 1102.8 351.75 1103.25 351.394 1103.61C351.059 1103.97 350.462 1104.14 349.604 1104.14Z" fill="#231F20"/>
<path d="M120.986 544.816C119.75 544.816 118.824 544.464 118.206 543.758C117.588 543.081 117.28 542.228 117.28 541.198V538.419C117.28 537.624 117.353 536.933 117.5 536.345C117.677 535.757 117.883 535.227 118.118 534.756C118.353 534.286 118.618 533.874 118.912 533.521C119.206 533.139 119.486 532.786 119.75 532.462C120.251 531.874 120.589 531.374 120.765 530.962C120.971 530.521 121.074 530.065 121.074 529.594C121.074 528.476 120.559 527.667 119.53 527.167C118.5 526.638 116.985 526.373 114.985 526.373H111.544V523.638H114.985C116.985 523.638 118.5 523.387 119.53 522.887C120.559 522.358 121.074 521.534 121.074 520.417C121.074 519.946 120.971 519.505 120.765 519.093C120.589 518.652 120.251 518.137 119.75 517.549C119.486 517.225 119.206 516.887 118.912 516.534C118.618 516.151 118.353 515.74 118.118 515.298C117.883 514.828 117.677 514.298 117.5 513.71C117.353 513.092 117.28 512.386 117.28 511.592V508.812C117.28 507.783 117.588 506.93 118.206 506.253C118.824 505.547 119.75 505.194 120.986 505.194H128.752V507.93H120.324V511.327C120.324 512.533 120.501 513.46 120.854 514.107C121.207 514.754 121.618 515.387 122.089 516.004C122.589 516.651 123.06 517.328 123.501 518.034C123.942 518.71 124.163 519.519 124.163 520.461C124.163 521.696 123.722 522.696 122.839 523.461C121.986 524.226 120.809 524.711 119.309 524.917V525.094C120.809 525.299 121.986 525.785 122.839 526.55C123.722 527.314 124.163 528.315 124.163 529.55C124.163 530.491 123.942 531.315 123.501 532.021C123.06 532.697 122.589 533.359 122.089 534.006C121.618 534.624 121.207 535.257 120.854 535.904C120.501 536.551 120.324 537.477 120.324 538.683V542.081H128.752V544.816H120.986Z" fill="#231F20"/>
<path d="M573.919 326.727V316.509H564.141V313.185H573.919V302.967H577.634V313.185H587.412V316.509H577.634V326.727H573.919Z" fill="#231F20"/>
<path d="M566.31 446.399H574.566V417.034C574.566 415.684 574.917 414.58 575.618 413.723C576.345 412.867 577.474 412.438 579.006 412.438H585.938V415.125H577.682V444.451C577.682 445.801 577.318 446.905 576.591 447.762C575.89 448.618 574.774 449.047 573.242 449.047H566.31V446.399Z" fill="#231F20"/>
<path d="M558.435 1067.98L547.877 1059.06V1054.96L558.435 1046.04L559.717 1048.96L552.131 1057.01L559.717 1065.05L558.435 1067.98ZM570.173 1067.98L559.614 1059.06V1054.96L570.173 1046.04L571.454 1048.96L563.868 1057.01L571.454 1065.05L570.173 1067.98ZM578.251 1065.05L585.836 1057.01L578.251 1048.96L579.532 1046.04L590.09 1054.96V1059.06L579.532 1067.98L578.251 1065.05ZM589.988 1065.05L597.574 1057.01L589.988 1048.96L591.269 1046.04L601.828 1054.96V1059.06L591.269 1067.98L589.988 1065.05Z" fill="#231F20"/>
<path d="M358.14 124.985C358.14 123.47 358.306 122.018 358.638 120.627C358.991 119.216 359.458 117.909 360.039 116.705C360.641 115.501 361.336 114.422 362.124 113.467C362.913 112.492 363.743 111.672 364.615 111.008H367.136C366.223 111.693 365.362 112.492 364.553 113.405C363.764 114.297 363.058 115.283 362.436 116.362C361.834 117.421 361.357 118.573 361.004 119.818C360.651 121.042 360.475 122.319 360.475 123.647V126.324C360.475 127.652 360.651 128.939 361.004 130.184C361.357 131.409 361.834 132.561 362.436 133.64C363.058 134.698 363.764 135.674 364.553 136.566C365.362 137.479 366.223 138.278 367.136 138.963H364.615C363.743 138.32 362.913 137.51 362.124 136.535C361.336 135.559 360.641 134.47 360.039 133.266C359.458 132.062 358.991 130.765 358.638 129.375C358.306 127.964 358.14 126.501 358.14 124.985Z" fill="#231F20"/>
<path d="M1028.94 149.172H808.226V316.375H1028.94V149.172Z" fill="#A9FF38"/>
<path d="M829.487 320.918C852.607 320.918 871.349 299.35 871.349 272.743C871.349 246.137 852.607 224.569 829.487 224.569C806.367 224.569 787.625 246.137 787.625 272.743C787.625 299.35 806.367 320.918 829.487 320.918Z" fill="white"/>
<path d="M1264.02 405.58H1013.04V631.41H1264.02V405.58Z" fill="#A9FF38" stroke="#0E0F10" stroke-width="1.08543" stroke-miterlimit="10"/>
<path d="M1059.25 513.645C1097.22 513.645 1128 478.224 1128 434.531C1128 390.837 1097.22 355.416 1059.25 355.416C1021.28 355.416 990.5 390.837 990.5 434.531C990.5 478.224 1021.28 513.645 1059.25 513.645Z" fill="white"/>
<path d="M1469.19 419.77H1250.45V535H1469.19V419.77Z" fill="white" stroke="#A9FF38" stroke-width="1.08543" stroke-miterlimit="10"/>
<path d="M1468.16 534.287L1400.5 535.22C1400.05 491.825 1430.22 455.694 1467.34 455.172C1467.61 455.172 1467.89 455.172 1468.16 455.172V534.287Z" fill="#A9FF38"/>
<path d="M1470.71 80.5996H1249.99V157.182H1470.71V80.5996Z" fill="white" stroke="#A9FF38" stroke-width="1.08543" stroke-miterlimit="10"/>
<path d="M1400.46 79.399H1469.21C1469.21 122.794 1438.17 158.514 1400.46 158.514C1362.75 158.514 1331.71 122.794 1331.71 79.399C1331.71 79.3516 1331.71 79.3199 1331.71 79.2725L1400.46 79.399Z" fill="#A9FF38"/>
<path d="M1470.71 156.928H1249.99V195.227H1470.71V156.928Z" fill="white" stroke="#A9FF38" stroke-width="1.08543" stroke-miterlimit="10"/>
<path d="M1249.73 121.003H1029.02V159.302H1249.73V121.003Z" fill="white" stroke="#A9FF38" stroke-width="1.08543" stroke-miterlimit="10"/>
<path d="M1028.94 -0.466309H808.226V154.614H1028.94V-0.466309Z" fill="white" stroke="#A9FF38" stroke-width="1.08543" stroke-miterlimit="10"/>
<path d="M1028.94 316.375H808.226V414.212H1028.94V316.375Z" fill="white" stroke="#A9FF38" stroke-width="1.08543" stroke-miterlimit="10"/>
<path d="M1028.36 414.21H807.648V588.709H1028.36V414.21Z" fill="white" stroke="#A9FF38" stroke-width="1.08543" stroke-miterlimit="10"/>
<path d="M921.752 635.383C959.72 635.383 990.5 599.962 990.5 556.268C990.5 512.574 959.72 477.153 921.752 477.153C883.783 477.153 853.004 512.574 853.004 556.268C853.004 599.962 883.783 635.383 921.752 635.383Z" fill="#A9FF38"/>
<path d="M1028.36 588.713H807.648V674.506H1028.36V588.713Z" fill="white" stroke="#A9FF38" stroke-width="1.08543" stroke-miterlimit="10"/>
<path d="M1249.73 625.205H1029.02V674.503H1249.73V625.205Z" fill="white" stroke="#A9FF38" stroke-width="1.08543" stroke-miterlimit="10"/>
<path d="M1470.61 534.994H1249.9V674.501H1470.61V534.994Z" fill="white" stroke="#A9FF38" stroke-width="1.08543" stroke-miterlimit="10"/>
<path d="M1249.73 306.83H1029.02V415.919H1249.73V306.83Z" fill="white" stroke="#A9FF38" stroke-width="1.08543" stroke-miterlimit="10"/>
<path d="M1222.32 409.53C1260.29 409.53 1291.07 374.109 1291.07 330.415C1291.07 286.722 1260.29 251.301 1222.32 251.301C1184.35 251.301 1153.57 286.722 1153.57 330.415C1153.57 374.109 1184.35 409.53 1222.32 409.53Z" fill="#A9FF38"/>
<path d="M1249.73 158.73H1029.02V309.917H1249.73V158.73Z" fill="white" stroke="#A9FF38" stroke-width="1.08543" stroke-miterlimit="10"/>
<path d="M1470.77 193.917H1249.9V419.787H1470.77V193.917Z" fill="#A9FF38" stroke="#A9FF38" stroke-width="1.08543" stroke-miterlimit="10"/>
<path d="M1359.83 385.949C1397.8 385.949 1428.58 350.528 1428.58 306.834C1428.58 263.141 1397.8 227.72 1359.83 227.72C1321.86 227.72 1291.08 263.141 1291.08 306.834C1291.08 350.528 1321.86 385.949 1359.83 385.949Z" fill="white"/>
<path d="M1130.74 241.634C1129.31 241.634 1128.03 241.401 1126.91 240.933C1125.82 240.465 1124.88 239.826 1124.1 239.016C1123.36 238.174 1122.78 237.208 1122.37 236.117C1121.97 235.026 1121.77 233.857 1121.77 232.61C1121.77 231.799 1121.86 230.957 1122.05 230.085C1122.23 229.212 1122.56 228.37 1123.03 227.559C1123.5 226.718 1124.1 225.923 1124.85 225.175C1125.63 224.395 1126.61 223.71 1127.8 223.117C1126.93 221.995 1126.19 220.842 1125.6 219.657C1125.04 218.472 1124.76 217.179 1124.76 215.776C1124.76 214.591 1124.98 213.516 1125.41 212.549C1125.88 211.583 1126.49 210.757 1127.24 210.071C1128.02 209.354 1128.92 208.809 1129.95 208.434C1130.98 208.06 1132.07 207.873 1133.22 207.873C1134.25 207.873 1135.19 208.029 1136.03 208.341C1136.9 208.621 1137.67 208.996 1138.32 209.463C1138.97 209.931 1139.52 210.461 1139.96 211.053C1140.42 211.645 1140.77 212.238 1140.99 212.83L1137.9 214.42C1137.49 213.453 1136.89 212.658 1136.08 212.035C1135.26 211.38 1134.25 211.053 1133.04 211.053C1131.63 211.053 1130.51 211.489 1129.67 212.362C1128.86 213.204 1128.45 214.295 1128.45 215.636V216.01C1128.45 216.508 1128.52 216.992 1128.64 217.459C1128.77 217.927 1128.95 218.426 1129.2 218.956C1129.48 219.454 1129.82 220 1130.23 220.592C1130.67 221.184 1131.18 221.855 1131.77 222.603L1135.98 227.793L1139.4 232.002H1139.63C1139.85 230.786 1139.99 229.399 1140.05 227.84C1140.11 226.281 1140.17 224.754 1140.24 223.258H1146.83V226.39H1143.32C1143.23 227.139 1143.14 227.84 1143.04 228.495C1142.95 229.149 1142.84 229.788 1142.72 230.412C1142.59 231.035 1142.45 231.674 1142.29 232.329C1142.14 232.953 1141.92 233.623 1141.64 234.34L1147.34 241.073H1142.9L1138.83 236.257H1138.6C1138.16 237.878 1137.28 239.187 1135.93 240.185C1134.59 241.151 1132.86 241.634 1130.74 241.634ZM1131.73 238.314C1133.07 238.314 1134.25 238.034 1135.28 237.473C1136.31 236.912 1137.12 236.132 1137.71 235.135L1129.58 225.315C1128.14 226.219 1127.13 227.248 1126.54 228.401C1125.94 229.523 1125.65 230.755 1125.65 232.095V232.797C1125.65 234.48 1126.21 235.82 1127.33 236.818C1128.45 237.816 1129.92 238.314 1131.73 238.314Z" fill="#231F20"/>
<path d="M916.992 73.7426C913.625 73.7426 911.942 70.9214 911.942 65.279C911.942 59.6678 913.625 56.8621 916.992 56.8621C920.359 56.8621 922.042 59.6678 922.042 65.279C922.042 70.9214 920.359 73.7426 916.992 73.7426ZM896.511 89.875V57.2362H902.449L904.834 73.5556L906.611 85.6666H906.892V57.2362H910.071V89.875H904.133L901.748 73.5556L899.971 61.4446H899.69V89.875H896.511ZM916.992 71.2176C917.865 71.2176 918.441 70.8591 918.722 70.1421C919.002 69.4251 919.143 68.3964 919.143 67.0559V63.5489C919.143 62.2084 919.002 61.1797 918.722 60.4627C918.441 59.7457 917.865 59.3872 916.992 59.3872C916.088 59.3872 915.495 59.7457 915.215 60.4627C914.965 61.1797 914.841 62.2084 914.841 63.5489V67.0559C914.841 68.3964 914.965 69.4251 915.215 70.1421C915.495 70.8591 916.088 71.2176 916.992 71.2176ZM912.129 77.9043V75.239H921.855V77.9043H912.129Z" fill="#231F20"/>
<path d="M905.456 355.095V347.695C908.158 347.57 910.279 346.988 911.818 345.952C913.358 344.883 914.128 343.281 914.128 341.144V340.485C914.128 338.725 913.594 337.405 912.525 336.526C911.488 335.646 910.059 335.206 908.236 335.206C906.351 335.206 904.843 335.724 903.712 336.761C902.581 337.798 901.795 339.118 901.356 340.72L897.821 339.401C898.135 338.364 898.575 337.39 899.14 336.479C899.706 335.536 900.413 334.719 901.261 334.028C902.141 333.337 903.162 332.787 904.325 332.378C905.519 331.97 906.87 331.766 908.378 331.766C909.886 331.766 911.237 331.986 912.431 332.425C913.656 332.834 914.693 333.431 915.542 334.216C916.39 334.97 917.05 335.897 917.521 336.997C917.992 338.097 918.228 339.322 918.228 340.673C918.228 342.15 917.961 343.454 917.427 344.585C916.893 345.685 916.201 346.627 915.353 347.413C914.505 348.198 913.531 348.842 912.431 349.345C911.363 349.816 910.279 350.146 909.179 350.335V355.095H905.456ZM907.482 365.652C906.194 365.652 905.283 365.385 904.749 364.851C904.246 364.316 903.995 363.641 903.995 362.824V361.976C903.995 361.159 904.246 360.483 904.749 359.949C905.283 359.415 906.194 359.148 907.482 359.148C908.771 359.148 909.666 359.415 910.169 359.949C910.703 360.483 910.97 361.159 910.97 361.976V362.824C910.97 363.641 910.703 364.316 910.169 364.851C909.666 365.385 908.771 365.652 907.482 365.652Z" fill="#231F20"/>
<path d="M907.968 640.485C905.285 640.324 903.055 639.71 901.277 638.643C899.499 637.544 898.028 636.186 896.864 634.57L899.822 632.146C900.986 633.6 902.214 634.732 903.507 635.54C904.8 636.348 906.303 636.833 908.016 636.994V624.34L906.901 624.146C905.22 623.855 903.814 623.418 902.683 622.836C901.552 622.222 900.646 621.511 899.968 620.703C899.289 619.863 898.804 618.941 898.513 617.939C898.222 616.905 898.077 615.838 898.077 614.739C898.077 611.992 898.949 609.842 900.695 608.291C902.473 606.707 904.897 605.802 907.968 605.575V600.63H910.974V605.575C913.204 605.737 915.128 606.287 916.744 607.224C918.392 608.129 919.831 609.406 921.059 611.054L918.005 613.236C917.132 612.073 916.13 611.135 914.998 610.424C913.899 609.713 912.542 609.276 910.926 609.115V620.994L912.38 621.236C914.029 621.527 915.419 621.964 916.55 622.546C917.681 623.127 918.586 623.839 919.265 624.679C919.976 625.487 920.477 626.408 920.768 627.443C921.059 628.477 921.205 629.56 921.205 630.691C921.205 633.536 920.316 635.815 918.538 637.528C916.792 639.241 914.271 640.227 910.974 640.485V645.431H907.968V640.485ZM902.004 614.739C902.004 616.323 902.457 617.568 903.362 618.473C904.299 619.378 905.851 620.057 908.016 620.509V609.066C906.077 609.26 904.59 609.842 903.556 610.812C902.521 611.749 902.004 613.058 902.004 614.739ZM917.277 630.74C917.277 628.994 916.776 627.669 915.774 626.764C914.804 625.859 913.188 625.212 910.926 624.824V636.946C912.962 636.72 914.53 636.073 915.629 635.007C916.728 633.94 917.277 632.518 917.277 630.74Z" fill="#231F20"/>
<path d="M1373.51 185.756L1365.78 171.761H1365.61L1357.88 185.756L1355.34 184.487L1363.93 168.937H1367.62L1376.21 184.487L1373.51 185.756Z" fill="#231F20"/>
<path d="M1132.46 652.321H1128.31V650.248H1132.83L1133.55 646.04H1129.44V643.968H1133.93L1135.12 637.185H1137.42L1133.55 659.104H1131.26L1132.46 652.321ZM1140.9 637.185H1143.2L1142 643.968H1146.15V646.04H1141.63L1140.9 650.248H1145.02V652.321H1140.53L1139.33 659.104H1137.04L1140.9 637.185Z" fill="#231F20"/>
<path d="M1364.55 607.933V604.448H1388.95V607.933H1364.55ZM1364.55 618.184V614.699H1388.95V618.184H1364.55Z" fill="#231F20"/>
</g>
<defs>
<clipPath id="clip0_566_946">
<rect width="1440" height="1144" fill="white"/>
</clipPath>
</defs>
</svg>
