<svg width="1440" height="1112" viewBox="0 0 1440 1112" fill="none" xmlns="http://www.w3.org/2000/svg">
<g clip-path="url(#clip0_566_4)">
<rect width="1440" height="1112" fill="white"/>
<path d="M152.373 970.438V968.014H178.906V887.811H178.542L152.373 909.739L150.798 907.801L176.967 885.872H181.571V968.014H207.135V970.438H152.373Z" fill="black"/>
<path d="M502.92 970.438V968.014H529.453V887.811H529.089L502.92 909.739L501.345 907.801L527.514 885.872H532.118V968.014H557.681V970.438H502.92Z" fill="black"/>
<path d="M152.01 859.551V855.553H178.058V778.257H177.573L152.615 799.701L149.95 796.672L175.271 774.985H182.419V855.553H207.256V859.551H152.01Z" fill="black"/>
<path d="M502.556 804.105V800.107H528.605V722.811H528.12L503.162 744.256L500.497 741.227L525.818 719.54H532.966V800.107H557.803V804.105H502.556Z" fill="black"/>
<path d="M151.404 746.875V740.575H176.604V667.64H175.998L152.737 688.358L148.617 683.754L172.727 662.31H183.752V740.575H207.377V746.875H151.404Z" fill="black"/>
<path d="M500.162 686.066V679.766H525.362V606.832H524.756L501.494 627.549L497.375 622.945L521.485 601.501H532.51V679.766H556.135V686.066H500.162Z" fill="black"/>
<path d="M150.798 630.621V621.777H175.029V553.567H174.181L152.858 573.437L146.921 567.015L169.335 546.056H185.206V621.777H207.498V630.621H150.798Z" fill="black"/>
<path d="M501.345 571.602V562.757H525.576V494.548H524.728L503.405 514.417L497.468 507.996L519.881 487.036H535.753V562.757H558.045V571.602H501.345Z" fill="black"/>
<path d="M151.162 457.137V445.869H174.908V382.506H173.938L154.312 403.466L145.952 395.954L167.517 372.571H188.477V445.869H208.952V457.137H151.162Z" fill="black"/>
<path d="M501.708 457.137V445.869H525.455V382.506H524.485L504.858 403.466L496.499 395.954L518.064 372.571H539.024V445.869H559.499V457.137H501.708Z" fill="black"/>
<path d="M149.738 344.461V331.497H172.999V271.405H171.909L153.494 293.213L143.559 284.853L164.519 259.896H188.871V331.497H208.013V344.461H149.738Z" fill="black"/>
<path d="M500.283 344.461V331.497H523.544V271.405H522.454L504.039 293.213L494.104 284.853L515.064 259.896H539.415V331.497H558.558V344.461H500.283Z" fill="black"/>
<path d="M150.101 230V215.34H172.878V158.64H171.788L154.584 181.175L142.953 172.088L163.186 145.435H191.051V215.34H208.982V230H150.101Z" fill="black"/>
<path d="M500.646 230V215.34H523.423V158.64H522.333L505.129 181.175L493.498 172.088L513.731 145.435H541.596V215.34H559.527V230H500.646Z" fill="black"/>
<ellipse cx="30.4502" cy="31.4018" rx="30.4502" ry="31.4018" transform="matrix(-1 0 0 1 219.166 1007.6)" fill="black"/>
<ellipse cx="30.4502" cy="31.4018" rx="30.4502" ry="31.4018" transform="matrix(-1 0 0 1 569.711 1007.6)" fill="black"/>
<rect x="94" y="465.488" width="162.8" height="71.935" rx="15.789" fill="black"/>
<path d="M333.012 970.438V968.014H359.544V887.811H359.181L333.012 909.739L331.437 907.801L357.606 885.872H362.21V968.014H387.773V970.438H333.012Z" fill="black"/>
<path d="M332.648 859.551V855.553H358.696V778.257H358.212L333.254 799.701L330.589 796.672L355.91 774.985H363.058V855.553H387.894V859.551H332.648Z" fill="black"/>
<path d="M332.043 746.875V740.575H357.242V667.64H356.637L333.375 688.358L329.256 683.754L353.366 662.31H364.391V740.575H388.016V746.875H332.043Z" fill="black"/>
<path d="M331.437 630.621V621.777H355.667V553.567H354.819L333.496 573.437L327.56 567.015L349.973 546.056H365.844V621.777H388.137V630.621H331.437Z" fill="black"/>
<path d="M331.8 516.156V504.889H355.546V441.526H354.577L334.95 462.485L326.591 454.974L348.156 431.591H369.116V504.889H389.591V516.156H331.8Z" fill="black"/>
<path d="M330.377 401.695V388.732H353.638V328.64H352.548L334.132 350.447L324.198 342.088L345.157 317.13H369.509V388.732H388.652V401.695H330.377Z" fill="black"/>
<path d="M330.74 230V215.34H353.517V158.64H352.427L335.223 181.175L323.592 172.088L343.825 145.435H371.69V215.34H389.621V230H330.74Z" fill="black"/>
<ellipse cx="30.4502" cy="31.4018" rx="30.4502" ry="31.4018" transform="matrix(-1 0 0 1 399.805 1007.6)" fill="black"/>
<rect x="278.215" y="238.348" width="162.8" height="71.935" rx="15.789" fill="black"/>
<rect x="451.699" y="810.668" width="162.8" height="71.935" rx="15.789" fill="black"/>
<path d="M970.204 786.557C1178.3 786.557 1347 617.86 1347 409.761C1347 201.663 1178.3 32.9655 970.204 32.9655C762.105 32.9655 593.408 201.663 593.408 409.761C593.408 617.86 762.105 786.557 970.204 786.557Z" stroke="#A9FF37" stroke-width="3" stroke-miterlimit="10"/>
<path d="M970.205 672.324C1115.21 672.324 1232.76 554.772 1232.76 409.765C1232.76 264.757 1115.21 147.205 970.205 147.205C825.197 147.205 707.645 264.757 707.645 409.765C707.645 554.772 825.197 672.324 970.205 672.324Z" fill="#A9FF37"/>
<path d="M970.205 524.216C1033.42 524.216 1084.66 472.974 1084.66 409.764C1084.66 346.554 1033.42 295.311 970.205 295.311C906.995 295.311 855.752 346.554 855.752 409.764C855.752 472.974 906.995 524.216 970.205 524.216Z" fill="white"/>
<path d="M970.204 494.297C1016.89 494.297 1054.73 456.452 1054.73 409.768C1054.73 363.084 1016.89 325.24 970.204 325.24C923.52 325.24 885.675 363.084 885.675 409.768C885.675 456.452 923.52 494.297 970.204 494.297Z" stroke="#A9FF37" stroke-width="13.7445" stroke-miterlimit="10"/>
<path d="M970.204 423.554C977.816 423.554 983.987 417.383 983.987 409.77C983.987 402.158 977.816 395.987 970.204 395.987C962.591 395.987 956.42 402.158 956.42 409.77C956.42 417.383 962.591 423.554 970.204 423.554Z" fill="#A9FF37"/>
<path d="M1173.54 409.772C1173.54 521.318 1081.75 613.112 970.204 613.112C941.518 613.112 913.145 607.045 886.972 595.283" stroke="white" stroke-width="3" stroke-miterlimit="10"/>
<path d="M1131.02 413.14C1131.02 500.143 1059.43 571.713 972.443 571.713C950.746 571.713 929.265 567.255 909.355 558.616" stroke="white" stroke-width="3" stroke-miterlimit="10"/>
<path d="M1257.86 526.36L1258.88 526.854L1257 530.732L1269.75 536.934L1271.64 533.057L1272.65 533.551L1268.27 542.578L1267.25 542.084L1269.13 538.206L1256.38 532.003L1254.49 535.881L1253.47 535.387L1257.86 526.36Z" fill="black"/>
<path d="M1251.98 575.273L1248.93 579.777C1248.18 580.882 1247.29 581.54 1246.25 581.75C1245.22 581.959 1244.15 581.689 1243.04 580.94C1242.2 580.367 1241.65 579.731 1241.4 579.032C1241.17 578.342 1241.17 577.619 1241.4 576.862L1241.36 576.836C1240.65 577.514 1239.87 577.896 1239.01 577.981C1238.16 578.087 1237.27 577.823 1236.34 577.189C1235.79 576.818 1235.34 576.39 1234.99 575.904C1234.65 575.426 1234.41 574.917 1234.29 574.375C1234.16 573.834 1234.15 573.276 1234.25 572.702C1234.36 572.15 1234.6 571.607 1234.96 571.074L1238.37 566.043L1251.98 575.273ZM1236.17 571.469C1235.59 572.327 1235.36 573.123 1235.49 573.856C1235.62 574.589 1236.04 575.193 1236.74 575.669L1237.54 576.211C1238.24 576.687 1238.96 576.85 1239.68 576.699C1240.41 576.548 1241.07 576.043 1241.65 575.185L1244.07 571.616L1238.59 567.9L1236.17 571.469ZM1242.85 575.515C1242.32 576.295 1242.12 577.018 1242.23 577.686C1242.34 578.366 1242.73 578.931 1243.39 579.381L1244.17 579.91C1244.83 580.36 1245.5 580.509 1246.17 580.357C1246.85 580.227 1247.45 579.772 1247.98 578.992L1250.17 575.755L1245.05 572.277L1242.85 575.515Z" fill="black"/>
<path d="M1218.05 618.687L1218.15 618.583L1214.07 609.652L1223.35 612.865L1223.44 612.76L1212.84 603.122L1213.72 602.164L1225.88 613.228L1224.65 614.588L1216.32 611.664L1216.24 611.751L1219.96 619.748L1218.75 621.073L1206.58 610.008L1207.45 609.049L1218.05 618.687Z" fill="black"/>
<path d="M1149.49 663.077L1158.09 677.098L1153.07 680.177C1151.82 680.94 1150.66 681.164 1149.58 680.848C1148.51 680.546 1147.6 679.785 1146.86 678.567C1146.11 677.348 1145.84 676.187 1146.05 675.083C1146.26 673.993 1146.99 673.066 1148.24 672.302L1152.06 669.962L1148.29 663.815L1149.49 663.077ZM1152.7 671.007L1148.9 673.334C1148.06 673.852 1147.56 674.469 1147.41 675.187C1147.26 675.905 1147.4 676.612 1147.83 677.309L1148.42 678.273C1148.84 678.969 1149.41 679.414 1150.12 679.607C1150.83 679.799 1151.6 679.637 1152.45 679.12L1156.24 676.792L1152.7 671.007Z" fill="black"/>
<path d="M1111.1 686.255L1117.61 701.36L1116.31 701.919L1110.29 687.939L1102.89 691.127L1102.4 690.001L1111.1 686.255Z" fill="black"/>
<path d="M1071.24 703.201L1075.53 719.078L1065.96 721.665L1065.64 720.482L1073.85 718.264L1072.21 712.213L1064.3 714.352L1063.98 713.169L1071.89 711.03L1070.2 704.752L1061.99 706.971L1061.67 705.788L1071.24 703.201Z" fill="black"/>
<path d="M1017.65 715.865L1019.26 715.667L1024.68 722.362L1024.75 722.353L1028.52 714.533L1030.06 714.344L1025.66 723.311L1031.81 730.7L1030.19 730.898L1025 724.554L1024.93 724.563L1021.38 731.977L1019.83 732.166L1024.02 723.558L1017.65 715.865Z" fill="black"/>
<path d="M929.71 731.337L929.849 731.359L935.114 723.074L937.477 732.602L937.617 732.624L939.92 718.485L941.199 718.693L938.555 734.926L936.741 734.63L934.652 726.054L934.536 726.035L929.857 733.509L928.09 733.221L930.734 716.989L932.013 717.197L929.71 731.337Z" fill="black"/>
<path d="M892.714 709.641C894.528 710.209 895.666 711.306 896.127 712.932C896.57 714.569 896.368 716.736 895.523 719.434C894.678 722.132 893.61 724.02 892.318 725.097C891.006 726.184 889.443 726.443 887.629 725.875C885.816 725.307 884.688 724.205 884.245 722.569C883.784 720.942 883.975 718.78 884.82 716.082C885.665 713.384 886.744 711.491 888.055 710.404C889.347 709.327 890.9 709.073 892.714 709.641ZM892.348 710.81C890.999 710.388 889.85 710.588 888.901 711.41C887.947 712.247 887.177 713.602 886.59 715.476L885.928 717.59C885.346 719.448 885.208 720.994 885.514 722.225C885.819 723.457 886.647 724.284 887.996 724.706C889.345 725.129 890.496 724.921 891.45 724.084C892.403 723.247 893.171 721.899 893.753 720.04L894.415 717.927C895.002 716.053 895.142 714.5 894.837 713.269C894.527 712.052 893.697 711.233 892.348 710.81Z" fill="black"/>
<path d="M847.835 710.668L847.941 710.719L854.258 697.521L855.427 698.08L848.326 712.915L846.52 712.05L846.825 696.078L846.719 696.028L840.442 709.14L839.273 708.581L846.374 693.747L848.18 694.611L847.835 710.668Z" fill="black"/>
<path d="M811.696 675.868C813.276 676.926 814.057 678.299 814.041 679.99C814.003 681.684 813.197 683.707 811.624 686.056C810.052 688.406 808.493 689.914 806.95 690.582C805.384 691.255 803.812 691.062 802.233 690.005C800.653 688.947 799.883 687.572 799.921 685.877C799.937 684.187 800.732 682.167 802.304 679.817C803.877 677.467 805.446 675.957 807.012 675.284C808.555 674.616 810.117 674.811 811.696 675.868ZM811.015 676.886C809.84 676.1 808.681 675.967 807.539 676.488C806.388 677.021 805.266 678.104 804.174 679.736L802.942 681.576C801.858 683.195 801.289 684.638 801.234 685.906C801.179 687.173 801.739 688.2 802.914 688.987C804.089 689.773 805.252 689.9 806.403 689.366C807.554 688.832 808.672 687.756 809.755 686.138L810.987 684.297C812.08 682.665 812.653 681.216 812.708 679.948C812.754 678.693 812.189 677.673 811.015 676.886Z" fill="black"/>
<path d="M746.423 624.607L745.557 625.334L742.784 622.032L731.92 631.151L734.692 634.454L733.826 635.181L727.373 627.493L728.239 626.766L731.011 630.068L741.876 620.949L739.103 617.646L739.97 616.919L746.423 624.607Z" fill="black"/>
<path d="M704.195 599.356L701.322 594.733C700.617 593.599 700.379 592.517 700.609 591.487C700.838 590.457 701.519 589.589 702.653 588.884C703.52 588.345 704.323 588.105 705.063 588.164C705.788 588.23 706.45 588.522 707.048 589.038L707.089 589.013C706.756 588.091 706.725 587.223 706.995 586.408C707.244 585.588 707.848 584.879 708.809 584.282C709.369 583.934 709.943 583.697 710.531 583.572C711.106 583.455 711.667 583.449 712.212 583.554C712.758 583.658 713.272 583.875 713.754 584.205C714.215 584.529 714.615 584.964 714.955 585.511L718.164 590.675L704.195 599.356ZM714.101 586.458C713.553 585.578 712.919 585.048 712.197 584.868C711.474 584.688 710.753 584.821 710.033 585.269L709.212 585.779C708.492 586.227 708.052 586.814 707.894 587.542C707.736 588.269 707.93 589.073 708.477 589.953L710.753 593.615L716.377 590.121L714.101 586.458ZM707.688 590.915C707.191 590.115 706.613 589.632 705.956 589.467C705.29 589.289 704.617 589.411 703.937 589.834L703.136 590.332C702.456 590.755 702.048 591.304 701.913 591.98C701.757 592.65 701.927 593.386 702.425 594.186L704.489 597.508L709.753 594.237L707.688 590.915Z" fill="black"/>
<path d="M678.328 550.686L678.385 550.815L688.201 550.737L681.484 557.895L681.54 558.025L694.664 552.28L695.183 553.467L680.117 560.062L679.38 558.379L685.448 551.968L685.4 551.86L676.584 551.99L675.866 550.349L690.932 543.754L691.451 544.942L678.328 550.686Z" fill="black"/>
<path d="M665.906 469.984L649.594 472.079L648.844 466.237C648.657 464.788 648.929 463.636 649.659 462.782C650.373 461.93 651.439 461.413 652.857 461.231C654.274 461.049 655.444 461.279 656.366 461.921C657.272 462.564 657.818 463.611 658.005 465.06L658.575 469.5L665.726 468.581L665.906 469.984ZM657.36 469.656L656.792 465.239C656.666 464.258 656.306 463.552 655.713 463.121C655.119 462.691 654.417 462.527 653.607 462.631L652.485 462.776C651.675 462.88 651.037 463.215 650.571 463.782C650.105 464.348 649.936 465.122 650.062 466.104L650.629 470.521L657.36 469.656Z" fill="black"/>
<path d="M660.491 425.42L644.046 425.193L644.065 423.78L659.285 423.99L659.396 415.932L660.621 415.949L660.491 425.42Z" fill="black"/>
<path d="M661.288 382.089L645.04 379.542L646.576 369.742L647.787 369.932L646.469 378.335L652.661 379.305L653.931 371.205L655.141 371.395L653.871 379.495L660.296 380.502L661.613 372.099L662.824 372.289L661.288 382.089Z" fill="black"/>
<path d="M671.546 328.01L671.069 329.564L662.746 331.792L662.725 331.86L668.334 338.484L667.878 339.971L661.484 332.293L652.23 334.901L652.707 333.347L660.615 331.188L660.635 331.121L655.311 324.854L655.767 323.368L661.922 330.702L671.546 328.01Z" fill="black"/>
<path d="M719.987 203.906L719.893 204.012L724.076 212.893L714.762 209.791L714.668 209.897L725.381 219.408L724.52 220.377L712.222 209.458L713.442 208.083L721.805 210.908L721.883 210.82L718.072 202.868L719.261 201.529L731.56 212.448L730.699 213.417L719.987 203.906Z" fill="black"/>
<path d="M758.149 184.218C756.701 185.449 755.165 185.825 753.544 185.348C751.924 184.848 750.199 183.521 748.368 181.366C746.538 179.212 745.512 177.301 745.291 175.633C745.072 173.944 745.686 172.484 747.135 171.253C748.583 170.023 750.117 169.657 751.737 170.157C753.359 170.634 755.085 171.95 756.916 174.105C758.746 176.26 759.771 178.182 759.99 179.871C760.211 181.539 759.598 182.987 758.149 184.218ZM757.356 183.284C758.433 182.369 758.877 181.291 758.689 180.05C758.49 178.796 757.755 177.422 756.483 175.925L755.049 174.237C753.788 172.753 752.555 171.811 751.351 171.412C750.146 171.014 749.005 171.272 747.928 172.187C746.851 173.102 746.411 174.187 746.61 175.44C746.809 176.693 747.539 178.062 748.8 179.546L750.234 181.234C751.506 182.73 752.744 183.678 753.948 184.077C755.142 184.464 756.278 184.2 757.356 183.284Z" fill="black"/>
<path d="M781.258 145.685L781.158 145.748L788.955 158.129L787.859 158.82L779.095 144.903L780.79 143.836L794.139 152.61L794.239 152.547L786.492 140.245L787.589 139.555L796.352 153.471L794.658 154.539L781.258 145.685Z" fill="black"/>
<path d="M829.949 133.685C828.212 134.457 826.633 134.386 825.212 133.471C823.799 132.535 822.517 130.775 821.368 128.192C820.219 125.609 819.774 123.486 820.031 121.824C820.297 120.141 821.299 118.914 823.035 118.141C824.772 117.369 826.347 117.45 827.76 118.386C829.181 119.301 830.467 121.05 831.616 123.634C832.765 126.217 833.207 128.35 832.941 130.033C832.683 131.695 831.686 132.912 829.949 133.685ZM829.451 132.565C830.743 131.991 831.473 131.081 831.642 129.837C831.804 128.579 831.486 127.053 830.688 125.259L829.788 123.235C828.996 121.455 828.079 120.204 827.036 119.482C825.992 118.76 824.825 118.686 823.533 119.261C822.241 119.835 821.514 120.752 821.352 122.01C821.19 123.269 821.504 124.788 822.296 126.567L823.196 128.591C823.994 130.385 824.915 131.643 825.958 132.365C826.995 133.073 828.159 133.14 829.451 132.565Z" fill="black"/>
<path d="M908.088 105.839L907.937 104.718L912.211 104.144L910.322 90.0863L906.049 90.6603L905.898 89.5394L915.846 88.2032L915.997 89.3241L911.723 89.8981L913.612 103.956L917.885 103.382L918.036 104.503L908.088 105.839Z" fill="black"/>
<path d="M952.08 83.684L957.523 83.7277C958.858 83.7384 959.9 84.116 960.648 84.8603C961.396 85.6046 961.764 86.6443 961.754 87.9794C961.745 89.0004 961.519 89.8076 961.074 90.4009C960.63 90.9786 960.03 91.3822 959.274 91.6118L959.273 91.6589C960.23 91.8708 960.98 92.3088 961.525 92.9729C962.085 93.6215 962.361 94.5112 962.352 95.6421C962.346 96.3019 962.239 96.9136 962.031 97.4775C961.822 98.0256 961.528 98.5023 961.147 98.9077C960.767 99.3131 960.309 99.6314 959.773 99.8627C959.253 100.078 958.671 100.184 958.027 100.179L951.948 100.13L952.08 83.684ZM957.683 98.9506C958.72 98.9589 959.507 98.706 960.046 98.192C960.584 97.6779 960.856 96.9968 960.863 96.1486L960.871 95.1826C960.878 94.3344 960.616 93.6489 960.086 93.1263C959.556 92.6037 958.773 92.3382 957.736 92.3299L953.425 92.2952L953.372 98.916L957.683 98.9506ZM957.345 91.1486C958.288 91.1561 959.004 90.9263 959.495 90.459C960.002 89.9918 960.258 89.3576 960.264 88.5565L960.272 87.6141C960.278 86.813 960.032 86.1748 959.533 85.6996C959.05 85.2087 958.338 84.9595 957.395 84.952L953.484 84.9206L953.434 91.1172L957.345 91.1486Z" fill="black"/>
<path d="M1006.96 87.827L1006.82 87.806L1001.66 96.1546L999.179 86.6557L999.039 86.6346L996.907 100.801L995.625 100.608L998.073 84.3448L999.89 84.6183L1002.08 93.1687L1002.2 93.1862L1006.79 85.6564L1008.56 85.923L1006.11 102.186L1004.83 101.993L1006.96 87.827Z" fill="black"/>
<path d="M1081.91 120.298L1088.84 105.38L1094.18 107.86C1095.5 108.475 1096.33 109.319 1096.67 110.392C1097.01 111.45 1096.88 112.628 1096.27 113.924C1095.67 115.221 1094.85 116.088 1093.82 116.526C1092.79 116.949 1091.62 116.853 1090.29 116.238L1086.23 114.353L1083.19 120.893L1081.91 120.298ZM1086.75 113.242L1090.78 115.117C1091.68 115.533 1092.47 115.605 1093.15 115.333C1093.83 115.06 1094.35 114.553 1094.69 113.812L1095.17 112.786C1095.51 112.045 1095.57 111.327 1095.33 110.631C1095.1 109.935 1094.54 109.378 1093.64 108.962L1089.6 107.087L1086.75 113.242Z" fill="black"/>
<path d="M1122.48 139.476L1131.47 125.702L1132.65 126.474L1124.34 139.222L1131.08 143.625L1130.42 144.651L1122.48 139.476Z" fill="black"/>
<path d="M1158.66 163.325L1169.5 150.964L1176.96 157.507L1176.15 158.428L1169.76 152.817L1165.63 157.528L1171.79 162.936L1170.98 163.857L1164.82 158.449L1160.53 163.337L1166.92 168.947L1166.11 169.868L1158.66 163.325Z" fill="black"/>
<path d="M1198.89 200.922L1197.83 199.689L1200.39 191.461L1200.34 191.407L1191.75 192.614L1190.73 191.435L1200.64 190.126L1203.37 180.909L1204.43 182.142L1202.04 189.981L1202.08 190.035L1210.22 188.877L1211.24 190.056L1201.75 191.346L1198.89 200.922Z" fill="black"/>
<path d="M1260.52 265.5L1260.47 265.371L1250.65 265.568L1257.28 258.329L1257.22 258.2L1244.17 264.102L1243.64 262.922L1258.62 256.146L1259.38 257.82L1253.39 264.304L1253.44 264.411L1262.25 264.175L1262.99 265.807L1248 272.583L1247.47 271.402L1260.52 265.5Z" fill="black"/>
<path d="M1262.88 308.312C1262.35 306.486 1262.64 304.931 1263.74 303.648C1264.86 302.376 1266.78 301.347 1269.49 300.561C1272.21 299.776 1274.37 299.624 1275.98 300.107C1277.61 300.6 1278.69 301.76 1279.22 303.585C1279.75 305.411 1279.45 306.96 1278.33 308.233C1277.23 309.516 1275.32 310.55 1272.61 311.335C1269.89 312.121 1267.72 312.267 1266.09 311.774C1264.48 311.292 1263.41 310.137 1262.88 308.312ZM1264.06 307.971C1264.45 309.329 1265.25 310.177 1266.46 310.514C1267.68 310.846 1269.24 310.74 1271.13 310.195L1273.25 309.579C1275.12 309.038 1276.49 308.3 1277.35 307.365C1278.2 306.43 1278.44 305.284 1278.04 303.926C1277.65 302.568 1276.84 301.722 1275.62 301.39C1274.39 301.057 1272.85 301.161 1270.98 301.702L1268.85 302.318C1266.96 302.863 1265.59 303.603 1264.73 304.538C1263.89 305.469 1263.66 306.613 1264.06 307.971Z" fill="black"/>
<path d="M1288.53 345.171L1288.52 345.054L1274.03 347.088L1273.85 345.804L1290.13 343.518L1290.41 345.502L1276.94 354.079L1276.95 354.196L1291.35 352.175L1291.53 353.458L1275.24 355.744L1274.96 353.761L1288.53 345.171Z" fill="black"/>
<path d="M1279.55 394.55C1279.55 392.65 1280.26 391.237 1281.67 390.314C1283.11 389.406 1285.24 388.954 1288.06 388.96C1290.89 388.966 1293.01 389.426 1294.42 390.34C1295.85 391.27 1296.56 392.685 1296.56 394.586C1296.55 396.487 1295.84 397.891 1294.4 398.799C1292.99 399.723 1290.87 400.182 1288.04 400.176C1285.21 400.17 1283.08 399.702 1281.66 398.772C1280.25 397.858 1279.54 396.451 1279.55 394.55ZM1280.77 394.553C1280.77 395.967 1281.3 397.004 1282.37 397.666C1283.45 398.328 1284.97 398.661 1286.94 398.666L1289.15 398.67C1291.1 398.674 1292.61 398.348 1293.7 397.69C1294.78 397.033 1295.33 395.997 1295.33 394.583C1295.33 393.17 1294.8 392.132 1293.71 391.47C1292.63 390.808 1291.11 390.475 1289.17 390.471L1286.95 390.466C1284.99 390.462 1283.46 390.789 1282.38 391.446C1281.31 392.104 1280.77 393.139 1280.77 394.553Z" fill="black"/>
</g>
<defs>
<clipPath id="clip0_566_4">
<rect width="1440" height="1112" fill="white"/>
</clipPath>
</defs>
</svg>
