<svg width="1440" height="503" viewBox="0 0 1440 503" fill="none" xmlns="http://www.w3.org/2000/svg">
<g clip-path="url(#clip0_579_707)">
<rect width="1440" height="503" fill="white"/>
<rect x="-51" y="67.875" width="1490.62" height="390" fill="#A9FF38"/>
<path d="M305.535 269.958L307.224 151.728H302.72L223.9 353.845L145.08 151.728H140.576L142.265 269.958V458H86.528V65.026H163.659L223.9 220.977H227.841L288.645 65.026H361.272V458H305.535V269.958ZM561.48 464.756C536.708 464.756 515.126 460.252 496.735 451.244C478.719 441.861 463.706 428.536 451.695 411.271C440.06 394.006 431.427 372.799 425.797 347.652C420.167 322.505 417.352 293.792 417.352 261.513C417.352 229.61 420.167 201.084 425.797 175.937C431.427 150.414 440.06 129.02 451.695 111.755C463.706 94.4897 478.719 81.353 496.735 72.345C515.126 62.9616 536.708 58.27 561.48 58.27C586.252 58.27 607.646 62.9616 625.662 72.345C644.053 81.353 659.067 94.4897 670.702 111.755C682.713 129.02 691.533 150.414 697.163 175.937C702.793 201.084 705.608 229.61 705.608 261.513C705.608 293.792 702.793 322.505 697.163 347.652C691.533 372.799 682.713 394.006 670.702 411.271C659.067 428.536 644.053 441.861 625.662 451.244C607.646 460.252 586.252 464.756 561.48 464.756ZM561.48 412.397C589.63 412.397 609.523 401.888 621.158 380.869C632.793 359.475 638.611 330.574 638.611 294.167V228.296C638.611 192.264 632.793 163.739 621.158 142.72C609.523 121.326 589.63 110.629 561.48 110.629C533.33 110.629 513.437 121.326 501.802 142.72C490.167 163.739 484.349 192.264 484.349 228.296V294.73C484.349 330.762 490.167 359.475 501.802 380.869C513.437 401.888 533.33 412.397 561.48 412.397ZM830.937 155.669H825.87V458H770.696V65.026H851.768L967.183 367.357H972.25V65.026H1027.42V458H946.352L830.937 155.669ZM1236.64 464.756C1211.87 464.756 1190.29 460.252 1171.9 451.244C1153.88 441.861 1138.87 428.536 1126.86 411.271C1115.22 394.006 1106.59 372.799 1100.96 347.652C1095.33 322.505 1092.51 293.792 1092.51 261.513C1092.51 229.61 1095.33 201.084 1100.96 175.937C1106.59 150.414 1115.22 129.02 1126.86 111.755C1138.87 94.4897 1153.88 81.353 1171.9 72.345C1190.29 62.9616 1211.87 58.27 1236.64 58.27C1261.41 58.27 1282.81 62.9616 1300.82 72.345C1319.21 81.353 1334.23 94.4897 1345.86 111.755C1357.87 129.02 1366.69 150.414 1372.32 175.937C1377.95 201.084 1380.77 229.61 1380.77 261.513C1380.77 293.792 1377.95 322.505 1372.32 347.652C1366.69 372.799 1357.87 394.006 1345.86 411.271C1334.23 428.536 1319.21 441.861 1300.82 451.244C1282.81 460.252 1261.41 464.756 1236.64 464.756ZM1236.64 412.397C1264.79 412.397 1284.68 401.888 1296.32 380.869C1307.95 359.475 1313.77 330.574 1313.77 294.167V228.296C1313.77 192.264 1307.95 163.739 1296.32 142.72C1284.68 121.326 1264.79 110.629 1236.64 110.629C1208.49 110.629 1188.6 121.326 1176.96 142.72C1165.33 163.739 1159.51 192.264 1159.51 228.296V294.73C1159.51 330.762 1165.33 359.475 1176.96 380.869C1188.6 401.888 1208.49 412.397 1236.64 412.397Z" fill="white"/>
<path d="M86.6464 421.646C86.4512 421.842 86.4512 422.158 86.6464 422.354L89.8284 425.536C90.0237 425.731 90.3403 425.731 90.5355 425.536C90.7308 425.34 90.7308 425.024 90.5355 424.828L87.7071 422L90.5355 419.172C90.7308 418.976 90.7308 418.66 90.5355 418.464C90.3403 418.269 90.0237 418.269 89.8284 418.464L86.6464 421.646ZM141.354 422.354C141.549 422.158 141.549 421.842 141.354 421.646L138.172 418.464C137.976 418.269 137.66 418.269 137.464 418.464C137.269 418.66 137.269 418.976 137.464 419.172L140.293 422L137.464 424.828C137.269 425.024 137.269 425.34 137.464 425.536C137.66 425.731 137.976 425.731 138.172 425.536L141.354 422.354ZM87 422.5L141 422.5L141 421.5L87 421.5L87 422.5Z" fill="black"/>
<path d="M86.6464 485.646C86.4512 485.842 86.4512 486.158 86.6464 486.354L89.8284 489.536C90.0237 489.731 90.3403 489.731 90.5355 489.536C90.7308 489.34 90.7308 489.024 90.5355 488.828L87.7071 486L90.5355 483.172C90.7308 482.976 90.7308 482.66 90.5355 482.464C90.3403 482.269 90.0237 482.269 89.8284 482.464L86.6464 485.646ZM364.354 486.354C364.549 486.158 364.549 485.842 364.354 485.646L361.172 482.464C360.976 482.269 360.66 482.269 360.464 482.464C360.269 482.66 360.269 482.976 360.464 483.172L363.293 486L360.464 488.828C360.269 489.024 360.269 489.34 360.464 489.536C360.66 489.731 360.976 489.731 361.172 489.536L364.354 486.354ZM87 486.5H364V485.5H87V486.5Z" fill="black"/>
<path d="M1078.65 37.6464C1078.45 37.8417 1078.45 38.1583 1078.65 38.3536L1081.83 41.5355C1082.02 41.7308 1082.34 41.7308 1082.54 41.5355C1082.73 41.3403 1082.73 41.0237 1082.54 40.8284L1079.71 38L1082.54 35.1716C1082.73 34.9763 1082.73 34.6597 1082.54 34.4645C1082.34 34.2692 1082.02 34.2692 1081.83 34.4645L1078.65 37.6464ZM1373.1 38.3536C1373.29 38.1583 1373.29 37.8417 1373.1 37.6464L1369.91 34.4645C1369.72 34.2692 1369.4 34.2692 1369.21 34.4645C1369.01 34.6597 1369.01 34.9763 1369.21 35.1716L1372.03 38L1369.21 40.8284C1369.01 41.0237 1369.01 41.3403 1369.21 41.5355C1369.4 41.7308 1369.72 41.7308 1369.91 41.5355L1373.1 38.3536ZM1079 38.5H1372.74V37.5H1079V38.5Z" fill="black"/>
<path d="M418.646 261.646C418.451 261.842 418.451 262.158 418.646 262.354L421.828 265.536C422.024 265.731 422.34 265.731 422.536 265.536C422.731 265.34 422.731 265.024 422.536 264.828L419.707 262L422.536 259.172C422.731 258.976 422.731 258.66 422.536 258.464C422.34 258.269 422.024 258.269 421.828 258.464L418.646 261.646ZM482.354 262.354C482.549 262.158 482.549 261.842 482.354 261.646L479.172 258.464C478.976 258.269 478.66 258.269 478.464 258.464C478.269 258.66 478.269 258.976 478.464 259.172L481.293 262L478.464 264.828C478.269 265.024 478.269 265.34 478.464 265.536C478.66 265.731 478.976 265.731 479.172 265.536L482.354 262.354ZM419 262.5H482V261.5H419V262.5Z" fill="black"/>
<path d="M769.646 165.646C769.451 165.842 769.451 166.158 769.646 166.354L772.828 169.536C773.024 169.731 773.34 169.731 773.536 169.536C773.731 169.34 773.731 169.024 773.536 168.828L770.707 166L773.536 163.172C773.731 162.976 773.731 162.66 773.536 162.464C773.34 162.269 773.024 162.269 772.828 162.464L769.646 165.646ZM822.354 166.354C822.549 166.158 822.549 165.842 822.354 165.646L819.172 162.464C818.976 162.269 818.66 162.269 818.464 162.464C818.269 162.66 818.269 162.976 818.464 163.172L821.293 166L818.464 168.828C818.269 169.024 818.269 169.34 818.464 169.536C818.66 169.731 818.976 169.731 819.172 169.536L822.354 166.354ZM770 166.5L822 166.5L822 165.5L770 165.5L770 166.5Z" fill="black"/>
<path d="M971.646 358.646C971.451 358.842 971.451 359.158 971.646 359.354L974.828 362.536C975.024 362.731 975.34 362.731 975.536 362.536C975.731 362.34 975.731 362.024 975.536 361.828L972.707 359L975.536 356.172C975.731 355.976 975.731 355.66 975.536 355.464C975.34 355.269 975.024 355.269 974.828 355.464L971.646 358.646ZM1024.35 359.354C1024.55 359.158 1024.55 358.842 1024.35 358.646L1021.17 355.464C1020.98 355.269 1020.66 355.269 1020.46 355.464C1020.27 355.66 1020.27 355.976 1020.46 356.172L1023.29 359L1020.46 361.828C1020.27 362.024 1020.27 362.34 1020.46 362.536C1020.66 362.731 1020.98 362.731 1021.17 362.536L1024.35 359.354ZM972 359.5L1024 359.5L1024 358.5L972 358.5L972 359.5Z" fill="black"/>
<path d="M1313.65 262.646C1313.45 262.842 1313.45 263.158 1313.65 263.354L1316.83 266.536C1317.02 266.731 1317.34 266.731 1317.54 266.536C1317.73 266.34 1317.73 266.024 1317.54 265.828L1314.71 263L1317.54 260.172C1317.73 259.976 1317.73 259.66 1317.54 259.464C1317.34 259.269 1317.02 259.269 1316.83 259.464L1313.65 262.646ZM1378.21 263.354C1378.41 263.158 1378.41 262.842 1378.21 262.646L1375.03 259.464C1374.83 259.269 1374.52 259.269 1374.32 259.464C1374.13 259.66 1374.13 259.976 1374.32 260.172L1377.15 263L1374.32 265.828C1374.13 266.024 1374.13 266.34 1374.32 266.536C1374.52 266.731 1374.83 266.731 1375.03 266.536L1378.21 263.354ZM1314 263.5H1377.86V262.5H1314V263.5Z" fill="black"/>
<path d="M99.292 442V440.082H94.476V439.046L98.704 432.228H100.412V439.116H101.868V440.082H100.412V442H99.292ZM95.526 439.116H99.292V433.138H99.236L95.526 439.116ZM106.595 442.168C106.025 442.168 105.526 442.098 105.097 441.958C104.667 441.809 104.308 441.608 104.019 441.356C103.739 441.104 103.524 440.805 103.375 440.46C103.235 440.115 103.165 439.741 103.165 439.34C103.165 438.668 103.347 438.136 103.711 437.744C104.075 437.352 104.555 437.077 105.153 436.918V436.806C104.63 436.629 104.215 436.344 103.907 435.952C103.608 435.551 103.459 435.07 103.459 434.51C103.459 433.763 103.734 433.171 104.285 432.732C104.835 432.284 105.605 432.06 106.595 432.06C107.584 432.06 108.354 432.284 108.905 432.732C109.455 433.171 109.731 433.763 109.731 434.51C109.731 435.07 109.577 435.551 109.269 435.952C108.97 436.344 108.559 436.629 108.037 436.806V436.918C108.634 437.077 109.115 437.352 109.479 437.744C109.843 438.136 110.025 438.668 110.025 439.34C110.025 439.741 109.95 440.115 109.801 440.46C109.661 440.805 109.446 441.104 109.157 441.356C108.867 441.608 108.508 441.809 108.079 441.958C107.659 442.098 107.164 442.168 106.595 442.168ZM106.595 441.174C107.285 441.174 107.827 441.02 108.219 440.712C108.611 440.404 108.807 439.97 108.807 439.41V439.102C108.807 438.542 108.611 438.108 108.219 437.8C107.836 437.492 107.295 437.338 106.595 437.338C105.895 437.338 105.349 437.492 104.957 437.8C104.574 438.108 104.383 438.542 104.383 439.102V439.41C104.383 439.97 104.579 440.404 104.971 440.712C105.363 441.02 105.904 441.174 106.595 441.174ZM106.595 436.386C107.229 436.386 107.71 436.251 108.037 435.98C108.373 435.709 108.541 435.322 108.541 434.818V434.622C108.541 434.118 108.368 433.731 108.023 433.46C107.687 433.189 107.211 433.054 106.595 433.054C105.979 433.054 105.498 433.189 105.153 433.46C104.817 433.731 104.649 434.118 104.649 434.622V434.818C104.649 435.322 104.812 435.709 105.139 435.98C105.475 436.251 105.96 436.386 106.595 436.386ZM120.514 434.776H121.634V435.952H121.69C122.156 435.056 122.898 434.608 123.916 434.608C124.802 434.608 125.493 434.939 125.988 435.602C126.492 436.265 126.744 437.193 126.744 438.388C126.744 439.583 126.492 440.511 125.988 441.174C125.493 441.837 124.802 442.168 123.916 442.168C122.898 442.168 122.156 441.72 121.69 440.824H121.634V444.8H120.514V434.776ZM123.482 441.174C124.135 441.174 124.639 440.978 124.994 440.586C125.358 440.185 125.54 439.657 125.54 439.004V437.772C125.54 437.119 125.358 436.596 124.994 436.204C124.639 435.803 124.135 435.602 123.482 435.602C123.23 435.602 122.992 435.635 122.768 435.7C122.544 435.765 122.348 435.863 122.18 435.994C122.012 436.115 121.876 436.269 121.774 436.456C121.68 436.633 121.634 436.843 121.634 437.086V439.69C121.634 439.933 121.68 440.147 121.774 440.334C121.876 440.511 122.012 440.665 122.18 440.796C122.348 440.917 122.544 441.011 122.768 441.076C122.992 441.141 123.23 441.174 123.482 441.174ZM128.432 442L131.12 438.332L128.502 434.776H129.846L130.938 436.302L131.806 437.506H131.862L132.702 436.302L133.78 434.776H135.068L132.422 438.318L135.138 442H133.794L132.576 440.306L131.75 439.158H131.694L130.896 440.306L129.72 442H128.432Z" fill="black"/>
<path d="M1215.52 26H1208.99V24.796L1212.26 21.856C1212.73 21.4267 1213.12 20.988 1213.43 20.54C1213.74 20.0827 1213.89 19.602 1213.89 19.098V18.93C1213.89 18.342 1213.74 17.8893 1213.43 17.572C1213.12 17.2453 1212.67 17.082 1212.06 17.082C1211.46 17.082 1211 17.236 1210.67 17.544C1210.36 17.8427 1210.12 18.244 1209.96 18.748L1208.91 18.356C1209 18.0667 1209.13 17.7867 1209.29 17.516C1209.46 17.236 1209.67 16.9887 1209.92 16.774C1210.17 16.5593 1210.47 16.3867 1210.83 16.256C1211.19 16.1253 1211.61 16.06 1212.09 16.06C1212.57 16.06 1213 16.13 1213.38 16.27C1213.76 16.41 1214.08 16.606 1214.33 16.858C1214.59 17.11 1214.79 17.4087 1214.92 17.754C1215.06 18.0993 1215.13 18.4773 1215.13 18.888C1215.13 19.2613 1215.07 19.6113 1214.96 19.938C1214.86 20.2647 1214.71 20.5773 1214.51 20.876C1214.32 21.1747 1214.09 21.4687 1213.82 21.758C1213.56 22.038 1213.27 22.318 1212.94 22.598L1210.21 24.978H1215.52V26ZM1220.61 26.168C1220.1 26.168 1219.63 26.084 1219.22 25.916C1218.81 25.7387 1218.46 25.4913 1218.17 25.174C1217.89 24.8473 1217.67 24.4507 1217.51 23.984C1217.37 23.5173 1217.29 22.9947 1217.29 22.416C1217.29 21.688 1217.4 21.0067 1217.61 20.372C1217.84 19.728 1218.12 19.1447 1218.45 18.622C1218.8 18.09 1219.18 17.6233 1219.6 17.222C1220.02 16.8113 1220.43 16.48 1220.83 16.228H1222.34C1221.81 16.6107 1221.34 16.984 1220.92 17.348C1220.51 17.712 1220.14 18.0947 1219.82 18.496C1219.51 18.888 1219.24 19.3127 1219.03 19.77C1218.81 20.218 1218.63 20.7267 1218.49 21.296L1218.56 21.324C1218.8 20.9227 1219.11 20.5913 1219.49 20.33C1219.87 20.0593 1220.37 19.924 1220.97 19.924C1221.4 19.924 1221.79 19.994 1222.15 20.134C1222.5 20.274 1222.81 20.4747 1223.07 20.736C1223.33 20.9973 1223.53 21.3147 1223.67 21.688C1223.82 22.0613 1223.9 22.4767 1223.9 22.934C1223.9 23.41 1223.82 23.8487 1223.66 24.25C1223.5 24.642 1223.28 24.9827 1222.99 25.272C1222.71 25.552 1222.36 25.7713 1221.95 25.93C1221.55 26.0887 1221.1 26.168 1220.61 26.168ZM1220.59 25.174C1221.27 25.174 1221.78 24.992 1222.15 24.628C1222.52 24.264 1222.71 23.7507 1222.71 23.088V22.976C1222.71 22.3133 1222.52 21.8 1222.15 21.436C1221.78 21.072 1221.27 20.89 1220.59 20.89C1219.92 20.89 1219.4 21.072 1219.03 21.436C1218.66 21.8 1218.48 22.3133 1218.48 22.976V23.088C1218.48 23.7507 1218.66 24.264 1219.03 24.628C1219.4 24.992 1219.92 25.174 1220.59 25.174ZM1228.99 26.168C1228.39 26.168 1227.88 26.056 1227.45 25.832C1227.02 25.5987 1226.67 25.2673 1226.39 24.838C1226.11 24.4087 1225.9 23.8813 1225.77 23.256C1225.64 22.6307 1225.57 21.9167 1225.57 21.114C1225.57 20.3207 1225.64 19.6113 1225.77 18.986C1225.9 18.3513 1226.11 17.8193 1226.39 17.39C1226.67 16.9607 1227.02 16.634 1227.45 16.41C1227.88 16.1767 1228.39 16.06 1228.99 16.06C1229.59 16.06 1230.1 16.1767 1230.53 16.41C1230.96 16.634 1231.31 16.9607 1231.59 17.39C1231.87 17.8193 1232.08 18.3513 1232.21 18.986C1232.34 19.6113 1232.41 20.3207 1232.41 21.114C1232.41 21.9167 1232.34 22.6307 1232.21 23.256C1232.08 23.8813 1231.87 24.4087 1231.59 24.838C1231.31 25.2673 1230.96 25.5987 1230.53 25.832C1230.1 26.056 1229.59 26.168 1228.99 26.168ZM1228.99 25.146C1229.38 25.146 1229.72 25.0713 1230 24.922C1230.28 24.7633 1230.5 24.544 1230.67 24.264C1230.85 23.984 1230.98 23.648 1231.06 23.256C1231.15 22.8547 1231.19 22.4067 1231.19 21.912V20.316C1231.19 19.8307 1231.15 19.3873 1231.06 18.986C1230.98 18.5847 1230.85 18.244 1230.67 17.964C1230.5 17.684 1230.28 17.4693 1230 17.32C1229.72 17.1613 1229.38 17.082 1228.99 17.082C1228.6 17.082 1228.26 17.1613 1227.98 17.32C1227.7 17.4693 1227.47 17.684 1227.3 17.964C1227.13 18.244 1227 18.5847 1226.92 18.986C1226.83 19.3873 1226.79 19.8307 1226.79 20.316V21.912C1226.79 22.4067 1226.83 22.8547 1226.92 23.256C1227 23.648 1227.13 23.984 1227.3 24.264C1227.47 24.544 1227.7 24.7633 1227.98 24.922C1228.26 25.0713 1228.6 25.146 1228.99 25.146ZM1228.99 21.94C1228.66 21.94 1228.43 21.8747 1228.3 21.744C1228.18 21.6133 1228.12 21.4547 1228.12 21.268V20.96C1228.12 20.7733 1228.18 20.6147 1228.3 20.484C1228.43 20.3533 1228.66 20.288 1228.99 20.288C1229.32 20.288 1229.54 20.3533 1229.66 20.484C1229.79 20.6147 1229.86 20.7733 1229.86 20.96V21.268C1229.86 21.4547 1229.79 21.6133 1229.66 21.744C1229.54 21.8747 1229.32 21.94 1228.99 21.94ZM1242.91 18.776H1244.03V19.952H1244.08C1244.55 19.056 1245.29 18.608 1246.31 18.608C1247.2 18.608 1247.89 18.9393 1248.38 19.602C1248.89 20.2647 1249.14 21.1933 1249.14 22.388C1249.14 23.5827 1248.89 24.5113 1248.38 25.174C1247.89 25.8367 1247.2 26.168 1246.31 26.168C1245.29 26.168 1244.55 25.72 1244.08 24.824H1244.03V28.8H1242.91V18.776ZM1245.88 25.174C1246.53 25.174 1247.03 24.978 1247.39 24.586C1247.75 24.1847 1247.93 23.6573 1247.93 23.004V21.772C1247.93 21.1187 1247.75 20.596 1247.39 20.204C1247.03 19.8027 1246.53 19.602 1245.88 19.602C1245.62 19.602 1245.39 19.6347 1245.16 19.7C1244.94 19.7653 1244.74 19.8633 1244.57 19.994C1244.41 20.1153 1244.27 20.2693 1244.17 20.456C1244.07 20.6333 1244.03 20.8433 1244.03 21.086V23.69C1244.03 23.9327 1244.07 24.1473 1244.17 24.334C1244.27 24.5113 1244.41 24.6653 1244.57 24.796C1244.74 24.9173 1244.94 25.0107 1245.16 25.076C1245.39 25.1413 1245.62 25.174 1245.88 25.174ZM1250.83 26L1253.51 22.332L1250.9 18.776H1252.24L1253.33 20.302L1254.2 21.506H1254.26L1255.1 20.302L1256.17 18.776H1257.46L1254.82 22.318L1257.53 26H1256.19L1254.97 24.306L1254.14 23.158H1254.09L1253.29 24.306L1252.11 26H1250.83Z" fill="black"/>
<path d="M436.292 282V280.082H431.476V279.046L435.704 272.228H437.412V279.116H438.868V280.082H437.412V282H436.292ZM432.526 279.116H436.292V273.138H436.236L432.526 279.116ZM443.595 282.168C443.025 282.168 442.526 282.098 442.097 281.958C441.667 281.809 441.308 281.608 441.019 281.356C440.739 281.104 440.524 280.805 440.375 280.46C440.235 280.115 440.165 279.741 440.165 279.34C440.165 278.668 440.347 278.136 440.711 277.744C441.075 277.352 441.555 277.077 442.153 276.918V276.806C441.63 276.629 441.215 276.344 440.907 275.952C440.608 275.551 440.459 275.07 440.459 274.51C440.459 273.763 440.734 273.171 441.285 272.732C441.835 272.284 442.605 272.06 443.595 272.06C444.584 272.06 445.354 272.284 445.905 272.732C446.455 273.171 446.731 273.763 446.731 274.51C446.731 275.07 446.577 275.551 446.269 275.952C445.97 276.344 445.559 276.629 445.037 276.806V276.918C445.634 277.077 446.115 277.352 446.479 277.744C446.843 278.136 447.025 278.668 447.025 279.34C447.025 279.741 446.95 280.115 446.801 280.46C446.661 280.805 446.446 281.104 446.157 281.356C445.867 281.608 445.508 281.809 445.079 281.958C444.659 282.098 444.164 282.168 443.595 282.168ZM443.595 281.174C444.285 281.174 444.827 281.02 445.219 280.712C445.611 280.404 445.807 279.97 445.807 279.41V279.102C445.807 278.542 445.611 278.108 445.219 277.8C444.836 277.492 444.295 277.338 443.595 277.338C442.895 277.338 442.349 277.492 441.957 277.8C441.574 278.108 441.383 278.542 441.383 279.102V279.41C441.383 279.97 441.579 280.404 441.971 280.712C442.363 281.02 442.904 281.174 443.595 281.174ZM443.595 276.386C444.229 276.386 444.71 276.251 445.037 275.98C445.373 275.709 445.541 275.322 445.541 274.818V274.622C445.541 274.118 445.368 273.731 445.023 273.46C444.687 273.189 444.211 273.054 443.595 273.054C442.979 273.054 442.498 273.189 442.153 273.46C441.817 273.731 441.649 274.118 441.649 274.622V274.818C441.649 275.322 441.812 275.709 442.139 275.98C442.475 276.251 442.96 276.386 443.595 276.386ZM457.514 274.776H458.634V275.952H458.69C459.156 275.056 459.898 274.608 460.916 274.608C461.802 274.608 462.493 274.939 462.988 275.602C463.492 276.265 463.744 277.193 463.744 278.388C463.744 279.583 463.492 280.511 462.988 281.174C462.493 281.837 461.802 282.168 460.916 282.168C459.898 282.168 459.156 281.72 458.69 280.824H458.634V284.8H457.514V274.776ZM460.482 281.174C461.135 281.174 461.639 280.978 461.994 280.586C462.358 280.185 462.54 279.657 462.54 279.004V277.772C462.54 277.119 462.358 276.596 461.994 276.204C461.639 275.803 461.135 275.602 460.482 275.602C460.23 275.602 459.992 275.635 459.768 275.7C459.544 275.765 459.348 275.863 459.18 275.994C459.012 276.115 458.876 276.269 458.774 276.456C458.68 276.633 458.634 276.843 458.634 277.086V279.69C458.634 279.933 458.68 280.147 458.774 280.334C458.876 280.511 459.012 280.665 459.18 280.796C459.348 280.917 459.544 281.011 459.768 281.076C459.992 281.141 460.23 281.174 460.482 281.174ZM465.432 282L468.12 278.332L465.502 274.776H466.846L467.938 276.302L468.806 277.506H468.862L469.702 276.302L470.78 274.776H472.068L469.422 278.318L472.138 282H470.794L469.576 280.306L468.75 279.158H468.694L467.896 280.306L466.72 282H465.432Z" fill="black"/>
<path d="M780.292 184V182.082H775.476V181.046L779.704 174.228H781.412V181.116H782.868V182.082H781.412V184H780.292ZM776.526 181.116H780.292V175.138H780.236L776.526 181.116ZM787.595 184.168C787.025 184.168 786.526 184.098 786.097 183.958C785.667 183.809 785.308 183.608 785.019 183.356C784.739 183.104 784.524 182.805 784.375 182.46C784.235 182.115 784.165 181.741 784.165 181.34C784.165 180.668 784.347 180.136 784.711 179.744C785.075 179.352 785.555 179.077 786.153 178.918V178.806C785.63 178.629 785.215 178.344 784.907 177.952C784.608 177.551 784.459 177.07 784.459 176.51C784.459 175.763 784.734 175.171 785.285 174.732C785.835 174.284 786.605 174.06 787.595 174.06C788.584 174.06 789.354 174.284 789.905 174.732C790.455 175.171 790.731 175.763 790.731 176.51C790.731 177.07 790.577 177.551 790.269 177.952C789.97 178.344 789.559 178.629 789.037 178.806V178.918C789.634 179.077 790.115 179.352 790.479 179.744C790.843 180.136 791.025 180.668 791.025 181.34C791.025 181.741 790.95 182.115 790.801 182.46C790.661 182.805 790.446 183.104 790.157 183.356C789.867 183.608 789.508 183.809 789.079 183.958C788.659 184.098 788.164 184.168 787.595 184.168ZM787.595 183.174C788.285 183.174 788.827 183.02 789.219 182.712C789.611 182.404 789.807 181.97 789.807 181.41V181.102C789.807 180.542 789.611 180.108 789.219 179.8C788.836 179.492 788.295 179.338 787.595 179.338C786.895 179.338 786.349 179.492 785.957 179.8C785.574 180.108 785.383 180.542 785.383 181.102V181.41C785.383 181.97 785.579 182.404 785.971 182.712C786.363 183.02 786.904 183.174 787.595 183.174ZM787.595 178.386C788.229 178.386 788.71 178.251 789.037 177.98C789.373 177.709 789.541 177.322 789.541 176.818V176.622C789.541 176.118 789.368 175.731 789.023 175.46C788.687 175.189 788.211 175.054 787.595 175.054C786.979 175.054 786.498 175.189 786.153 175.46C785.817 175.731 785.649 176.118 785.649 176.622V176.818C785.649 177.322 785.812 177.709 786.139 177.98C786.475 178.251 786.96 178.386 787.595 178.386ZM801.514 176.776H802.634V177.952H802.69C803.156 177.056 803.898 176.608 804.916 176.608C805.802 176.608 806.493 176.939 806.988 177.602C807.492 178.265 807.744 179.193 807.744 180.388C807.744 181.583 807.492 182.511 806.988 183.174C806.493 183.837 805.802 184.168 804.916 184.168C803.898 184.168 803.156 183.72 802.69 182.824H802.634V186.8H801.514V176.776ZM804.482 183.174C805.135 183.174 805.639 182.978 805.994 182.586C806.358 182.185 806.54 181.657 806.54 181.004V179.772C806.54 179.119 806.358 178.596 805.994 178.204C805.639 177.803 805.135 177.602 804.482 177.602C804.23 177.602 803.992 177.635 803.768 177.7C803.544 177.765 803.348 177.863 803.18 177.994C803.012 178.115 802.876 178.269 802.774 178.456C802.68 178.633 802.634 178.843 802.634 179.086V181.69C802.634 181.933 802.68 182.147 802.774 182.334C802.876 182.511 803.012 182.665 803.18 182.796C803.348 182.917 803.544 183.011 803.768 183.076C803.992 183.141 804.23 183.174 804.482 183.174ZM809.432 184L812.12 180.332L809.502 176.776H810.846L811.938 178.302L812.806 179.506H812.862L813.702 178.302L814.78 176.776H816.068L813.422 180.318L816.138 184H814.794L813.576 182.306L812.75 181.158H812.694L811.896 182.306L810.72 184H809.432Z" fill="black"/>
<path d="M984.292 378V376.082H979.476V375.046L983.704 368.228H985.412V375.116H986.868V376.082H985.412V378H984.292ZM980.526 375.116H984.292V369.138H984.236L980.526 375.116ZM991.595 378.168C991.025 378.168 990.526 378.098 990.097 377.958C989.667 377.809 989.308 377.608 989.019 377.356C988.739 377.104 988.524 376.805 988.375 376.46C988.235 376.115 988.165 375.741 988.165 375.34C988.165 374.668 988.347 374.136 988.711 373.744C989.075 373.352 989.555 373.077 990.153 372.918V372.806C989.63 372.629 989.215 372.344 988.907 371.952C988.608 371.551 988.459 371.07 988.459 370.51C988.459 369.763 988.734 369.171 989.285 368.732C989.835 368.284 990.605 368.06 991.595 368.06C992.584 368.06 993.354 368.284 993.905 368.732C994.455 369.171 994.731 369.763 994.731 370.51C994.731 371.07 994.577 371.551 994.269 371.952C993.97 372.344 993.559 372.629 993.037 372.806V372.918C993.634 373.077 994.115 373.352 994.479 373.744C994.843 374.136 995.025 374.668 995.025 375.34C995.025 375.741 994.95 376.115 994.801 376.46C994.661 376.805 994.446 377.104 994.157 377.356C993.867 377.608 993.508 377.809 993.079 377.958C992.659 378.098 992.164 378.168 991.595 378.168ZM991.595 377.174C992.285 377.174 992.827 377.02 993.219 376.712C993.611 376.404 993.807 375.97 993.807 375.41V375.102C993.807 374.542 993.611 374.108 993.219 373.8C992.836 373.492 992.295 373.338 991.595 373.338C990.895 373.338 990.349 373.492 989.957 373.8C989.574 374.108 989.383 374.542 989.383 375.102V375.41C989.383 375.97 989.579 376.404 989.971 376.712C990.363 377.02 990.904 377.174 991.595 377.174ZM991.595 372.386C992.229 372.386 992.71 372.251 993.037 371.98C993.373 371.709 993.541 371.322 993.541 370.818V370.622C993.541 370.118 993.368 369.731 993.023 369.46C992.687 369.189 992.211 369.054 991.595 369.054C990.979 369.054 990.498 369.189 990.153 369.46C989.817 369.731 989.649 370.118 989.649 370.622V370.818C989.649 371.322 989.812 371.709 990.139 371.98C990.475 372.251 990.96 372.386 991.595 372.386ZM1005.51 370.776H1006.63V371.952H1006.69C1007.16 371.056 1007.9 370.608 1008.92 370.608C1009.8 370.608 1010.49 370.939 1010.99 371.602C1011.49 372.265 1011.74 373.193 1011.74 374.388C1011.74 375.583 1011.49 376.511 1010.99 377.174C1010.49 377.837 1009.8 378.168 1008.92 378.168C1007.9 378.168 1007.16 377.72 1006.69 376.824H1006.63V380.8H1005.51V370.776ZM1008.48 377.174C1009.13 377.174 1009.64 376.978 1009.99 376.586C1010.36 376.185 1010.54 375.657 1010.54 375.004V373.772C1010.54 373.119 1010.36 372.596 1009.99 372.204C1009.64 371.803 1009.13 371.602 1008.48 371.602C1008.23 371.602 1007.99 371.635 1007.77 371.7C1007.54 371.765 1007.35 371.863 1007.18 371.994C1007.01 372.115 1006.88 372.269 1006.77 372.456C1006.68 372.633 1006.63 372.843 1006.63 373.086V375.69C1006.63 375.933 1006.68 376.147 1006.77 376.334C1006.88 376.511 1007.01 376.665 1007.18 376.796C1007.35 376.917 1007.54 377.011 1007.77 377.076C1007.99 377.141 1008.23 377.174 1008.48 377.174ZM1013.43 378L1016.12 374.332L1013.5 370.776H1014.85L1015.94 372.302L1016.81 373.506H1016.86L1017.7 372.302L1018.78 370.776H1020.07L1017.42 374.318L1020.14 378H1018.79L1017.58 376.306L1016.75 375.158H1016.69L1015.9 376.306L1014.72 378H1013.43Z" fill="black"/>
<path d="M1330.29 279V277.082H1325.48V276.046L1329.7 269.228H1331.41V276.116H1332.87V277.082H1331.41V279H1330.29ZM1326.53 276.116H1330.29V270.138H1330.24L1326.53 276.116ZM1337.59 279.168C1337.03 279.168 1336.53 279.098 1336.1 278.958C1335.67 278.809 1335.31 278.608 1335.02 278.356C1334.74 278.104 1334.52 277.805 1334.37 277.46C1334.23 277.115 1334.16 276.741 1334.16 276.34C1334.16 275.668 1334.35 275.136 1334.71 274.744C1335.07 274.352 1335.56 274.077 1336.15 273.918V273.806C1335.63 273.629 1335.21 273.344 1334.91 272.952C1334.61 272.551 1334.46 272.07 1334.46 271.51C1334.46 270.763 1334.73 270.171 1335.28 269.732C1335.84 269.284 1336.61 269.06 1337.59 269.06C1338.58 269.06 1339.35 269.284 1339.9 269.732C1340.46 270.171 1340.73 270.763 1340.73 271.51C1340.73 272.07 1340.58 272.551 1340.27 272.952C1339.97 273.344 1339.56 273.629 1339.04 273.806V273.918C1339.63 274.077 1340.11 274.352 1340.48 274.744C1340.84 275.136 1341.02 275.668 1341.02 276.34C1341.02 276.741 1340.95 277.115 1340.8 277.46C1340.66 277.805 1340.45 278.104 1340.16 278.356C1339.87 278.608 1339.51 278.809 1339.08 278.958C1338.66 279.098 1338.16 279.168 1337.59 279.168ZM1337.59 278.174C1338.29 278.174 1338.83 278.02 1339.22 277.712C1339.61 277.404 1339.81 276.97 1339.81 276.41V276.102C1339.81 275.542 1339.61 275.108 1339.22 274.8C1338.84 274.492 1338.29 274.338 1337.59 274.338C1336.89 274.338 1336.35 274.492 1335.96 274.8C1335.57 275.108 1335.38 275.542 1335.38 276.102V276.41C1335.38 276.97 1335.58 277.404 1335.97 277.712C1336.36 278.02 1336.9 278.174 1337.59 278.174ZM1337.59 273.386C1338.23 273.386 1338.71 273.251 1339.04 272.98C1339.37 272.709 1339.54 272.322 1339.54 271.818V271.622C1339.54 271.118 1339.37 270.731 1339.02 270.46C1338.69 270.189 1338.21 270.054 1337.59 270.054C1336.98 270.054 1336.5 270.189 1336.15 270.46C1335.82 270.731 1335.65 271.118 1335.65 271.622V271.818C1335.65 272.322 1335.81 272.709 1336.14 272.98C1336.47 273.251 1336.96 273.386 1337.59 273.386ZM1351.51 271.776H1352.63V272.952H1352.69C1353.16 272.056 1353.9 271.608 1354.92 271.608C1355.8 271.608 1356.49 271.939 1356.99 272.602C1357.49 273.265 1357.74 274.193 1357.74 275.388C1357.74 276.583 1357.49 277.511 1356.99 278.174C1356.49 278.837 1355.8 279.168 1354.92 279.168C1353.9 279.168 1353.16 278.72 1352.69 277.824H1352.63V281.8H1351.51V271.776ZM1354.48 278.174C1355.13 278.174 1355.64 277.978 1355.99 277.586C1356.36 277.185 1356.54 276.657 1356.54 276.004V274.772C1356.54 274.119 1356.36 273.596 1355.99 273.204C1355.64 272.803 1355.13 272.602 1354.48 272.602C1354.23 272.602 1353.99 272.635 1353.77 272.7C1353.54 272.765 1353.35 272.863 1353.18 272.994C1353.01 273.115 1352.88 273.269 1352.77 273.456C1352.68 273.633 1352.63 273.843 1352.63 274.086V276.69C1352.63 276.933 1352.68 277.147 1352.77 277.334C1352.88 277.511 1353.01 277.665 1353.18 277.796C1353.35 277.917 1353.54 278.011 1353.77 278.076C1353.99 278.141 1354.23 278.174 1354.48 278.174ZM1359.43 279L1362.12 275.332L1359.5 271.776H1360.85L1361.94 273.302L1362.81 274.506H1362.86L1363.7 273.302L1364.78 271.776H1366.07L1363.42 275.318L1366.14 279H1364.79L1363.58 277.306L1362.75 276.158H1362.69L1361.9 277.306L1360.72 279H1359.43Z" fill="black"/>
</g>
<defs>
<clipPath id="clip0_579_707">
<rect width="1440" height="503" fill="white"/>
</clipPath>
</defs>
</svg>
