<svg width="1440" height="661" viewBox="0 0 1440 661" fill="none" xmlns="http://www.w3.org/2000/svg">
<path d="M74.6464 479.646C74.4512 479.842 74.4512 480.158 74.6464 480.354L77.8284 483.536C78.0237 483.731 78.3403 483.731 78.5355 483.536C78.7308 483.34 78.7308 483.024 78.5355 482.828L75.7071 480L78.5355 477.172C78.7308 476.976 78.7308 476.66 78.5355 476.464C78.3403 476.269 78.0237 476.269 77.8284 476.464L74.6464 479.646ZM129.354 480.354C129.549 480.158 129.549 479.842 129.354 479.646L126.172 476.464C125.976 476.269 125.66 476.269 125.464 476.464C125.269 476.66 125.269 476.976 125.464 477.172L128.293 480L125.464 482.828C125.269 483.024 125.269 483.34 125.464 483.536C125.66 483.731 125.976 483.731 126.172 483.536L129.354 480.354ZM75 480.5L129 480.5L129 479.5L75 479.5L75 480.5Z" fill="black"/>
<path d="M74.6464 543.646C74.4512 543.842 74.4512 544.158 74.6464 544.354L77.8284 547.536C78.0237 547.731 78.3403 547.731 78.5355 547.536C78.7308 547.34 78.7308 547.024 78.5355 546.828L75.7071 544L78.5355 541.172C78.7308 540.976 78.7308 540.66 78.5355 540.464C78.3403 540.269 78.0237 540.269 77.8284 540.464L74.6464 543.646ZM352.354 544.354C352.549 544.158 352.549 543.842 352.354 543.646L349.172 540.464C348.976 540.269 348.66 540.269 348.464 540.464C348.269 540.66 348.269 540.976 348.464 541.172L351.293 544L348.464 546.828C348.269 547.024 348.269 547.34 348.464 547.536C348.66 547.731 348.976 547.731 349.172 547.536L352.354 544.354ZM75 544.5H352V543.5H75V544.5Z" fill="black"/>
<path d="M1066.65 95.6464C1066.45 95.8417 1066.45 96.1583 1066.65 96.3536L1069.83 99.5355C1070.02 99.7308 1070.34 99.7308 1070.54 99.5355C1070.73 99.3403 1070.73 99.0237 1070.54 98.8284L1067.71 96L1070.54 93.1716C1070.73 92.9763 1070.73 92.6597 1070.54 92.4645C1070.34 92.2692 1070.02 92.2692 1069.83 92.4645L1066.65 95.6464ZM1361.1 96.3536C1361.29 96.1583 1361.29 95.8417 1361.1 95.6464L1357.91 92.4645C1357.72 92.2692 1357.4 92.2692 1357.21 92.4645C1357.01 92.6597 1357.01 92.9763 1357.21 93.1716L1360.03 96L1357.21 98.8284C1357.01 99.0237 1357.01 99.3403 1357.21 99.5355C1357.4 99.7308 1357.72 99.7308 1357.91 99.5355L1361.1 96.3536ZM1067 96.5H1360.74V95.5H1067V96.5Z" fill="black"/>
<path d="M406.646 319.646C406.451 319.842 406.451 320.158 406.646 320.354L409.828 323.536C410.024 323.731 410.34 323.731 410.536 323.536C410.731 323.34 410.731 323.024 410.536 322.828L407.707 320L410.536 317.172C410.731 316.976 410.731 316.66 410.536 316.464C410.34 316.269 410.024 316.269 409.828 316.464L406.646 319.646ZM470.354 320.354C470.549 320.158 470.549 319.842 470.354 319.646L467.172 316.464C466.976 316.269 466.66 316.269 466.464 316.464C466.269 316.66 466.269 316.976 466.464 317.172L469.293 320L466.464 322.828C466.269 323.024 466.269 323.34 466.464 323.536C466.66 323.731 466.976 323.731 467.172 323.536L470.354 320.354ZM407 320.5H470V319.5H407V320.5Z" fill="black"/>
<path d="M757.646 223.646C757.451 223.842 757.451 224.158 757.646 224.354L760.828 227.536C761.024 227.731 761.34 227.731 761.536 227.536C761.731 227.34 761.731 227.024 761.536 226.828L758.707 224L761.536 221.172C761.731 220.976 761.731 220.66 761.536 220.464C761.34 220.269 761.024 220.269 760.828 220.464L757.646 223.646ZM810.354 224.354C810.549 224.158 810.549 223.842 810.354 223.646L807.172 220.464C806.976 220.269 806.66 220.269 806.464 220.464C806.269 220.66 806.269 220.976 806.464 221.172L809.293 224L806.464 226.828C806.269 227.024 806.269 227.34 806.464 227.536C806.66 227.731 806.976 227.731 807.172 227.536L810.354 224.354ZM758 224.5L810 224.5L810 223.5L758 223.5L758 224.5Z" fill="black"/>
<path d="M959.646 416.646C959.451 416.842 959.451 417.158 959.646 417.354L962.828 420.536C963.024 420.731 963.34 420.731 963.536 420.536C963.731 420.34 963.731 420.024 963.536 419.828L960.707 417L963.536 414.172C963.731 413.976 963.731 413.66 963.536 413.464C963.34 413.269 963.024 413.269 962.828 413.464L959.646 416.646ZM1012.35 417.354C1012.55 417.158 1012.55 416.842 1012.35 416.646L1009.17 413.464C1008.98 413.269 1008.66 413.269 1008.46 413.464C1008.27 413.66 1008.27 413.976 1008.46 414.172L1011.29 417L1008.46 419.828C1008.27 420.024 1008.27 420.34 1008.46 420.536C1008.66 420.731 1008.98 420.731 1009.17 420.536L1012.35 417.354ZM960 417.5L1012 417.5L1012 416.5L960 416.5L960 417.5Z" fill="black"/>
<path d="M1301.65 320.646C1301.45 320.842 1301.45 321.158 1301.65 321.354L1304.83 324.536C1305.02 324.731 1305.34 324.731 1305.54 324.536C1305.73 324.34 1305.73 324.024 1305.54 323.828L1302.71 321L1305.54 318.172C1305.73 317.976 1305.73 317.66 1305.54 317.464C1305.34 317.269 1305.02 317.269 1304.83 317.464L1301.65 320.646ZM1366.21 321.354C1366.41 321.158 1366.41 320.842 1366.21 320.646L1363.03 317.464C1362.83 317.269 1362.52 317.269 1362.32 317.464C1362.13 317.66 1362.13 317.976 1362.32 318.172L1365.15 321L1362.32 323.828C1362.13 324.024 1362.13 324.34 1362.32 324.536C1362.52 324.731 1362.83 324.731 1363.03 324.536L1366.21 321.354ZM1302 321.5H1365.86V320.5H1302V321.5Z" fill="black"/>
<path d="M87.292 500V498.082H82.476V497.046L86.704 490.228H88.412V497.116H89.868V498.082H88.412V500H87.292ZM83.526 497.116H87.292V491.138H87.236L83.526 497.116ZM94.5945 500.168C94.0252 500.168 93.5259 500.098 93.0965 499.958C92.6672 499.809 92.3079 499.608 92.0185 499.356C91.7385 499.104 91.5239 498.805 91.3745 498.46C91.2345 498.115 91.1645 497.741 91.1645 497.34C91.1645 496.668 91.3465 496.136 91.7105 495.744C92.0745 495.352 92.5552 495.077 93.1525 494.918V494.806C92.6299 494.629 92.2145 494.344 91.9065 493.952C91.6079 493.551 91.4585 493.07 91.4585 492.51C91.4585 491.763 91.7339 491.171 92.2845 490.732C92.8352 490.284 93.6052 490.06 94.5945 490.06C95.5839 490.06 96.3539 490.284 96.9045 490.732C97.4552 491.171 97.7305 491.763 97.7305 492.51C97.7305 493.07 97.5765 493.551 97.2685 493.952C96.9699 494.344 96.5592 494.629 96.0365 494.806V494.918C96.6339 495.077 97.1145 495.352 97.4785 495.744C97.8425 496.136 98.0245 496.668 98.0245 497.34C98.0245 497.741 97.9499 498.115 97.8005 498.46C97.6605 498.805 97.4459 499.104 97.1565 499.356C96.8672 499.608 96.5079 499.809 96.0785 499.958C95.6585 500.098 95.1639 500.168 94.5945 500.168ZM94.5945 499.174C95.2852 499.174 95.8265 499.02 96.2185 498.712C96.6105 498.404 96.8065 497.97 96.8065 497.41V497.102C96.8065 496.542 96.6105 496.108 96.2185 495.8C95.8359 495.492 95.2945 495.338 94.5945 495.338C93.8945 495.338 93.3485 495.492 92.9565 495.8C92.5739 496.108 92.3825 496.542 92.3825 497.102V497.41C92.3825 497.97 92.5785 498.404 92.9705 498.712C93.3625 499.02 93.9039 499.174 94.5945 499.174ZM94.5945 494.386C95.2292 494.386 95.7099 494.251 96.0365 493.98C96.3725 493.709 96.5405 493.322 96.5405 492.818V492.622C96.5405 492.118 96.3679 491.731 96.0225 491.46C95.6865 491.189 95.2105 491.054 94.5945 491.054C93.9785 491.054 93.4979 491.189 93.1525 491.46C92.8165 491.731 92.6485 492.118 92.6485 492.622V492.818C92.6485 493.322 92.8119 493.709 93.1385 493.98C93.4745 494.251 93.9599 494.386 94.5945 494.386ZM108.514 492.776H109.634V493.952H109.69C110.156 493.056 110.898 492.608 111.916 492.608C112.802 492.608 113.493 492.939 113.988 493.602C114.492 494.265 114.744 495.193 114.744 496.388C114.744 497.583 114.492 498.511 113.988 499.174C113.493 499.837 112.802 500.168 111.916 500.168C110.898 500.168 110.156 499.72 109.69 498.824H109.634V502.8H108.514V492.776ZM111.482 499.174C112.135 499.174 112.639 498.978 112.994 498.586C113.358 498.185 113.54 497.657 113.54 497.004V495.772C113.54 495.119 113.358 494.596 112.994 494.204C112.639 493.803 112.135 493.602 111.482 493.602C111.23 493.602 110.992 493.635 110.768 493.7C110.544 493.765 110.348 493.863 110.18 493.994C110.012 494.115 109.876 494.269 109.774 494.456C109.68 494.633 109.634 494.843 109.634 495.086V497.69C109.634 497.933 109.68 498.147 109.774 498.334C109.876 498.511 110.012 498.665 110.18 498.796C110.348 498.917 110.544 499.011 110.768 499.076C110.992 499.141 111.23 499.174 111.482 499.174ZM116.432 500L119.12 496.332L116.502 492.776H117.846L118.938 494.302L119.806 495.506H119.862L120.702 494.302L121.78 492.776H123.068L120.422 496.318L123.138 500H121.794L120.576 498.306L119.75 497.158H119.694L118.896 498.306L117.72 500H116.432Z" fill="black"/>
<path d="M201.518 586H194.994V584.796L198.256 581.856C198.732 581.427 199.124 580.988 199.432 580.54C199.74 580.083 199.894 579.602 199.894 579.098V578.93C199.894 578.342 199.74 577.889 199.432 577.572C199.124 577.245 198.667 577.082 198.06 577.082C197.463 577.082 197.001 577.236 196.674 577.544C196.357 577.843 196.119 578.244 195.96 578.748L194.91 578.356C195.003 578.067 195.129 577.787 195.288 577.516C195.456 577.236 195.666 576.989 195.918 576.774C196.17 576.559 196.473 576.387 196.828 576.256C197.192 576.125 197.612 576.06 198.088 576.06C198.573 576.06 199.003 576.13 199.376 576.27C199.759 576.41 200.076 576.606 200.328 576.858C200.589 577.11 200.785 577.409 200.916 577.754C201.056 578.099 201.126 578.477 201.126 578.888C201.126 579.261 201.07 579.611 200.958 579.938C200.855 580.265 200.706 580.577 200.51 580.876C200.323 581.175 200.095 581.469 199.824 581.758C199.563 582.038 199.269 582.318 198.942 582.598L196.212 584.978H201.518V586ZM206.609 586.168C206.095 586.168 205.633 586.084 205.223 585.916C204.812 585.739 204.462 585.491 204.173 585.174C203.893 584.847 203.673 584.451 203.515 583.984C203.365 583.517 203.291 582.995 203.291 582.416C203.291 581.688 203.398 581.007 203.613 580.372C203.837 579.728 204.117 579.145 204.453 578.622C204.798 578.09 205.181 577.623 205.601 577.222C206.021 576.811 206.431 576.48 206.833 576.228H208.345C207.813 576.611 207.337 576.984 206.917 577.348C206.506 577.712 206.142 578.095 205.825 578.496C205.507 578.888 205.241 579.313 205.027 579.77C204.812 580.218 204.635 580.727 204.495 581.296L204.565 581.324C204.798 580.923 205.106 580.591 205.489 580.33C205.871 580.059 206.366 579.924 206.973 579.924C207.402 579.924 207.794 579.994 208.149 580.134C208.503 580.274 208.811 580.475 209.073 580.736C209.334 580.997 209.535 581.315 209.675 581.688C209.824 582.061 209.899 582.477 209.899 582.934C209.899 583.41 209.819 583.849 209.661 584.25C209.502 584.642 209.278 584.983 208.989 585.272C208.709 585.552 208.363 585.771 207.953 585.93C207.551 586.089 207.103 586.168 206.609 586.168ZM206.595 585.174C207.267 585.174 207.785 584.992 208.149 584.628C208.522 584.264 208.709 583.751 208.709 583.088V582.976C208.709 582.313 208.522 581.8 208.149 581.436C207.785 581.072 207.267 580.89 206.595 580.89C205.923 580.89 205.4 581.072 205.027 581.436C204.663 581.8 204.481 582.313 204.481 582.976V583.088C204.481 583.751 204.663 584.264 205.027 584.628C205.4 584.992 205.923 585.174 206.595 585.174ZM214.989 586.168C214.392 586.168 213.878 586.056 213.449 585.832C213.02 585.599 212.665 585.267 212.385 584.838C212.105 584.409 211.9 583.881 211.769 583.256C211.638 582.631 211.573 581.917 211.573 581.114C211.573 580.321 211.638 579.611 211.769 578.986C211.9 578.351 212.105 577.819 212.385 577.39C212.665 576.961 213.02 576.634 213.449 576.41C213.878 576.177 214.392 576.06 214.989 576.06C215.586 576.06 216.1 576.177 216.529 576.41C216.958 576.634 217.313 576.961 217.593 577.39C217.873 577.819 218.078 578.351 218.209 578.986C218.34 579.611 218.405 580.321 218.405 581.114C218.405 581.917 218.34 582.631 218.209 583.256C218.078 583.881 217.873 584.409 217.593 584.838C217.313 585.267 216.958 585.599 216.529 585.832C216.1 586.056 215.586 586.168 214.989 586.168ZM214.989 585.146C215.381 585.146 215.717 585.071 215.997 584.922C216.277 584.763 216.501 584.544 216.669 584.264C216.846 583.984 216.977 583.648 217.061 583.256C217.145 582.855 217.187 582.407 217.187 581.912V580.316C217.187 579.831 217.145 579.387 217.061 578.986C216.977 578.585 216.846 578.244 216.669 577.964C216.501 577.684 216.277 577.469 215.997 577.32C215.717 577.161 215.381 577.082 214.989 577.082C214.597 577.082 214.261 577.161 213.981 577.32C213.701 577.469 213.472 577.684 213.295 577.964C213.127 578.244 213.001 578.585 212.917 578.986C212.833 579.387 212.791 579.831 212.791 580.316V581.912C212.791 582.407 212.833 582.855 212.917 583.256C213.001 583.648 213.127 583.984 213.295 584.264C213.472 584.544 213.701 584.763 213.981 584.922C214.261 585.071 214.597 585.146 214.989 585.146ZM214.989 581.94C214.662 581.94 214.434 581.875 214.303 581.744C214.182 581.613 214.121 581.455 214.121 581.268V580.96C214.121 580.773 214.182 580.615 214.303 580.484C214.434 580.353 214.662 580.288 214.989 580.288C215.316 580.288 215.54 580.353 215.661 580.484C215.792 580.615 215.857 580.773 215.857 580.96V581.268C215.857 581.455 215.792 581.613 215.661 581.744C215.54 581.875 215.316 581.94 214.989 581.94ZM228.908 578.776H230.028V579.952H230.084C230.551 579.056 231.293 578.608 232.31 578.608C233.197 578.608 233.887 578.939 234.382 579.602C234.886 580.265 235.138 581.193 235.138 582.388C235.138 583.583 234.886 584.511 234.382 585.174C233.887 585.837 233.197 586.168 232.31 586.168C231.293 586.168 230.551 585.72 230.084 584.824H230.028V588.8H228.908V578.776ZM231.876 585.174C232.529 585.174 233.033 584.978 233.388 584.586C233.752 584.185 233.934 583.657 233.934 583.004V581.772C233.934 581.119 233.752 580.596 233.388 580.204C233.033 579.803 232.529 579.602 231.876 579.602C231.624 579.602 231.386 579.635 231.162 579.7C230.938 579.765 230.742 579.863 230.574 579.994C230.406 580.115 230.271 580.269 230.168 580.456C230.075 580.633 230.028 580.843 230.028 581.086V583.69C230.028 583.933 230.075 584.147 230.168 584.334C230.271 584.511 230.406 584.665 230.574 584.796C230.742 584.917 230.938 585.011 231.162 585.076C231.386 585.141 231.624 585.174 231.876 585.174ZM236.827 586L239.515 582.332L236.897 578.776H238.241L239.333 580.302L240.201 581.506H240.257L241.097 580.302L242.175 578.776H243.463L240.817 582.318L243.533 586H242.189L240.971 584.306L240.145 583.158H240.089L239.291 584.306L238.115 586H236.827Z" fill="black"/>
<path d="M1203.52 84H1196.99V82.796L1200.26 79.856C1200.73 79.4267 1201.12 78.988 1201.43 78.54C1201.74 78.0827 1201.89 77.602 1201.89 77.098V76.93C1201.89 76.342 1201.74 75.8893 1201.43 75.572C1201.12 75.2453 1200.67 75.082 1200.06 75.082C1199.46 75.082 1199 75.236 1198.67 75.544C1198.36 75.8427 1198.12 76.244 1197.96 76.748L1196.91 76.356C1197 76.0667 1197.13 75.7867 1197.29 75.516C1197.46 75.236 1197.67 74.9887 1197.92 74.774C1198.17 74.5593 1198.47 74.3867 1198.83 74.256C1199.19 74.1253 1199.61 74.06 1200.09 74.06C1200.57 74.06 1201 74.13 1201.38 74.27C1201.76 74.41 1202.08 74.606 1202.33 74.858C1202.59 75.11 1202.79 75.4087 1202.92 75.754C1203.06 76.0993 1203.13 76.4773 1203.13 76.888C1203.13 77.2613 1203.07 77.6113 1202.96 77.938C1202.86 78.2647 1202.71 78.5773 1202.51 78.876C1202.32 79.1747 1202.09 79.4687 1201.82 79.758C1201.56 80.038 1201.27 80.318 1200.94 80.598L1198.21 82.978H1203.52V84ZM1208.61 84.168C1208.1 84.168 1207.63 84.084 1207.22 83.916C1206.81 83.7387 1206.46 83.4913 1206.17 83.174C1205.89 82.8473 1205.67 82.4507 1205.51 81.984C1205.37 81.5173 1205.29 80.9947 1205.29 80.416C1205.29 79.688 1205.4 79.0067 1205.61 78.372C1205.84 77.728 1206.12 77.1447 1206.45 76.622C1206.8 76.09 1207.18 75.6233 1207.6 75.222C1208.02 74.8113 1208.43 74.48 1208.83 74.228H1210.34C1209.81 74.6107 1209.34 74.984 1208.92 75.348C1208.51 75.712 1208.14 76.0947 1207.82 76.496C1207.51 76.888 1207.24 77.3127 1207.03 77.77C1206.81 78.218 1206.63 78.7267 1206.49 79.296L1206.56 79.324C1206.8 78.9227 1207.11 78.5913 1207.49 78.33C1207.87 78.0593 1208.37 77.924 1208.97 77.924C1209.4 77.924 1209.79 77.994 1210.15 78.134C1210.5 78.274 1210.81 78.4747 1211.07 78.736C1211.33 78.9973 1211.53 79.3147 1211.67 79.688C1211.82 80.0613 1211.9 80.4767 1211.9 80.934C1211.9 81.41 1211.82 81.8487 1211.66 82.25C1211.5 82.642 1211.28 82.9827 1210.99 83.272C1210.71 83.552 1210.36 83.7713 1209.95 83.93C1209.55 84.0887 1209.1 84.168 1208.61 84.168ZM1208.59 83.174C1209.27 83.174 1209.78 82.992 1210.15 82.628C1210.52 82.264 1210.71 81.7507 1210.71 81.088V80.976C1210.71 80.3133 1210.52 79.8 1210.15 79.436C1209.78 79.072 1209.27 78.89 1208.59 78.89C1207.92 78.89 1207.4 79.072 1207.03 79.436C1206.66 79.8 1206.48 80.3133 1206.48 80.976V81.088C1206.48 81.7507 1206.66 82.264 1207.03 82.628C1207.4 82.992 1207.92 83.174 1208.59 83.174ZM1216.99 84.168C1216.39 84.168 1215.88 84.056 1215.45 83.832C1215.02 83.5987 1214.67 83.2673 1214.39 82.838C1214.11 82.4087 1213.9 81.8813 1213.77 81.256C1213.64 80.6307 1213.57 79.9167 1213.57 79.114C1213.57 78.3207 1213.64 77.6113 1213.77 76.986C1213.9 76.3513 1214.11 75.8193 1214.39 75.39C1214.67 74.9607 1215.02 74.634 1215.45 74.41C1215.88 74.1767 1216.39 74.06 1216.99 74.06C1217.59 74.06 1218.1 74.1767 1218.53 74.41C1218.96 74.634 1219.31 74.9607 1219.59 75.39C1219.87 75.8193 1220.08 76.3513 1220.21 76.986C1220.34 77.6113 1220.41 78.3207 1220.41 79.114C1220.41 79.9167 1220.34 80.6307 1220.21 81.256C1220.08 81.8813 1219.87 82.4087 1219.59 82.838C1219.31 83.2673 1218.96 83.5987 1218.53 83.832C1218.1 84.056 1217.59 84.168 1216.99 84.168ZM1216.99 83.146C1217.38 83.146 1217.72 83.0713 1218 82.922C1218.28 82.7633 1218.5 82.544 1218.67 82.264C1218.85 81.984 1218.98 81.648 1219.06 81.256C1219.15 80.8547 1219.19 80.4067 1219.19 79.912V78.316C1219.19 77.8307 1219.15 77.3873 1219.06 76.986C1218.98 76.5847 1218.85 76.244 1218.67 75.964C1218.5 75.684 1218.28 75.4693 1218 75.32C1217.72 75.1613 1217.38 75.082 1216.99 75.082C1216.6 75.082 1216.26 75.1613 1215.98 75.32C1215.7 75.4693 1215.47 75.684 1215.3 75.964C1215.13 76.244 1215 76.5847 1214.92 76.986C1214.83 77.3873 1214.79 77.8307 1214.79 78.316V79.912C1214.79 80.4067 1214.83 80.8547 1214.92 81.256C1215 81.648 1215.13 81.984 1215.3 82.264C1215.47 82.544 1215.7 82.7633 1215.98 82.922C1216.26 83.0713 1216.6 83.146 1216.99 83.146ZM1216.99 79.94C1216.66 79.94 1216.43 79.8747 1216.3 79.744C1216.18 79.6133 1216.12 79.4547 1216.12 79.268V78.96C1216.12 78.7733 1216.18 78.6147 1216.3 78.484C1216.43 78.3533 1216.66 78.288 1216.99 78.288C1217.32 78.288 1217.54 78.3533 1217.66 78.484C1217.79 78.6147 1217.86 78.7733 1217.86 78.96V79.268C1217.86 79.4547 1217.79 79.6133 1217.66 79.744C1217.54 79.8747 1217.32 79.94 1216.99 79.94ZM1230.91 76.776H1232.03V77.952H1232.08C1232.55 77.056 1233.29 76.608 1234.31 76.608C1235.2 76.608 1235.89 76.9393 1236.38 77.602C1236.89 78.2647 1237.14 79.1933 1237.14 80.388C1237.14 81.5827 1236.89 82.5113 1236.38 83.174C1235.89 83.8367 1235.2 84.168 1234.31 84.168C1233.29 84.168 1232.55 83.72 1232.08 82.824H1232.03V86.8H1230.91V76.776ZM1233.88 83.174C1234.53 83.174 1235.03 82.978 1235.39 82.586C1235.75 82.1847 1235.93 81.6573 1235.93 81.004V79.772C1235.93 79.1187 1235.75 78.596 1235.39 78.204C1235.03 77.8027 1234.53 77.602 1233.88 77.602C1233.62 77.602 1233.39 77.6347 1233.16 77.7C1232.94 77.7653 1232.74 77.8633 1232.57 77.994C1232.41 78.1153 1232.27 78.2693 1232.17 78.456C1232.07 78.6333 1232.03 78.8433 1232.03 79.086V81.69C1232.03 81.9327 1232.07 82.1473 1232.17 82.334C1232.27 82.5113 1232.41 82.6653 1232.57 82.796C1232.74 82.9173 1232.94 83.0107 1233.16 83.076C1233.39 83.1413 1233.62 83.174 1233.88 83.174ZM1238.83 84L1241.51 80.332L1238.9 76.776H1240.24L1241.33 78.302L1242.2 79.506H1242.26L1243.1 78.302L1244.17 76.776H1245.46L1242.82 80.318L1245.53 84H1244.19L1242.97 82.306L1242.14 81.158H1242.09L1241.29 82.306L1240.11 84H1238.83Z" fill="black"/>
<path d="M424.292 340V338.082H419.476V337.046L423.704 330.228H425.412V337.116H426.868V338.082H425.412V340H424.292ZM420.526 337.116H424.292V331.138H424.236L420.526 337.116ZM431.595 340.168C431.025 340.168 430.526 340.098 430.097 339.958C429.667 339.809 429.308 339.608 429.019 339.356C428.739 339.104 428.524 338.805 428.375 338.46C428.235 338.115 428.165 337.741 428.165 337.34C428.165 336.668 428.347 336.136 428.711 335.744C429.075 335.352 429.555 335.077 430.153 334.918V334.806C429.63 334.629 429.215 334.344 428.907 333.952C428.608 333.551 428.459 333.07 428.459 332.51C428.459 331.763 428.734 331.171 429.285 330.732C429.835 330.284 430.605 330.06 431.595 330.06C432.584 330.06 433.354 330.284 433.905 330.732C434.455 331.171 434.731 331.763 434.731 332.51C434.731 333.07 434.577 333.551 434.269 333.952C433.97 334.344 433.559 334.629 433.037 334.806V334.918C433.634 335.077 434.115 335.352 434.479 335.744C434.843 336.136 435.025 336.668 435.025 337.34C435.025 337.741 434.95 338.115 434.801 338.46C434.661 338.805 434.446 339.104 434.157 339.356C433.867 339.608 433.508 339.809 433.079 339.958C432.659 340.098 432.164 340.168 431.595 340.168ZM431.595 339.174C432.285 339.174 432.827 339.02 433.219 338.712C433.611 338.404 433.807 337.97 433.807 337.41V337.102C433.807 336.542 433.611 336.108 433.219 335.8C432.836 335.492 432.295 335.338 431.595 335.338C430.895 335.338 430.349 335.492 429.957 335.8C429.574 336.108 429.383 336.542 429.383 337.102V337.41C429.383 337.97 429.579 338.404 429.971 338.712C430.363 339.02 430.904 339.174 431.595 339.174ZM431.595 334.386C432.229 334.386 432.71 334.251 433.037 333.98C433.373 333.709 433.541 333.322 433.541 332.818V332.622C433.541 332.118 433.368 331.731 433.023 331.46C432.687 331.189 432.211 331.054 431.595 331.054C430.979 331.054 430.498 331.189 430.153 331.46C429.817 331.731 429.649 332.118 429.649 332.622V332.818C429.649 333.322 429.812 333.709 430.139 333.98C430.475 334.251 430.96 334.386 431.595 334.386ZM445.514 332.776H446.634V333.952H446.69C447.156 333.056 447.898 332.608 448.916 332.608C449.802 332.608 450.493 332.939 450.988 333.602C451.492 334.265 451.744 335.193 451.744 336.388C451.744 337.583 451.492 338.511 450.988 339.174C450.493 339.837 449.802 340.168 448.916 340.168C447.898 340.168 447.156 339.72 446.69 338.824H446.634V342.8H445.514V332.776ZM448.482 339.174C449.135 339.174 449.639 338.978 449.994 338.586C450.358 338.185 450.54 337.657 450.54 337.004V335.772C450.54 335.119 450.358 334.596 449.994 334.204C449.639 333.803 449.135 333.602 448.482 333.602C448.23 333.602 447.992 333.635 447.768 333.7C447.544 333.765 447.348 333.863 447.18 333.994C447.012 334.115 446.876 334.269 446.774 334.456C446.68 334.633 446.634 334.843 446.634 335.086V337.69C446.634 337.933 446.68 338.147 446.774 338.334C446.876 338.511 447.012 338.665 447.18 338.796C447.348 338.917 447.544 339.011 447.768 339.076C447.992 339.141 448.23 339.174 448.482 339.174ZM453.432 340L456.12 336.332L453.502 332.776H454.846L455.938 334.302L456.806 335.506H456.862L457.702 334.302L458.78 332.776H460.068L457.422 336.318L460.138 340H458.794L457.576 338.306L456.75 337.158H456.694L455.896 338.306L454.72 340H453.432Z" fill="black"/>
<path d="M768.292 242V240.082H763.476V239.046L767.704 232.228H769.412V239.116H770.868V240.082H769.412V242H768.292ZM764.526 239.116H768.292V233.138H768.236L764.526 239.116ZM775.595 242.168C775.025 242.168 774.526 242.098 774.097 241.958C773.667 241.809 773.308 241.608 773.019 241.356C772.739 241.104 772.524 240.805 772.375 240.46C772.235 240.115 772.165 239.741 772.165 239.34C772.165 238.668 772.347 238.136 772.711 237.744C773.075 237.352 773.555 237.077 774.153 236.918V236.806C773.63 236.629 773.215 236.344 772.907 235.952C772.608 235.551 772.459 235.07 772.459 234.51C772.459 233.763 772.734 233.171 773.285 232.732C773.835 232.284 774.605 232.06 775.595 232.06C776.584 232.06 777.354 232.284 777.905 232.732C778.455 233.171 778.731 233.763 778.731 234.51C778.731 235.07 778.577 235.551 778.269 235.952C777.97 236.344 777.559 236.629 777.037 236.806V236.918C777.634 237.077 778.115 237.352 778.479 237.744C778.843 238.136 779.025 238.668 779.025 239.34C779.025 239.741 778.95 240.115 778.801 240.46C778.661 240.805 778.446 241.104 778.157 241.356C777.867 241.608 777.508 241.809 777.079 241.958C776.659 242.098 776.164 242.168 775.595 242.168ZM775.595 241.174C776.285 241.174 776.827 241.02 777.219 240.712C777.611 240.404 777.807 239.97 777.807 239.41V239.102C777.807 238.542 777.611 238.108 777.219 237.8C776.836 237.492 776.295 237.338 775.595 237.338C774.895 237.338 774.349 237.492 773.957 237.8C773.574 238.108 773.383 238.542 773.383 239.102V239.41C773.383 239.97 773.579 240.404 773.971 240.712C774.363 241.02 774.904 241.174 775.595 241.174ZM775.595 236.386C776.229 236.386 776.71 236.251 777.037 235.98C777.373 235.709 777.541 235.322 777.541 234.818V234.622C777.541 234.118 777.368 233.731 777.023 233.46C776.687 233.189 776.211 233.054 775.595 233.054C774.979 233.054 774.498 233.189 774.153 233.46C773.817 233.731 773.649 234.118 773.649 234.622V234.818C773.649 235.322 773.812 235.709 774.139 235.98C774.475 236.251 774.96 236.386 775.595 236.386ZM789.514 234.776H790.634V235.952H790.69C791.156 235.056 791.898 234.608 792.916 234.608C793.802 234.608 794.493 234.939 794.988 235.602C795.492 236.265 795.744 237.193 795.744 238.388C795.744 239.583 795.492 240.511 794.988 241.174C794.493 241.837 793.802 242.168 792.916 242.168C791.898 242.168 791.156 241.72 790.69 240.824H790.634V244.8H789.514V234.776ZM792.482 241.174C793.135 241.174 793.639 240.978 793.994 240.586C794.358 240.185 794.54 239.657 794.54 239.004V237.772C794.54 237.119 794.358 236.596 793.994 236.204C793.639 235.803 793.135 235.602 792.482 235.602C792.23 235.602 791.992 235.635 791.768 235.7C791.544 235.765 791.348 235.863 791.18 235.994C791.012 236.115 790.876 236.269 790.774 236.456C790.68 236.633 790.634 236.843 790.634 237.086V239.69C790.634 239.933 790.68 240.147 790.774 240.334C790.876 240.511 791.012 240.665 791.18 240.796C791.348 240.917 791.544 241.011 791.768 241.076C791.992 241.141 792.23 241.174 792.482 241.174ZM797.432 242L800.12 238.332L797.502 234.776H798.846L799.938 236.302L800.806 237.506H800.862L801.702 236.302L802.78 234.776H804.068L801.422 238.318L804.138 242H802.794L801.576 240.306L800.75 239.158H800.694L799.896 240.306L798.72 242H797.432Z" fill="black"/>
<path d="M972.292 436V434.082H967.476V433.046L971.704 426.228H973.412V433.116H974.868V434.082H973.412V436H972.292ZM968.526 433.116H972.292V427.138H972.236L968.526 433.116ZM979.595 436.168C979.025 436.168 978.526 436.098 978.097 435.958C977.667 435.809 977.308 435.608 977.019 435.356C976.739 435.104 976.524 434.805 976.375 434.46C976.235 434.115 976.165 433.741 976.165 433.34C976.165 432.668 976.347 432.136 976.711 431.744C977.075 431.352 977.555 431.077 978.153 430.918V430.806C977.63 430.629 977.215 430.344 976.907 429.952C976.608 429.551 976.459 429.07 976.459 428.51C976.459 427.763 976.734 427.171 977.285 426.732C977.835 426.284 978.605 426.06 979.595 426.06C980.584 426.06 981.354 426.284 981.905 426.732C982.455 427.171 982.731 427.763 982.731 428.51C982.731 429.07 982.577 429.551 982.269 429.952C981.97 430.344 981.559 430.629 981.037 430.806V430.918C981.634 431.077 982.115 431.352 982.479 431.744C982.843 432.136 983.025 432.668 983.025 433.34C983.025 433.741 982.95 434.115 982.801 434.46C982.661 434.805 982.446 435.104 982.157 435.356C981.867 435.608 981.508 435.809 981.079 435.958C980.659 436.098 980.164 436.168 979.595 436.168ZM979.595 435.174C980.285 435.174 980.827 435.02 981.219 434.712C981.611 434.404 981.807 433.97 981.807 433.41V433.102C981.807 432.542 981.611 432.108 981.219 431.8C980.836 431.492 980.295 431.338 979.595 431.338C978.895 431.338 978.349 431.492 977.957 431.8C977.574 432.108 977.383 432.542 977.383 433.102V433.41C977.383 433.97 977.579 434.404 977.971 434.712C978.363 435.02 978.904 435.174 979.595 435.174ZM979.595 430.386C980.229 430.386 980.71 430.251 981.037 429.98C981.373 429.709 981.541 429.322 981.541 428.818V428.622C981.541 428.118 981.368 427.731 981.023 427.46C980.687 427.189 980.211 427.054 979.595 427.054C978.979 427.054 978.498 427.189 978.153 427.46C977.817 427.731 977.649 428.118 977.649 428.622V428.818C977.649 429.322 977.812 429.709 978.139 429.98C978.475 430.251 978.96 430.386 979.595 430.386ZM993.514 428.776H994.634V429.952H994.69C995.156 429.056 995.898 428.608 996.916 428.608C997.802 428.608 998.493 428.939 998.988 429.602C999.492 430.265 999.744 431.193 999.744 432.388C999.744 433.583 999.492 434.511 998.988 435.174C998.493 435.837 997.802 436.168 996.916 436.168C995.898 436.168 995.156 435.72 994.69 434.824H994.634V438.8H993.514V428.776ZM996.482 435.174C997.135 435.174 997.639 434.978 997.994 434.586C998.358 434.185 998.54 433.657 998.54 433.004V431.772C998.54 431.119 998.358 430.596 997.994 430.204C997.639 429.803 997.135 429.602 996.482 429.602C996.23 429.602 995.992 429.635 995.768 429.7C995.544 429.765 995.348 429.863 995.18 429.994C995.012 430.115 994.876 430.269 994.774 430.456C994.68 430.633 994.634 430.843 994.634 431.086V433.69C994.634 433.933 994.68 434.147 994.774 434.334C994.876 434.511 995.012 434.665 995.18 434.796C995.348 434.917 995.544 435.011 995.768 435.076C995.992 435.141 996.23 435.174 996.482 435.174ZM1001.43 436L1004.12 432.332L1001.5 428.776H1002.85L1003.94 430.302L1004.81 431.506H1004.86L1005.7 430.302L1006.78 428.776H1008.07L1005.42 432.318L1008.14 436H1006.79L1005.58 434.306L1004.75 433.158H1004.69L1003.9 434.306L1002.72 436H1001.43Z" fill="black"/>
<path d="M1318.29 337V335.082H1313.48V334.046L1317.7 327.228H1319.41V334.116H1320.87V335.082H1319.41V337H1318.29ZM1314.53 334.116H1318.29V328.138H1318.24L1314.53 334.116ZM1325.59 337.168C1325.03 337.168 1324.53 337.098 1324.1 336.958C1323.67 336.809 1323.31 336.608 1323.02 336.356C1322.74 336.104 1322.52 335.805 1322.37 335.46C1322.23 335.115 1322.16 334.741 1322.16 334.34C1322.16 333.668 1322.35 333.136 1322.71 332.744C1323.07 332.352 1323.56 332.077 1324.15 331.918V331.806C1323.63 331.629 1323.21 331.344 1322.91 330.952C1322.61 330.551 1322.46 330.07 1322.46 329.51C1322.46 328.763 1322.73 328.171 1323.28 327.732C1323.84 327.284 1324.61 327.06 1325.59 327.06C1326.58 327.06 1327.35 327.284 1327.9 327.732C1328.46 328.171 1328.73 328.763 1328.73 329.51C1328.73 330.07 1328.58 330.551 1328.27 330.952C1327.97 331.344 1327.56 331.629 1327.04 331.806V331.918C1327.63 332.077 1328.11 332.352 1328.48 332.744C1328.84 333.136 1329.02 333.668 1329.02 334.34C1329.02 334.741 1328.95 335.115 1328.8 335.46C1328.66 335.805 1328.45 336.104 1328.16 336.356C1327.87 336.608 1327.51 336.809 1327.08 336.958C1326.66 337.098 1326.16 337.168 1325.59 337.168ZM1325.59 336.174C1326.29 336.174 1326.83 336.02 1327.22 335.712C1327.61 335.404 1327.81 334.97 1327.81 334.41V334.102C1327.81 333.542 1327.61 333.108 1327.22 332.8C1326.84 332.492 1326.29 332.338 1325.59 332.338C1324.89 332.338 1324.35 332.492 1323.96 332.8C1323.57 333.108 1323.38 333.542 1323.38 334.102V334.41C1323.38 334.97 1323.58 335.404 1323.97 335.712C1324.36 336.02 1324.9 336.174 1325.59 336.174ZM1325.59 331.386C1326.23 331.386 1326.71 331.251 1327.04 330.98C1327.37 330.709 1327.54 330.322 1327.54 329.818V329.622C1327.54 329.118 1327.37 328.731 1327.02 328.46C1326.69 328.189 1326.21 328.054 1325.59 328.054C1324.98 328.054 1324.5 328.189 1324.15 328.46C1323.82 328.731 1323.65 329.118 1323.65 329.622V329.818C1323.65 330.322 1323.81 330.709 1324.14 330.98C1324.47 331.251 1324.96 331.386 1325.59 331.386ZM1339.51 329.776H1340.63V330.952H1340.69C1341.16 330.056 1341.9 329.608 1342.92 329.608C1343.8 329.608 1344.49 329.939 1344.99 330.602C1345.49 331.265 1345.74 332.193 1345.74 333.388C1345.74 334.583 1345.49 335.511 1344.99 336.174C1344.49 336.837 1343.8 337.168 1342.92 337.168C1341.9 337.168 1341.16 336.72 1340.69 335.824H1340.63V339.8H1339.51V329.776ZM1342.48 336.174C1343.13 336.174 1343.64 335.978 1343.99 335.586C1344.36 335.185 1344.54 334.657 1344.54 334.004V332.772C1344.54 332.119 1344.36 331.596 1343.99 331.204C1343.64 330.803 1343.13 330.602 1342.48 330.602C1342.23 330.602 1341.99 330.635 1341.77 330.7C1341.54 330.765 1341.35 330.863 1341.18 330.994C1341.01 331.115 1340.88 331.269 1340.77 331.456C1340.68 331.633 1340.63 331.843 1340.63 332.086V334.69C1340.63 334.933 1340.68 335.147 1340.77 335.334C1340.88 335.511 1341.01 335.665 1341.18 335.796C1341.35 335.917 1341.54 336.011 1341.77 336.076C1341.99 336.141 1342.23 336.174 1342.48 336.174ZM1347.43 337L1350.12 333.332L1347.5 329.776H1348.85L1349.94 331.302L1350.81 332.506H1350.86L1351.7 331.302L1352.78 329.776H1354.07L1351.42 333.318L1354.14 337H1352.79L1351.58 335.306L1350.75 334.158H1350.69L1349.9 335.306L1348.72 337H1347.43Z" fill="black"/>
</svg>
